%TF.GenerationSoftware,KiCad,Pcbnew,(5.99.0-12964-g8e5cbc5cf0)*%
%TF.CreationDate,2021-11-17T19:32:36+00:00*%
%TF.ProjectId,board,626f6172-642e-46b6-9963-61645f706362,rev?*%
%TF.SameCoordinates,Original*%
%TF.FileFunction,Legend,Top*%
%TF.FilePolarity,Positive*%
%FSLAX46Y46*%
G04 Gerber Fmt 4.6, Leading zero omitted, Abs format (unit mm)*
G04 Created by KiCad (PCBNEW (5.99.0-12964-g8e5cbc5cf0)) date 2021-11-17 19:32:36*
%MOMM*%
%LPD*%
G01*
G04 APERTURE LIST*
%ADD10C,0.120000*%
%ADD11C,0.150000*%
%ADD12C,0.100000*%
%ADD13C,0.130000*%
%ADD14C,0.010000*%
G04 APERTURE END LIST*
D10*
X152000000Y-121750000D02*
G75*
G03*
X152000000Y-121750000I-250000J0D01*
G01*
X137500000Y-116250000D02*
G75*
G03*
X137500000Y-116250000I-250000J0D01*
G01*
X125500000Y-128750000D02*
G75*
G03*
X125500000Y-128750000I-250000J0D01*
G01*
D11*
X166071428Y-123035714D02*
X166309523Y-123702380D01*
X166547619Y-123035714D01*
X167119047Y-122702380D02*
X167214285Y-122702380D01*
X167309523Y-122750000D01*
X167357142Y-122797619D01*
X167404761Y-122892857D01*
X167452380Y-123083333D01*
X167452380Y-123321428D01*
X167404761Y-123511904D01*
X167357142Y-123607142D01*
X167309523Y-123654761D01*
X167214285Y-123702380D01*
X167119047Y-123702380D01*
X167023809Y-123654761D01*
X166976190Y-123607142D01*
X166928571Y-123511904D01*
X166880952Y-123321428D01*
X166880952Y-123083333D01*
X166928571Y-122892857D01*
X166976190Y-122797619D01*
X167023809Y-122750000D01*
X167119047Y-122702380D01*
X167880952Y-123607142D02*
X167928571Y-123654761D01*
X167880952Y-123702380D01*
X167833333Y-123654761D01*
X167880952Y-123607142D01*
X167880952Y-123702380D01*
X168880952Y-123702380D02*
X168309523Y-123702380D01*
X168595238Y-123702380D02*
X168595238Y-122702380D01*
X168500000Y-122845238D01*
X168404761Y-122940476D01*
X168309523Y-122988095D01*
X162966666Y-119689666D02*
X162633333Y-119689666D01*
X162633333Y-118989666D01*
X163166666Y-119489666D02*
X163500000Y-119489666D01*
X163100000Y-119689666D02*
X163333333Y-118989666D01*
X163566666Y-119689666D01*
X163933333Y-119356333D02*
X163933333Y-119689666D01*
X163700000Y-118989666D02*
X163933333Y-119356333D01*
X164166666Y-118989666D01*
X164533333Y-118989666D02*
X164666666Y-118989666D01*
X164733333Y-119023000D01*
X164800000Y-119089666D01*
X164833333Y-119223000D01*
X164833333Y-119456333D01*
X164800000Y-119589666D01*
X164733333Y-119656333D01*
X164666666Y-119689666D01*
X164533333Y-119689666D01*
X164466666Y-119656333D01*
X164400000Y-119589666D01*
X164366666Y-119456333D01*
X164366666Y-119223000D01*
X164400000Y-119089666D01*
X164466666Y-119023000D01*
X164533333Y-118989666D01*
X165133333Y-118989666D02*
X165133333Y-119556333D01*
X165166666Y-119623000D01*
X165200000Y-119656333D01*
X165266666Y-119689666D01*
X165400000Y-119689666D01*
X165466666Y-119656333D01*
X165500000Y-119623000D01*
X165533333Y-119556333D01*
X165533333Y-118989666D01*
X165766666Y-118989666D02*
X166166666Y-118989666D01*
X165966666Y-119689666D02*
X165966666Y-118989666D01*
X167166666Y-119323000D02*
X167266666Y-119356333D01*
X167300000Y-119389666D01*
X167333333Y-119456333D01*
X167333333Y-119556333D01*
X167300000Y-119623000D01*
X167266666Y-119656333D01*
X167200000Y-119689666D01*
X166933333Y-119689666D01*
X166933333Y-118989666D01*
X167166666Y-118989666D01*
X167233333Y-119023000D01*
X167266666Y-119056333D01*
X167300000Y-119123000D01*
X167300000Y-119189666D01*
X167266666Y-119256333D01*
X167233333Y-119289666D01*
X167166666Y-119323000D01*
X166933333Y-119323000D01*
X167766666Y-119356333D02*
X167766666Y-119689666D01*
X167533333Y-118989666D02*
X167766666Y-119356333D01*
X168000000Y-118989666D01*
X168733333Y-119656333D02*
X168833333Y-119689666D01*
X169000000Y-119689666D01*
X169066666Y-119656333D01*
X169100000Y-119623000D01*
X169133333Y-119556333D01*
X169133333Y-119489666D01*
X169100000Y-119423000D01*
X169066666Y-119389666D01*
X169000000Y-119356333D01*
X168866666Y-119323000D01*
X168800000Y-119289666D01*
X168766666Y-119256333D01*
X168733333Y-119189666D01*
X168733333Y-119123000D01*
X168766666Y-119056333D01*
X168800000Y-119023000D01*
X168866666Y-118989666D01*
X169033333Y-118989666D01*
X169133333Y-119023000D01*
X169566666Y-118989666D02*
X169700000Y-118989666D01*
X169766666Y-119023000D01*
X169833333Y-119089666D01*
X169866666Y-119223000D01*
X169866666Y-119456333D01*
X169833333Y-119589666D01*
X169766666Y-119656333D01*
X169700000Y-119689666D01*
X169566666Y-119689666D01*
X169500000Y-119656333D01*
X169433333Y-119589666D01*
X169400000Y-119456333D01*
X169400000Y-119223000D01*
X169433333Y-119089666D01*
X169500000Y-119023000D01*
X169566666Y-118989666D01*
X170166666Y-119689666D02*
X170166666Y-118989666D01*
X170566666Y-119689666D01*
X170566666Y-118989666D01*
X171033333Y-118989666D02*
X171166666Y-118989666D01*
X171233333Y-119023000D01*
X171300000Y-119089666D01*
X171333333Y-119223000D01*
X171333333Y-119456333D01*
X171300000Y-119589666D01*
X171233333Y-119656333D01*
X171166666Y-119689666D01*
X171033333Y-119689666D01*
X170966666Y-119656333D01*
X170900000Y-119589666D01*
X170866666Y-119456333D01*
X170866666Y-119223000D01*
X170900000Y-119089666D01*
X170966666Y-119023000D01*
X171033333Y-118989666D01*
X171600000Y-119656333D02*
X171700000Y-119689666D01*
X171866666Y-119689666D01*
X171933333Y-119656333D01*
X171966666Y-119623000D01*
X172000000Y-119556333D01*
X172000000Y-119489666D01*
X171966666Y-119423000D01*
X171933333Y-119389666D01*
X171866666Y-119356333D01*
X171733333Y-119323000D01*
X171666666Y-119289666D01*
X171633333Y-119256333D01*
X171600000Y-119189666D01*
X171600000Y-119123000D01*
X171633333Y-119056333D01*
X171666666Y-119023000D01*
X171733333Y-118989666D01*
X171900000Y-118989666D01*
X172000000Y-119023000D01*
X172300000Y-118989666D02*
X172300000Y-119556333D01*
X172333333Y-119623000D01*
X172366666Y-119656333D01*
X172433333Y-119689666D01*
X172566666Y-119689666D01*
X172633333Y-119656333D01*
X172666666Y-119623000D01*
X172700000Y-119556333D01*
X172700000Y-118989666D01*
X173000000Y-119656333D02*
X173100000Y-119689666D01*
X173266666Y-119689666D01*
X173333333Y-119656333D01*
X173366666Y-119623000D01*
X173400000Y-119556333D01*
X173400000Y-119489666D01*
X173366666Y-119423000D01*
X173333333Y-119389666D01*
X173266666Y-119356333D01*
X173133333Y-119323000D01*
X173066666Y-119289666D01*
X173033333Y-119256333D01*
X173000000Y-119189666D01*
X173000000Y-119123000D01*
X173033333Y-119056333D01*
X173066666Y-119023000D01*
X173133333Y-118989666D01*
X173300000Y-118989666D01*
X173400000Y-119023000D01*
X161466666Y-120816666D02*
X161466666Y-120116666D01*
X161633333Y-120116666D01*
X161733333Y-120150000D01*
X161800000Y-120216666D01*
X161833333Y-120283333D01*
X161866666Y-120416666D01*
X161866666Y-120516666D01*
X161833333Y-120650000D01*
X161800000Y-120716666D01*
X161733333Y-120783333D01*
X161633333Y-120816666D01*
X161466666Y-120816666D01*
X162166666Y-120450000D02*
X162400000Y-120450000D01*
X162500000Y-120816666D02*
X162166666Y-120816666D01*
X162166666Y-120116666D01*
X162500000Y-120116666D01*
X162766666Y-120783333D02*
X162866666Y-120816666D01*
X163033333Y-120816666D01*
X163100000Y-120783333D01*
X163133333Y-120750000D01*
X163166666Y-120683333D01*
X163166666Y-120616666D01*
X163133333Y-120550000D01*
X163100000Y-120516666D01*
X163033333Y-120483333D01*
X162900000Y-120450000D01*
X162833333Y-120416666D01*
X162800000Y-120383333D01*
X162766666Y-120316666D01*
X162766666Y-120250000D01*
X162800000Y-120183333D01*
X162833333Y-120150000D01*
X162900000Y-120116666D01*
X163066666Y-120116666D01*
X163166666Y-120150000D01*
X163466666Y-120816666D02*
X163466666Y-120116666D01*
X164166666Y-120150000D02*
X164100000Y-120116666D01*
X164000000Y-120116666D01*
X163900000Y-120150000D01*
X163833333Y-120216666D01*
X163800000Y-120283333D01*
X163766666Y-120416666D01*
X163766666Y-120516666D01*
X163800000Y-120650000D01*
X163833333Y-120716666D01*
X163900000Y-120783333D01*
X164000000Y-120816666D01*
X164066666Y-120816666D01*
X164166666Y-120783333D01*
X164200000Y-120750000D01*
X164200000Y-120516666D01*
X164066666Y-120516666D01*
X164500000Y-120816666D02*
X164500000Y-120116666D01*
X164900000Y-120816666D01*
X164900000Y-120116666D01*
X166000000Y-120450000D02*
X166100000Y-120483333D01*
X166133333Y-120516666D01*
X166166666Y-120583333D01*
X166166666Y-120683333D01*
X166133333Y-120750000D01*
X166100000Y-120783333D01*
X166033333Y-120816666D01*
X165766666Y-120816666D01*
X165766666Y-120116666D01*
X166000000Y-120116666D01*
X166066666Y-120150000D01*
X166100000Y-120183333D01*
X166133333Y-120250000D01*
X166133333Y-120316666D01*
X166100000Y-120383333D01*
X166066666Y-120416666D01*
X166000000Y-120450000D01*
X165766666Y-120450000D01*
X166600000Y-120483333D02*
X166600000Y-120816666D01*
X166366666Y-120116666D02*
X166600000Y-120483333D01*
X166833333Y-120116666D01*
X167533333Y-120116666D02*
X167700000Y-120816666D01*
X167833333Y-120316666D01*
X167966666Y-120816666D01*
X168133333Y-120116666D01*
X168400000Y-120816666D02*
X168400000Y-120116666D01*
X168733333Y-120816666D02*
X168733333Y-120116666D01*
X169133333Y-120816666D01*
X169133333Y-120116666D01*
X169366666Y-120116666D02*
X169766666Y-120116666D01*
X169566666Y-120816666D02*
X169566666Y-120116666D01*
X170000000Y-120450000D02*
X170233333Y-120450000D01*
X170333333Y-120816666D02*
X170000000Y-120816666D01*
X170000000Y-120116666D01*
X170333333Y-120116666D01*
X171033333Y-120816666D02*
X170800000Y-120483333D01*
X170633333Y-120816666D02*
X170633333Y-120116666D01*
X170900000Y-120116666D01*
X170966666Y-120150000D01*
X171000000Y-120183333D01*
X171033333Y-120250000D01*
X171033333Y-120350000D01*
X171000000Y-120416666D01*
X170966666Y-120450000D01*
X170900000Y-120483333D01*
X170633333Y-120483333D01*
X171566666Y-120450000D02*
X171666666Y-120483333D01*
X171700000Y-120516666D01*
X171733333Y-120583333D01*
X171733333Y-120683333D01*
X171700000Y-120750000D01*
X171666666Y-120783333D01*
X171600000Y-120816666D01*
X171333333Y-120816666D01*
X171333333Y-120116666D01*
X171566666Y-120116666D01*
X171633333Y-120150000D01*
X171666666Y-120183333D01*
X171700000Y-120250000D01*
X171700000Y-120316666D01*
X171666666Y-120383333D01*
X171633333Y-120416666D01*
X171566666Y-120450000D01*
X171333333Y-120450000D01*
X172366666Y-120816666D02*
X172033333Y-120816666D01*
X172033333Y-120116666D01*
X172733333Y-120116666D02*
X172866666Y-120116666D01*
X172933333Y-120150000D01*
X173000000Y-120216666D01*
X173033333Y-120350000D01*
X173033333Y-120583333D01*
X173000000Y-120716666D01*
X172933333Y-120783333D01*
X172866666Y-120816666D01*
X172733333Y-120816666D01*
X172666666Y-120783333D01*
X172600000Y-120716666D01*
X172566666Y-120583333D01*
X172566666Y-120350000D01*
X172600000Y-120216666D01*
X172666666Y-120150000D01*
X172733333Y-120116666D01*
X173466666Y-120116666D02*
X173600000Y-120116666D01*
X173666666Y-120150000D01*
X173733333Y-120216666D01*
X173766666Y-120350000D01*
X173766666Y-120583333D01*
X173733333Y-120716666D01*
X173666666Y-120783333D01*
X173600000Y-120816666D01*
X173466666Y-120816666D01*
X173400000Y-120783333D01*
X173333333Y-120716666D01*
X173300000Y-120583333D01*
X173300000Y-120350000D01*
X173333333Y-120216666D01*
X173400000Y-120150000D01*
X173466666Y-120116666D01*
X174066666Y-120816666D02*
X174066666Y-120116666D01*
X174300000Y-120616666D01*
X174533333Y-120116666D01*
X174533333Y-120816666D01*
X165533333Y-121943666D02*
X165533333Y-121243666D01*
X165933333Y-121943666D01*
X165933333Y-121243666D01*
X166400000Y-121243666D02*
X166533333Y-121243666D01*
X166600000Y-121277000D01*
X166666666Y-121343666D01*
X166700000Y-121477000D01*
X166700000Y-121710333D01*
X166666666Y-121843666D01*
X166600000Y-121910333D01*
X166533333Y-121943666D01*
X166400000Y-121943666D01*
X166333333Y-121910333D01*
X166266666Y-121843666D01*
X166233333Y-121710333D01*
X166233333Y-121477000D01*
X166266666Y-121343666D01*
X166333333Y-121277000D01*
X166400000Y-121243666D01*
X166900000Y-121243666D02*
X167133333Y-121943666D01*
X167366666Y-121243666D01*
X168100000Y-121310333D02*
X168133333Y-121277000D01*
X168200000Y-121243666D01*
X168366666Y-121243666D01*
X168433333Y-121277000D01*
X168466666Y-121310333D01*
X168500000Y-121377000D01*
X168500000Y-121443666D01*
X168466666Y-121543666D01*
X168066666Y-121943666D01*
X168500000Y-121943666D01*
X168933333Y-121243666D02*
X169000000Y-121243666D01*
X169066666Y-121277000D01*
X169100000Y-121310333D01*
X169133333Y-121377000D01*
X169166666Y-121510333D01*
X169166666Y-121677000D01*
X169133333Y-121810333D01*
X169100000Y-121877000D01*
X169066666Y-121910333D01*
X169000000Y-121943666D01*
X168933333Y-121943666D01*
X168866666Y-121910333D01*
X168833333Y-121877000D01*
X168800000Y-121810333D01*
X168766666Y-121677000D01*
X168766666Y-121510333D01*
X168800000Y-121377000D01*
X168833333Y-121310333D01*
X168866666Y-121277000D01*
X168933333Y-121243666D01*
X169433333Y-121310333D02*
X169466666Y-121277000D01*
X169533333Y-121243666D01*
X169700000Y-121243666D01*
X169766666Y-121277000D01*
X169800000Y-121310333D01*
X169833333Y-121377000D01*
X169833333Y-121443666D01*
X169800000Y-121543666D01*
X169400000Y-121943666D01*
X169833333Y-121943666D01*
X170500000Y-121943666D02*
X170100000Y-121943666D01*
X170300000Y-121943666D02*
X170300000Y-121243666D01*
X170233333Y-121343666D01*
X170166666Y-121410333D01*
X170100000Y-121443666D01*
X118185714Y-149657142D02*
X118185714Y-148757142D01*
X118700000Y-149657142D02*
X118314285Y-149142857D01*
X118700000Y-148757142D02*
X118185714Y-149271428D01*
X119257142Y-148757142D02*
X119428571Y-148757142D01*
X119514285Y-148800000D01*
X119600000Y-148885714D01*
X119642857Y-149057142D01*
X119642857Y-149357142D01*
X119600000Y-149528571D01*
X119514285Y-149614285D01*
X119428571Y-149657142D01*
X119257142Y-149657142D01*
X119171428Y-149614285D01*
X119085714Y-149528571D01*
X119042857Y-149357142D01*
X119042857Y-149057142D01*
X119085714Y-148885714D01*
X119171428Y-148800000D01*
X119257142Y-148757142D01*
X119985714Y-149614285D02*
X120114285Y-149657142D01*
X120328571Y-149657142D01*
X120414285Y-149614285D01*
X120457142Y-149571428D01*
X120500000Y-149485714D01*
X120500000Y-149400000D01*
X120457142Y-149314285D01*
X120414285Y-149271428D01*
X120328571Y-149228571D01*
X120157142Y-149185714D01*
X120071428Y-149142857D01*
X120028571Y-149100000D01*
X119985714Y-149014285D01*
X119985714Y-148928571D01*
X120028571Y-148842857D01*
X120071428Y-148800000D01*
X120157142Y-148757142D01*
X120371428Y-148757142D01*
X120500000Y-148800000D01*
X120885714Y-149657142D02*
X120885714Y-148757142D01*
X121185714Y-149400000D01*
X121485714Y-148757142D01*
X121485714Y-149657142D01*
X122085714Y-148757142D02*
X122257142Y-148757142D01*
X122342857Y-148800000D01*
X122428571Y-148885714D01*
X122471428Y-149057142D01*
X122471428Y-149357142D01*
X122428571Y-149528571D01*
X122342857Y-149614285D01*
X122257142Y-149657142D01*
X122085714Y-149657142D01*
X122000000Y-149614285D01*
X121914285Y-149528571D01*
X121871428Y-149357142D01*
X121871428Y-149057142D01*
X121914285Y-148885714D01*
X122000000Y-148800000D01*
X122085714Y-148757142D01*
X123842857Y-149185714D02*
X123971428Y-149228571D01*
X124014285Y-149271428D01*
X124057142Y-149357142D01*
X124057142Y-149485714D01*
X124014285Y-149571428D01*
X123971428Y-149614285D01*
X123885714Y-149657142D01*
X123542857Y-149657142D01*
X123542857Y-148757142D01*
X123842857Y-148757142D01*
X123928571Y-148800000D01*
X123971428Y-148842857D01*
X124014285Y-148928571D01*
X124014285Y-149014285D01*
X123971428Y-149100000D01*
X123928571Y-149142857D01*
X123842857Y-149185714D01*
X123542857Y-149185714D01*
X124442857Y-149657142D02*
X124442857Y-148757142D01*
X125342857Y-148800000D02*
X125257142Y-148757142D01*
X125128571Y-148757142D01*
X125000000Y-148800000D01*
X124914285Y-148885714D01*
X124871428Y-148971428D01*
X124828571Y-149142857D01*
X124828571Y-149271428D01*
X124871428Y-149442857D01*
X124914285Y-149528571D01*
X125000000Y-149614285D01*
X125128571Y-149657142D01*
X125214285Y-149657142D01*
X125342857Y-149614285D01*
X125385714Y-149571428D01*
X125385714Y-149271428D01*
X125214285Y-149271428D01*
X126457142Y-149657142D02*
X126457142Y-148757142D01*
X126457142Y-149185714D02*
X126971428Y-149185714D01*
X126971428Y-149657142D02*
X126971428Y-148757142D01*
X127571428Y-148757142D02*
X127742857Y-148757142D01*
X127828571Y-148800000D01*
X127914285Y-148885714D01*
X127957142Y-149057142D01*
X127957142Y-149357142D01*
X127914285Y-149528571D01*
X127828571Y-149614285D01*
X127742857Y-149657142D01*
X127571428Y-149657142D01*
X127485714Y-149614285D01*
X127400000Y-149528571D01*
X127357142Y-149357142D01*
X127357142Y-149057142D01*
X127400000Y-148885714D01*
X127485714Y-148800000D01*
X127571428Y-148757142D01*
X128342857Y-149657142D02*
X128342857Y-148757142D01*
X128857142Y-149657142D01*
X128857142Y-148757142D01*
X129285714Y-149657142D02*
X129285714Y-148757142D01*
X129800000Y-149657142D02*
X129414285Y-149142857D01*
X129800000Y-148757142D02*
X129285714Y-149271428D01*
X130185714Y-149657142D02*
X130185714Y-148757142D01*
X130614285Y-149657142D02*
X130614285Y-148757142D01*
X131128571Y-149657142D01*
X131128571Y-148757142D01*
X132028571Y-148800000D02*
X131942857Y-148757142D01*
X131814285Y-148757142D01*
X131685714Y-148800000D01*
X131599999Y-148885714D01*
X131557142Y-148971428D01*
X131514285Y-149142857D01*
X131514285Y-149271428D01*
X131557142Y-149442857D01*
X131599999Y-149528571D01*
X131685714Y-149614285D01*
X131814285Y-149657142D01*
X131899999Y-149657142D01*
X132028571Y-149614285D01*
X132071428Y-149571428D01*
X132071428Y-149271428D01*
X131899999Y-149271428D01*
X133442857Y-149185714D02*
X133571428Y-149228571D01*
X133614285Y-149271428D01*
X133657142Y-149357142D01*
X133657142Y-149485714D01*
X133614285Y-149571428D01*
X133571428Y-149614285D01*
X133485714Y-149657142D01*
X133142857Y-149657142D01*
X133142857Y-148757142D01*
X133442857Y-148757142D01*
X133528571Y-148800000D01*
X133571428Y-148842857D01*
X133614285Y-148928571D01*
X133614285Y-149014285D01*
X133571428Y-149100000D01*
X133528571Y-149142857D01*
X133442857Y-149185714D01*
X133142857Y-149185714D01*
X134042857Y-148757142D02*
X134042857Y-149485714D01*
X134085714Y-149571428D01*
X134128571Y-149614285D01*
X134214285Y-149657142D01*
X134385714Y-149657142D01*
X134471428Y-149614285D01*
X134514285Y-149571428D01*
X134557142Y-149485714D01*
X134557142Y-148757142D01*
X134857142Y-148757142D02*
X135371428Y-148757142D01*
X135114285Y-149657142D02*
X135114285Y-148757142D01*
X135542857Y-148757142D02*
X136057142Y-148757142D01*
X135800000Y-149657142D02*
X135800000Y-148757142D01*
X136528571Y-148757142D02*
X136700000Y-148757142D01*
X136785714Y-148800000D01*
X136871428Y-148885714D01*
X136914285Y-149057142D01*
X136914285Y-149357142D01*
X136871428Y-149528571D01*
X136785714Y-149614285D01*
X136700000Y-149657142D01*
X136528571Y-149657142D01*
X136442857Y-149614285D01*
X136357142Y-149528571D01*
X136314285Y-149357142D01*
X136314285Y-149057142D01*
X136357142Y-148885714D01*
X136442857Y-148800000D01*
X136528571Y-148757142D01*
X137300000Y-149657142D02*
X137300000Y-148757142D01*
X137814285Y-149657142D01*
X137814285Y-148757142D01*
D10*
X149600000Y-121300000D02*
X149600000Y-120900000D01*
X149600000Y-121300000D02*
X149200000Y-121300000D01*
X149600000Y-120900000D02*
X149600000Y-121300000D01*
X148800000Y-120600000D02*
X149600000Y-121300000D01*
D11*
%TO.C,TP1*%
X171238095Y-126404380D02*
X171809523Y-126404380D01*
X171523809Y-127404380D02*
X171523809Y-126404380D01*
X172142857Y-127404380D02*
X172142857Y-126404380D01*
X172523809Y-126404380D01*
X172619047Y-126452000D01*
X172666666Y-126499619D01*
X172714285Y-126594857D01*
X172714285Y-126737714D01*
X172666666Y-126832952D01*
X172619047Y-126880571D01*
X172523809Y-126928190D01*
X172142857Y-126928190D01*
X173666666Y-127404380D02*
X173095238Y-127404380D01*
X173380952Y-127404380D02*
X173380952Y-126404380D01*
X173285714Y-126547238D01*
X173190476Y-126642476D01*
X173095238Y-126690095D01*
%TO.C,U3*%
X138138095Y-121052380D02*
X138138095Y-121861904D01*
X138185714Y-121957142D01*
X138233333Y-122004761D01*
X138328571Y-122052380D01*
X138519047Y-122052380D01*
X138614285Y-122004761D01*
X138661904Y-121957142D01*
X138709523Y-121861904D01*
X138709523Y-121052380D01*
X139090476Y-121052380D02*
X139709523Y-121052380D01*
X139376190Y-121433333D01*
X139519047Y-121433333D01*
X139614285Y-121480952D01*
X139661904Y-121528571D01*
X139709523Y-121623809D01*
X139709523Y-121861904D01*
X139661904Y-121957142D01*
X139614285Y-122004761D01*
X139519047Y-122052380D01*
X139233333Y-122052380D01*
X139138095Y-122004761D01*
X139090476Y-121957142D01*
D12*
%TO.C,R13*%
X154914285Y-147511428D02*
X154714285Y-147225714D01*
X154571428Y-147511428D02*
X154571428Y-146911428D01*
X154800000Y-146911428D01*
X154857142Y-146940000D01*
X154885714Y-146968571D01*
X154914285Y-147025714D01*
X154914285Y-147111428D01*
X154885714Y-147168571D01*
X154857142Y-147197142D01*
X154800000Y-147225714D01*
X154571428Y-147225714D01*
X155485714Y-147511428D02*
X155142857Y-147511428D01*
X155314285Y-147511428D02*
X155314285Y-146911428D01*
X155257142Y-146997142D01*
X155200000Y-147054285D01*
X155142857Y-147082857D01*
X155685714Y-146911428D02*
X156057142Y-146911428D01*
X155857142Y-147140000D01*
X155942857Y-147140000D01*
X156000000Y-147168571D01*
X156028571Y-147197142D01*
X156057142Y-147254285D01*
X156057142Y-147397142D01*
X156028571Y-147454285D01*
X156000000Y-147482857D01*
X155942857Y-147511428D01*
X155771428Y-147511428D01*
X155714285Y-147482857D01*
X155685714Y-147454285D01*
D11*
X155752380Y-145441428D02*
X155752380Y-146012857D01*
X155752380Y-145727142D02*
X154752380Y-145727142D01*
X154895238Y-145822380D01*
X154990476Y-145917619D01*
X155038095Y-146012857D01*
X154752380Y-144822380D02*
X154752380Y-144727142D01*
X154800000Y-144631904D01*
X154847619Y-144584285D01*
X154942857Y-144536666D01*
X155133333Y-144489047D01*
X155371428Y-144489047D01*
X155561904Y-144536666D01*
X155657142Y-144584285D01*
X155704761Y-144631904D01*
X155752380Y-144727142D01*
X155752380Y-144822380D01*
X155704761Y-144917619D01*
X155657142Y-144965238D01*
X155561904Y-145012857D01*
X155371428Y-145060476D01*
X155133333Y-145060476D01*
X154942857Y-145012857D01*
X154847619Y-144965238D01*
X154800000Y-144917619D01*
X154752380Y-144822380D01*
X154752380Y-143870000D02*
X154752380Y-143774761D01*
X154800000Y-143679523D01*
X154847619Y-143631904D01*
X154942857Y-143584285D01*
X155133333Y-143536666D01*
X155371428Y-143536666D01*
X155561904Y-143584285D01*
X155657142Y-143631904D01*
X155704761Y-143679523D01*
X155752380Y-143774761D01*
X155752380Y-143870000D01*
X155704761Y-143965238D01*
X155657142Y-144012857D01*
X155561904Y-144060476D01*
X155371428Y-144108095D01*
X155133333Y-144108095D01*
X154942857Y-144060476D01*
X154847619Y-144012857D01*
X154800000Y-143965238D01*
X154752380Y-143870000D01*
X155752380Y-143108095D02*
X154752380Y-143108095D01*
X155371428Y-143012857D02*
X155752380Y-142727142D01*
X155085714Y-142727142D02*
X155466666Y-143108095D01*
D12*
%TO.C,R7*%
X147611428Y-125800000D02*
X147325714Y-126000000D01*
X147611428Y-126142857D02*
X147011428Y-126142857D01*
X147011428Y-125914285D01*
X147040000Y-125857142D01*
X147068571Y-125828571D01*
X147125714Y-125800000D01*
X147211428Y-125800000D01*
X147268571Y-125828571D01*
X147297142Y-125857142D01*
X147325714Y-125914285D01*
X147325714Y-126142857D01*
X147011428Y-125600000D02*
X147011428Y-125200000D01*
X147611428Y-125457142D01*
D11*
X143728571Y-126152380D02*
X143157142Y-126152380D01*
X143442857Y-126152380D02*
X143442857Y-125152380D01*
X143347619Y-125295238D01*
X143252380Y-125390476D01*
X143157142Y-125438095D01*
X144347619Y-125152380D02*
X144442857Y-125152380D01*
X144538095Y-125200000D01*
X144585714Y-125247619D01*
X144633333Y-125342857D01*
X144680952Y-125533333D01*
X144680952Y-125771428D01*
X144633333Y-125961904D01*
X144585714Y-126057142D01*
X144538095Y-126104761D01*
X144442857Y-126152380D01*
X144347619Y-126152380D01*
X144252380Y-126104761D01*
X144204761Y-126057142D01*
X144157142Y-125961904D01*
X144109523Y-125771428D01*
X144109523Y-125533333D01*
X144157142Y-125342857D01*
X144204761Y-125247619D01*
X144252380Y-125200000D01*
X144347619Y-125152380D01*
X145300000Y-125152380D02*
X145395238Y-125152380D01*
X145490476Y-125200000D01*
X145538095Y-125247619D01*
X145585714Y-125342857D01*
X145633333Y-125533333D01*
X145633333Y-125771428D01*
X145585714Y-125961904D01*
X145538095Y-126057142D01*
X145490476Y-126104761D01*
X145395238Y-126152380D01*
X145300000Y-126152380D01*
X145204761Y-126104761D01*
X145157142Y-126057142D01*
X145109523Y-125961904D01*
X145061904Y-125771428D01*
X145061904Y-125533333D01*
X145109523Y-125342857D01*
X145157142Y-125247619D01*
X145204761Y-125200000D01*
X145300000Y-125152380D01*
X146061904Y-126152380D02*
X146061904Y-125152380D01*
X146157142Y-125771428D02*
X146442857Y-126152380D01*
X146442857Y-125485714D02*
X146061904Y-125866666D01*
%TO.C,U1*%
X122838095Y-130052380D02*
X122838095Y-130861904D01*
X122885714Y-130957142D01*
X122933333Y-131004761D01*
X123028571Y-131052380D01*
X123219047Y-131052380D01*
X123314285Y-131004761D01*
X123361904Y-130957142D01*
X123409523Y-130861904D01*
X123409523Y-130052380D01*
X124409523Y-131052380D02*
X123838095Y-131052380D01*
X124123809Y-131052380D02*
X124123809Y-130052380D01*
X124028571Y-130195238D01*
X123933333Y-130290476D01*
X123838095Y-130338095D01*
%TO.C,BTN1*%
X145390476Y-115728571D02*
X145533333Y-115776190D01*
X145580952Y-115823809D01*
X145628571Y-115919047D01*
X145628571Y-116061904D01*
X145580952Y-116157142D01*
X145533333Y-116204761D01*
X145438095Y-116252380D01*
X145057142Y-116252380D01*
X145057142Y-115252380D01*
X145390476Y-115252380D01*
X145485714Y-115300000D01*
X145533333Y-115347619D01*
X145580952Y-115442857D01*
X145580952Y-115538095D01*
X145533333Y-115633333D01*
X145485714Y-115680952D01*
X145390476Y-115728571D01*
X145057142Y-115728571D01*
X145914285Y-115252380D02*
X146485714Y-115252380D01*
X146200000Y-116252380D02*
X146200000Y-115252380D01*
X146819047Y-116252380D02*
X146819047Y-115252380D01*
X147390476Y-116252380D01*
X147390476Y-115252380D01*
X148390476Y-116252380D02*
X147819047Y-116252380D01*
X148104761Y-116252380D02*
X148104761Y-115252380D01*
X148009523Y-115395238D01*
X147914285Y-115490476D01*
X147819047Y-115538095D01*
%TO.C,C2*%
X130133333Y-120057142D02*
X130085714Y-120104761D01*
X129942857Y-120152380D01*
X129847619Y-120152380D01*
X129704761Y-120104761D01*
X129609523Y-120009523D01*
X129561904Y-119914285D01*
X129514285Y-119723809D01*
X129514285Y-119580952D01*
X129561904Y-119390476D01*
X129609523Y-119295238D01*
X129704761Y-119200000D01*
X129847619Y-119152380D01*
X129942857Y-119152380D01*
X130085714Y-119200000D01*
X130133333Y-119247619D01*
X130514285Y-119247619D02*
X130561904Y-119200000D01*
X130657142Y-119152380D01*
X130895238Y-119152380D01*
X130990476Y-119200000D01*
X131038095Y-119247619D01*
X131085714Y-119342857D01*
X131085714Y-119438095D01*
X131038095Y-119580952D01*
X130466666Y-120152380D01*
X131085714Y-120152380D01*
%TO.C,C6*%
X89933333Y-124057142D02*
X89885714Y-124104761D01*
X89742857Y-124152380D01*
X89647619Y-124152380D01*
X89504761Y-124104761D01*
X89409523Y-124009523D01*
X89361904Y-123914285D01*
X89314285Y-123723809D01*
X89314285Y-123580952D01*
X89361904Y-123390476D01*
X89409523Y-123295238D01*
X89504761Y-123200000D01*
X89647619Y-123152380D01*
X89742857Y-123152380D01*
X89885714Y-123200000D01*
X89933333Y-123247619D01*
X90790476Y-123152380D02*
X90600000Y-123152380D01*
X90504761Y-123200000D01*
X90457142Y-123247619D01*
X90361904Y-123390476D01*
X90314285Y-123580952D01*
X90314285Y-123961904D01*
X90361904Y-124057142D01*
X90409523Y-124104761D01*
X90504761Y-124152380D01*
X90695238Y-124152380D01*
X90790476Y-124104761D01*
X90838095Y-124057142D01*
X90885714Y-123961904D01*
X90885714Y-123723809D01*
X90838095Y-123628571D01*
X90790476Y-123580952D01*
X90695238Y-123533333D01*
X90504761Y-123533333D01*
X90409523Y-123580952D01*
X90361904Y-123628571D01*
X90314285Y-123723809D01*
D12*
%TO.C,R6*%
X81700000Y-129411428D02*
X81500000Y-129125714D01*
X81357142Y-129411428D02*
X81357142Y-128811428D01*
X81585714Y-128811428D01*
X81642857Y-128840000D01*
X81671428Y-128868571D01*
X81700000Y-128925714D01*
X81700000Y-129011428D01*
X81671428Y-129068571D01*
X81642857Y-129097142D01*
X81585714Y-129125714D01*
X81357142Y-129125714D01*
X82214285Y-128811428D02*
X82100000Y-128811428D01*
X82042857Y-128840000D01*
X82014285Y-128868571D01*
X81957142Y-128954285D01*
X81928571Y-129068571D01*
X81928571Y-129297142D01*
X81957142Y-129354285D01*
X81985714Y-129382857D01*
X82042857Y-129411428D01*
X82157142Y-129411428D01*
X82214285Y-129382857D01*
X82242857Y-129354285D01*
X82271428Y-129297142D01*
X82271428Y-129154285D01*
X82242857Y-129097142D01*
X82214285Y-129068571D01*
X82157142Y-129040000D01*
X82042857Y-129040000D01*
X81985714Y-129068571D01*
X81957142Y-129097142D01*
X81928571Y-129154285D01*
D11*
X82252380Y-126719047D02*
X82252380Y-127290476D01*
X82252380Y-127004761D02*
X81252380Y-127004761D01*
X81395238Y-127100000D01*
X81490476Y-127195238D01*
X81538095Y-127290476D01*
X82252380Y-126290476D02*
X81252380Y-126290476D01*
X81871428Y-126195238D02*
X82252380Y-125909523D01*
X81585714Y-125909523D02*
X81966666Y-126290476D01*
%TO.C,C4*%
X131433333Y-132157142D02*
X131385714Y-132204761D01*
X131242857Y-132252380D01*
X131147619Y-132252380D01*
X131004761Y-132204761D01*
X130909523Y-132109523D01*
X130861904Y-132014285D01*
X130814285Y-131823809D01*
X130814285Y-131680952D01*
X130861904Y-131490476D01*
X130909523Y-131395238D01*
X131004761Y-131300000D01*
X131147619Y-131252380D01*
X131242857Y-131252380D01*
X131385714Y-131300000D01*
X131433333Y-131347619D01*
X132290476Y-131585714D02*
X132290476Y-132252380D01*
X132052380Y-131204761D02*
X131814285Y-131919047D01*
X132433333Y-131919047D01*
%TO.C,U5*%
X147138095Y-119552380D02*
X147138095Y-120361904D01*
X147185714Y-120457142D01*
X147233333Y-120504761D01*
X147328571Y-120552380D01*
X147519047Y-120552380D01*
X147614285Y-120504761D01*
X147661904Y-120457142D01*
X147709523Y-120361904D01*
X147709523Y-119552380D01*
X148661904Y-119552380D02*
X148185714Y-119552380D01*
X148138095Y-120028571D01*
X148185714Y-119980952D01*
X148280952Y-119933333D01*
X148519047Y-119933333D01*
X148614285Y-119980952D01*
X148661904Y-120028571D01*
X148709523Y-120123809D01*
X148709523Y-120361904D01*
X148661904Y-120457142D01*
X148614285Y-120504761D01*
X148519047Y-120552380D01*
X148280952Y-120552380D01*
X148185714Y-120504761D01*
X148138095Y-120457142D01*
%TO.C,D1*%
X122561904Y-121952380D02*
X122561904Y-120952380D01*
X122800000Y-120952380D01*
X122942857Y-121000000D01*
X123038095Y-121095238D01*
X123085714Y-121190476D01*
X123133333Y-121380952D01*
X123133333Y-121523809D01*
X123085714Y-121714285D01*
X123038095Y-121809523D01*
X122942857Y-121904761D01*
X122800000Y-121952380D01*
X122561904Y-121952380D01*
X124085714Y-121952380D02*
X123514285Y-121952380D01*
X123800000Y-121952380D02*
X123800000Y-120952380D01*
X123704761Y-121095238D01*
X123609523Y-121190476D01*
X123514285Y-121238095D01*
%TO.C,U4*%
X93638095Y-115652380D02*
X93638095Y-116461904D01*
X93685714Y-116557142D01*
X93733333Y-116604761D01*
X93828571Y-116652380D01*
X94019047Y-116652380D01*
X94114285Y-116604761D01*
X94161904Y-116557142D01*
X94209523Y-116461904D01*
X94209523Y-115652380D01*
X95114285Y-115985714D02*
X95114285Y-116652380D01*
X94876190Y-115604761D02*
X94638095Y-116319047D01*
X95257142Y-116319047D01*
%TO.C,C5*%
X107433333Y-132757142D02*
X107385714Y-132804761D01*
X107242857Y-132852380D01*
X107147619Y-132852380D01*
X107004761Y-132804761D01*
X106909523Y-132709523D01*
X106861904Y-132614285D01*
X106814285Y-132423809D01*
X106814285Y-132280952D01*
X106861904Y-132090476D01*
X106909523Y-131995238D01*
X107004761Y-131900000D01*
X107147619Y-131852380D01*
X107242857Y-131852380D01*
X107385714Y-131900000D01*
X107433333Y-131947619D01*
X108338095Y-131852380D02*
X107861904Y-131852380D01*
X107814285Y-132328571D01*
X107861904Y-132280952D01*
X107957142Y-132233333D01*
X108195238Y-132233333D01*
X108290476Y-132280952D01*
X108338095Y-132328571D01*
X108385714Y-132423809D01*
X108385714Y-132661904D01*
X108338095Y-132757142D01*
X108290476Y-132804761D01*
X108195238Y-132852380D01*
X107957142Y-132852380D01*
X107861904Y-132804761D01*
X107814285Y-132757142D01*
D12*
%TO.C,R8*%
X147611428Y-128900000D02*
X147325714Y-129100000D01*
X147611428Y-129242857D02*
X147011428Y-129242857D01*
X147011428Y-129014285D01*
X147040000Y-128957142D01*
X147068571Y-128928571D01*
X147125714Y-128900000D01*
X147211428Y-128900000D01*
X147268571Y-128928571D01*
X147297142Y-128957142D01*
X147325714Y-129014285D01*
X147325714Y-129242857D01*
X147268571Y-128557142D02*
X147240000Y-128614285D01*
X147211428Y-128642857D01*
X147154285Y-128671428D01*
X147125714Y-128671428D01*
X147068571Y-128642857D01*
X147040000Y-128614285D01*
X147011428Y-128557142D01*
X147011428Y-128442857D01*
X147040000Y-128385714D01*
X147068571Y-128357142D01*
X147125714Y-128328571D01*
X147154285Y-128328571D01*
X147211428Y-128357142D01*
X147240000Y-128385714D01*
X147268571Y-128442857D01*
X147268571Y-128557142D01*
X147297142Y-128614285D01*
X147325714Y-128642857D01*
X147382857Y-128671428D01*
X147497142Y-128671428D01*
X147554285Y-128642857D01*
X147582857Y-128614285D01*
X147611428Y-128557142D01*
X147611428Y-128442857D01*
X147582857Y-128385714D01*
X147554285Y-128357142D01*
X147497142Y-128328571D01*
X147382857Y-128328571D01*
X147325714Y-128357142D01*
X147297142Y-128385714D01*
X147268571Y-128442857D01*
D11*
X143157142Y-128347619D02*
X143204761Y-128300000D01*
X143300000Y-128252380D01*
X143538095Y-128252380D01*
X143633333Y-128300000D01*
X143680952Y-128347619D01*
X143728571Y-128442857D01*
X143728571Y-128538095D01*
X143680952Y-128680952D01*
X143109523Y-129252380D01*
X143728571Y-129252380D01*
X144347619Y-128252380D02*
X144442857Y-128252380D01*
X144538095Y-128300000D01*
X144585714Y-128347619D01*
X144633333Y-128442857D01*
X144680952Y-128633333D01*
X144680952Y-128871428D01*
X144633333Y-129061904D01*
X144585714Y-129157142D01*
X144538095Y-129204761D01*
X144442857Y-129252380D01*
X144347619Y-129252380D01*
X144252380Y-129204761D01*
X144204761Y-129157142D01*
X144157142Y-129061904D01*
X144109523Y-128871428D01*
X144109523Y-128633333D01*
X144157142Y-128442857D01*
X144204761Y-128347619D01*
X144252380Y-128300000D01*
X144347619Y-128252380D01*
X145300000Y-128252380D02*
X145395238Y-128252380D01*
X145490476Y-128300000D01*
X145538095Y-128347619D01*
X145585714Y-128442857D01*
X145633333Y-128633333D01*
X145633333Y-128871428D01*
X145585714Y-129061904D01*
X145538095Y-129157142D01*
X145490476Y-129204761D01*
X145395238Y-129252380D01*
X145300000Y-129252380D01*
X145204761Y-129204761D01*
X145157142Y-129157142D01*
X145109523Y-129061904D01*
X145061904Y-128871428D01*
X145061904Y-128633333D01*
X145109523Y-128442857D01*
X145157142Y-128347619D01*
X145204761Y-128300000D01*
X145300000Y-128252380D01*
X146061904Y-129252380D02*
X146061904Y-128252380D01*
X146157142Y-128871428D02*
X146442857Y-129252380D01*
X146442857Y-128585714D02*
X146061904Y-128966666D01*
%TO.C,U2*%
X90938095Y-130052380D02*
X90938095Y-130861904D01*
X90985714Y-130957142D01*
X91033333Y-131004761D01*
X91128571Y-131052380D01*
X91319047Y-131052380D01*
X91414285Y-131004761D01*
X91461904Y-130957142D01*
X91509523Y-130861904D01*
X91509523Y-130052380D01*
X91938095Y-130147619D02*
X91985714Y-130100000D01*
X92080952Y-130052380D01*
X92319047Y-130052380D01*
X92414285Y-130100000D01*
X92461904Y-130147619D01*
X92509523Y-130242857D01*
X92509523Y-130338095D01*
X92461904Y-130480952D01*
X91890476Y-131052380D01*
X92509523Y-131052380D01*
%TO.C,C1*%
X120457142Y-127466666D02*
X120504761Y-127514285D01*
X120552380Y-127657142D01*
X120552380Y-127752380D01*
X120504761Y-127895238D01*
X120409523Y-127990476D01*
X120314285Y-128038095D01*
X120123809Y-128085714D01*
X119980952Y-128085714D01*
X119790476Y-128038095D01*
X119695238Y-127990476D01*
X119600000Y-127895238D01*
X119552380Y-127752380D01*
X119552380Y-127657142D01*
X119600000Y-127514285D01*
X119647619Y-127466666D01*
X120552380Y-126514285D02*
X120552380Y-127085714D01*
X120552380Y-126800000D02*
X119552380Y-126800000D01*
X119695238Y-126895238D01*
X119790476Y-126990476D01*
X119838095Y-127085714D01*
%TO.C,RST1*%
X131957380Y-137223809D02*
X131481190Y-137557142D01*
X131957380Y-137795238D02*
X130957380Y-137795238D01*
X130957380Y-137414285D01*
X131005000Y-137319047D01*
X131052619Y-137271428D01*
X131147857Y-137223809D01*
X131290714Y-137223809D01*
X131385952Y-137271428D01*
X131433571Y-137319047D01*
X131481190Y-137414285D01*
X131481190Y-137795238D01*
X131909761Y-136842857D02*
X131957380Y-136700000D01*
X131957380Y-136461904D01*
X131909761Y-136366666D01*
X131862142Y-136319047D01*
X131766904Y-136271428D01*
X131671666Y-136271428D01*
X131576428Y-136319047D01*
X131528809Y-136366666D01*
X131481190Y-136461904D01*
X131433571Y-136652380D01*
X131385952Y-136747619D01*
X131338333Y-136795238D01*
X131243095Y-136842857D01*
X131147857Y-136842857D01*
X131052619Y-136795238D01*
X131005000Y-136747619D01*
X130957380Y-136652380D01*
X130957380Y-136414285D01*
X131005000Y-136271428D01*
X130957380Y-135985714D02*
X130957380Y-135414285D01*
X131957380Y-135700000D02*
X130957380Y-135700000D01*
X131957380Y-134557142D02*
X131957380Y-135128571D01*
X131957380Y-134842857D02*
X130957380Y-134842857D01*
X131100238Y-134938095D01*
X131195476Y-135033333D01*
X131243095Y-135128571D01*
D12*
%TO.C,R14*%
X164611428Y-130285714D02*
X164325714Y-130485714D01*
X164611428Y-130628571D02*
X164011428Y-130628571D01*
X164011428Y-130400000D01*
X164040000Y-130342857D01*
X164068571Y-130314285D01*
X164125714Y-130285714D01*
X164211428Y-130285714D01*
X164268571Y-130314285D01*
X164297142Y-130342857D01*
X164325714Y-130400000D01*
X164325714Y-130628571D01*
X164611428Y-129714285D02*
X164611428Y-130057142D01*
X164611428Y-129885714D02*
X164011428Y-129885714D01*
X164097142Y-129942857D01*
X164154285Y-130000000D01*
X164182857Y-130057142D01*
X164211428Y-129200000D02*
X164611428Y-129200000D01*
X163982857Y-129342857D02*
X164411428Y-129485714D01*
X164411428Y-129114285D01*
D11*
X161204761Y-130352380D02*
X160633333Y-130352380D01*
X160919047Y-130352380D02*
X160919047Y-129352380D01*
X160823809Y-129495238D01*
X160728571Y-129590476D01*
X160633333Y-129638095D01*
X161823809Y-129352380D02*
X161919047Y-129352380D01*
X162014285Y-129400000D01*
X162061904Y-129447619D01*
X162109523Y-129542857D01*
X162157142Y-129733333D01*
X162157142Y-129971428D01*
X162109523Y-130161904D01*
X162061904Y-130257142D01*
X162014285Y-130304761D01*
X161919047Y-130352380D01*
X161823809Y-130352380D01*
X161728571Y-130304761D01*
X161680952Y-130257142D01*
X161633333Y-130161904D01*
X161585714Y-129971428D01*
X161585714Y-129733333D01*
X161633333Y-129542857D01*
X161680952Y-129447619D01*
X161728571Y-129400000D01*
X161823809Y-129352380D01*
X162585714Y-130352380D02*
X162585714Y-129352380D01*
X162680952Y-129971428D02*
X162966666Y-130352380D01*
X162966666Y-129685714D02*
X162585714Y-130066666D01*
%TO.C,Q1*%
X150154761Y-139297619D02*
X150059523Y-139250000D01*
X149964285Y-139154761D01*
X149821428Y-139011904D01*
X149726190Y-138964285D01*
X149630952Y-138964285D01*
X149678571Y-139202380D02*
X149583333Y-139154761D01*
X149488095Y-139059523D01*
X149440476Y-138869047D01*
X149440476Y-138535714D01*
X149488095Y-138345238D01*
X149583333Y-138250000D01*
X149678571Y-138202380D01*
X149869047Y-138202380D01*
X149964285Y-138250000D01*
X150059523Y-138345238D01*
X150107142Y-138535714D01*
X150107142Y-138869047D01*
X150059523Y-139059523D01*
X149964285Y-139154761D01*
X149869047Y-139202380D01*
X149678571Y-139202380D01*
X151059523Y-139202380D02*
X150488095Y-139202380D01*
X150773809Y-139202380D02*
X150773809Y-138202380D01*
X150678571Y-138345238D01*
X150583333Y-138440476D01*
X150488095Y-138488095D01*
%TO.C,C3*%
X135233333Y-125057142D02*
X135185714Y-125104761D01*
X135042857Y-125152380D01*
X134947619Y-125152380D01*
X134804761Y-125104761D01*
X134709523Y-125009523D01*
X134661904Y-124914285D01*
X134614285Y-124723809D01*
X134614285Y-124580952D01*
X134661904Y-124390476D01*
X134709523Y-124295238D01*
X134804761Y-124200000D01*
X134947619Y-124152380D01*
X135042857Y-124152380D01*
X135185714Y-124200000D01*
X135233333Y-124247619D01*
X135566666Y-124152380D02*
X136185714Y-124152380D01*
X135852380Y-124533333D01*
X135995238Y-124533333D01*
X136090476Y-124580952D01*
X136138095Y-124628571D01*
X136185714Y-124723809D01*
X136185714Y-124961904D01*
X136138095Y-125057142D01*
X136090476Y-125104761D01*
X135995238Y-125152380D01*
X135709523Y-125152380D01*
X135614285Y-125104761D01*
X135566666Y-125057142D01*
D12*
%TO.C,R4*%
X82631428Y-119900000D02*
X82345714Y-120100000D01*
X82631428Y-120242857D02*
X82031428Y-120242857D01*
X82031428Y-120014285D01*
X82060000Y-119957142D01*
X82088571Y-119928571D01*
X82145714Y-119900000D01*
X82231428Y-119900000D01*
X82288571Y-119928571D01*
X82317142Y-119957142D01*
X82345714Y-120014285D01*
X82345714Y-120242857D01*
X82231428Y-119385714D02*
X82631428Y-119385714D01*
X82002857Y-119528571D02*
X82431428Y-119671428D01*
X82431428Y-119300000D01*
D11*
X83971428Y-119252380D02*
X83780952Y-119252380D01*
X83685714Y-119300000D01*
X83638095Y-119347619D01*
X83542857Y-119490476D01*
X83495238Y-119680952D01*
X83495238Y-120061904D01*
X83542857Y-120157142D01*
X83590476Y-120204761D01*
X83685714Y-120252380D01*
X83876190Y-120252380D01*
X83971428Y-120204761D01*
X84019047Y-120157142D01*
X84066666Y-120061904D01*
X84066666Y-119823809D01*
X84019047Y-119728571D01*
X83971428Y-119680952D01*
X83876190Y-119633333D01*
X83685714Y-119633333D01*
X83590476Y-119680952D01*
X83542857Y-119728571D01*
X83495238Y-119823809D01*
X84495238Y-120157142D02*
X84542857Y-120204761D01*
X84495238Y-120252380D01*
X84447619Y-120204761D01*
X84495238Y-120157142D01*
X84495238Y-120252380D01*
X85114285Y-119680952D02*
X85019047Y-119633333D01*
X84971428Y-119585714D01*
X84923809Y-119490476D01*
X84923809Y-119442857D01*
X84971428Y-119347619D01*
X85019047Y-119300000D01*
X85114285Y-119252380D01*
X85304761Y-119252380D01*
X85400000Y-119300000D01*
X85447619Y-119347619D01*
X85495238Y-119442857D01*
X85495238Y-119490476D01*
X85447619Y-119585714D01*
X85400000Y-119633333D01*
X85304761Y-119680952D01*
X85114285Y-119680952D01*
X85019047Y-119728571D01*
X84971428Y-119776190D01*
X84923809Y-119871428D01*
X84923809Y-120061904D01*
X84971428Y-120157142D01*
X85019047Y-120204761D01*
X85114285Y-120252380D01*
X85304761Y-120252380D01*
X85400000Y-120204761D01*
X85447619Y-120157142D01*
X85495238Y-120061904D01*
X85495238Y-119871428D01*
X85447619Y-119776190D01*
X85400000Y-119728571D01*
X85304761Y-119680952D01*
X85923809Y-120252380D02*
X85923809Y-119252380D01*
X86019047Y-119871428D02*
X86304761Y-120252380D01*
X86304761Y-119585714D02*
X85923809Y-119966666D01*
D12*
%TO.C,R5*%
X84800000Y-129411428D02*
X84600000Y-129125714D01*
X84457142Y-129411428D02*
X84457142Y-128811428D01*
X84685714Y-128811428D01*
X84742857Y-128840000D01*
X84771428Y-128868571D01*
X84800000Y-128925714D01*
X84800000Y-129011428D01*
X84771428Y-129068571D01*
X84742857Y-129097142D01*
X84685714Y-129125714D01*
X84457142Y-129125714D01*
X85342857Y-128811428D02*
X85057142Y-128811428D01*
X85028571Y-129097142D01*
X85057142Y-129068571D01*
X85114285Y-129040000D01*
X85257142Y-129040000D01*
X85314285Y-129068571D01*
X85342857Y-129097142D01*
X85371428Y-129154285D01*
X85371428Y-129297142D01*
X85342857Y-129354285D01*
X85314285Y-129382857D01*
X85257142Y-129411428D01*
X85114285Y-129411428D01*
X85057142Y-129382857D01*
X85028571Y-129354285D01*
D11*
X84685714Y-127290476D02*
X85352380Y-127290476D01*
X84304761Y-127528571D02*
X85019047Y-127766666D01*
X85019047Y-127147619D01*
X84352380Y-126861904D02*
X84352380Y-126195238D01*
X85352380Y-126623809D01*
X85352380Y-125814285D02*
X84352380Y-125814285D01*
X84971428Y-125719047D02*
X85352380Y-125433333D01*
X84685714Y-125433333D02*
X85066666Y-125814285D01*
%TO.C,J1*%
X100966666Y-127552380D02*
X100966666Y-128266666D01*
X100919047Y-128409523D01*
X100823809Y-128504761D01*
X100680952Y-128552380D01*
X100585714Y-128552380D01*
X101966666Y-128552380D02*
X101395238Y-128552380D01*
X101680952Y-128552380D02*
X101680952Y-127552380D01*
X101585714Y-127695238D01*
X101490476Y-127790476D01*
X101395238Y-127838095D01*
X99938095Y-148371428D02*
X100700000Y-148371428D01*
X101700000Y-148752380D02*
X101128571Y-148752380D01*
X101414285Y-148752380D02*
X101414285Y-147752380D01*
X101319047Y-147895238D01*
X101223809Y-147990476D01*
X101128571Y-148038095D01*
X102080952Y-147847619D02*
X102128571Y-147800000D01*
X102223809Y-147752380D01*
X102461904Y-147752380D01*
X102557142Y-147800000D01*
X102604761Y-147847619D01*
X102652380Y-147942857D01*
X102652380Y-148038095D01*
X102604761Y-148180952D01*
X102033333Y-148752380D01*
X102652380Y-148752380D01*
X102938095Y-147752380D02*
X103271428Y-148752380D01*
X103604761Y-147752380D01*
X107761904Y-149157142D02*
X107380952Y-149423809D01*
X107761904Y-149614285D02*
X106961904Y-149614285D01*
X106961904Y-149309523D01*
X107000000Y-149233333D01*
X107038095Y-149195238D01*
X107114285Y-149157142D01*
X107228571Y-149157142D01*
X107304761Y-149195238D01*
X107342857Y-149233333D01*
X107380952Y-149309523D01*
X107380952Y-149614285D01*
X107342857Y-148814285D02*
X107342857Y-148547619D01*
X107761904Y-148433333D02*
X107761904Y-148814285D01*
X106961904Y-148814285D01*
X106961904Y-148433333D01*
X107761904Y-148090476D02*
X106961904Y-148090476D01*
X106961904Y-147900000D01*
X107000000Y-147785714D01*
X107076190Y-147709523D01*
X107152380Y-147671428D01*
X107304761Y-147633333D01*
X107419047Y-147633333D01*
X107571428Y-147671428D01*
X107647619Y-147709523D01*
X107723809Y-147785714D01*
X107761904Y-147900000D01*
X107761904Y-148090476D01*
X107723809Y-146719047D02*
X107761904Y-146604761D01*
X107761904Y-146414285D01*
X107723809Y-146338095D01*
X107685714Y-146300000D01*
X107609523Y-146261904D01*
X107533333Y-146261904D01*
X107457142Y-146300000D01*
X107419047Y-146338095D01*
X107380952Y-146414285D01*
X107342857Y-146566666D01*
X107304761Y-146642857D01*
X107266666Y-146680952D01*
X107190476Y-146719047D01*
X107114285Y-146719047D01*
X107038095Y-146680952D01*
X107000000Y-146642857D01*
X106961904Y-146566666D01*
X106961904Y-146376190D01*
X107000000Y-146261904D01*
X106961904Y-146033333D02*
X106961904Y-145576190D01*
X107761904Y-145804761D02*
X106961904Y-145804761D01*
X107761904Y-144852380D02*
X107380952Y-145119047D01*
X107761904Y-145309523D02*
X106961904Y-145309523D01*
X106961904Y-145004761D01*
X107000000Y-144928571D01*
X107038095Y-144890476D01*
X107114285Y-144852380D01*
X107228571Y-144852380D01*
X107304761Y-144890476D01*
X107342857Y-144928571D01*
X107380952Y-145004761D01*
X107380952Y-145309523D01*
X107761904Y-144509523D02*
X106961904Y-144509523D01*
X107761904Y-144128571D02*
X106961904Y-144128571D01*
X106961904Y-143823809D01*
X107000000Y-143747619D01*
X107038095Y-143709523D01*
X107114285Y-143671428D01*
X107228571Y-143671428D01*
X107304761Y-143709523D01*
X107342857Y-143747619D01*
X107380952Y-143823809D01*
X107380952Y-144128571D01*
X107342857Y-143328571D02*
X107342857Y-143061904D01*
X107761904Y-142947619D02*
X107761904Y-143328571D01*
X106961904Y-143328571D01*
X106961904Y-142947619D01*
X100038095Y-130671428D02*
X100800000Y-130671428D01*
X100419047Y-131052380D02*
X100419047Y-130290476D01*
X101800000Y-131052380D02*
X101228571Y-131052380D01*
X101514285Y-131052380D02*
X101514285Y-130052380D01*
X101419047Y-130195238D01*
X101323809Y-130290476D01*
X101228571Y-130338095D01*
X102180952Y-130147619D02*
X102228571Y-130100000D01*
X102323809Y-130052380D01*
X102561904Y-130052380D01*
X102657142Y-130100000D01*
X102704761Y-130147619D01*
X102752380Y-130242857D01*
X102752380Y-130338095D01*
X102704761Y-130480952D01*
X102133333Y-131052380D01*
X102752380Y-131052380D01*
X103038095Y-130052380D02*
X103371428Y-131052380D01*
X103704761Y-130052380D01*
D12*
%TO.C,R1*%
X126731428Y-116700000D02*
X126445714Y-116900000D01*
X126731428Y-117042857D02*
X126131428Y-117042857D01*
X126131428Y-116814285D01*
X126160000Y-116757142D01*
X126188571Y-116728571D01*
X126245714Y-116700000D01*
X126331428Y-116700000D01*
X126388571Y-116728571D01*
X126417142Y-116757142D01*
X126445714Y-116814285D01*
X126445714Y-117042857D01*
X126731428Y-116128571D02*
X126731428Y-116471428D01*
X126731428Y-116300000D02*
X126131428Y-116300000D01*
X126217142Y-116357142D01*
X126274285Y-116414285D01*
X126302857Y-116471428D01*
D11*
X128404761Y-117052380D02*
X127833333Y-117052380D01*
X128119047Y-117052380D02*
X128119047Y-116052380D01*
X128023809Y-116195238D01*
X127928571Y-116290476D01*
X127833333Y-116338095D01*
X129023809Y-116052380D02*
X129119047Y-116052380D01*
X129214285Y-116100000D01*
X129261904Y-116147619D01*
X129309523Y-116242857D01*
X129357142Y-116433333D01*
X129357142Y-116671428D01*
X129309523Y-116861904D01*
X129261904Y-116957142D01*
X129214285Y-117004761D01*
X129119047Y-117052380D01*
X129023809Y-117052380D01*
X128928571Y-117004761D01*
X128880952Y-116957142D01*
X128833333Y-116861904D01*
X128785714Y-116671428D01*
X128785714Y-116433333D01*
X128833333Y-116242857D01*
X128880952Y-116147619D01*
X128928571Y-116100000D01*
X129023809Y-116052380D01*
X129785714Y-117052380D02*
X129785714Y-116052380D01*
X129880952Y-116671428D02*
X130166666Y-117052380D01*
X130166666Y-116385714D02*
X129785714Y-116766666D01*
%TO.C,RV1*%
X154204761Y-117052380D02*
X153871428Y-116576190D01*
X153633333Y-117052380D02*
X153633333Y-116052380D01*
X154014285Y-116052380D01*
X154109523Y-116100000D01*
X154157142Y-116147619D01*
X154204761Y-116242857D01*
X154204761Y-116385714D01*
X154157142Y-116480952D01*
X154109523Y-116528571D01*
X154014285Y-116576190D01*
X153633333Y-116576190D01*
X154490476Y-116052380D02*
X154823809Y-117052380D01*
X155157142Y-116052380D01*
X156014285Y-117052380D02*
X155442857Y-117052380D01*
X155728571Y-117052380D02*
X155728571Y-116052380D01*
X155633333Y-116195238D01*
X155538095Y-116290476D01*
X155442857Y-116338095D01*
D12*
%TO.C,R9*%
X147621428Y-122700000D02*
X147335714Y-122900000D01*
X147621428Y-123042857D02*
X147021428Y-123042857D01*
X147021428Y-122814285D01*
X147050000Y-122757142D01*
X147078571Y-122728571D01*
X147135714Y-122700000D01*
X147221428Y-122700000D01*
X147278571Y-122728571D01*
X147307142Y-122757142D01*
X147335714Y-122814285D01*
X147335714Y-123042857D01*
X147621428Y-122414285D02*
X147621428Y-122300000D01*
X147592857Y-122242857D01*
X147564285Y-122214285D01*
X147478571Y-122157142D01*
X147364285Y-122128571D01*
X147135714Y-122128571D01*
X147078571Y-122157142D01*
X147050000Y-122185714D01*
X147021428Y-122242857D01*
X147021428Y-122357142D01*
X147050000Y-122414285D01*
X147078571Y-122442857D01*
X147135714Y-122471428D01*
X147278571Y-122471428D01*
X147335714Y-122442857D01*
X147364285Y-122414285D01*
X147392857Y-122357142D01*
X147392857Y-122242857D01*
X147364285Y-122185714D01*
X147335714Y-122157142D01*
X147278571Y-122128571D01*
D11*
X143595714Y-122052380D02*
X144214761Y-122052380D01*
X143881428Y-122433333D01*
X144024285Y-122433333D01*
X144119523Y-122480952D01*
X144167142Y-122528571D01*
X144214761Y-122623809D01*
X144214761Y-122861904D01*
X144167142Y-122957142D01*
X144119523Y-123004761D01*
X144024285Y-123052380D01*
X143738571Y-123052380D01*
X143643333Y-123004761D01*
X143595714Y-122957142D01*
X144548095Y-122052380D02*
X145167142Y-122052380D01*
X144833809Y-122433333D01*
X144976666Y-122433333D01*
X145071904Y-122480952D01*
X145119523Y-122528571D01*
X145167142Y-122623809D01*
X145167142Y-122861904D01*
X145119523Y-122957142D01*
X145071904Y-123004761D01*
X144976666Y-123052380D01*
X144690952Y-123052380D01*
X144595714Y-123004761D01*
X144548095Y-122957142D01*
X145595714Y-123052380D02*
X145595714Y-122052380D01*
X145690952Y-122671428D02*
X145976666Y-123052380D01*
X145976666Y-122385714D02*
X145595714Y-122766666D01*
%TO.C,R2*%
X117652380Y-121466666D02*
X117176190Y-121800000D01*
X117652380Y-122038095D02*
X116652380Y-122038095D01*
X116652380Y-121657142D01*
X116700000Y-121561904D01*
X116747619Y-121514285D01*
X116842857Y-121466666D01*
X116985714Y-121466666D01*
X117080952Y-121514285D01*
X117128571Y-121561904D01*
X117176190Y-121657142D01*
X117176190Y-122038095D01*
X116747619Y-121085714D02*
X116700000Y-121038095D01*
X116652380Y-120942857D01*
X116652380Y-120704761D01*
X116700000Y-120609523D01*
X116747619Y-120561904D01*
X116842857Y-120514285D01*
X116938095Y-120514285D01*
X117080952Y-120561904D01*
X117652380Y-121133333D01*
X117652380Y-120514285D01*
%TO.C,C7*%
X157257142Y-124566666D02*
X157304761Y-124614285D01*
X157352380Y-124757142D01*
X157352380Y-124852380D01*
X157304761Y-124995238D01*
X157209523Y-125090476D01*
X157114285Y-125138095D01*
X156923809Y-125185714D01*
X156780952Y-125185714D01*
X156590476Y-125138095D01*
X156495238Y-125090476D01*
X156400000Y-124995238D01*
X156352380Y-124852380D01*
X156352380Y-124757142D01*
X156400000Y-124614285D01*
X156447619Y-124566666D01*
X156352380Y-124233333D02*
X156352380Y-123566666D01*
X157352380Y-123995238D01*
D12*
%TO.C,R12*%
X114814285Y-129211428D02*
X114614285Y-128925714D01*
X114471428Y-129211428D02*
X114471428Y-128611428D01*
X114700000Y-128611428D01*
X114757142Y-128640000D01*
X114785714Y-128668571D01*
X114814285Y-128725714D01*
X114814285Y-128811428D01*
X114785714Y-128868571D01*
X114757142Y-128897142D01*
X114700000Y-128925714D01*
X114471428Y-128925714D01*
X115385714Y-129211428D02*
X115042857Y-129211428D01*
X115214285Y-129211428D02*
X115214285Y-128611428D01*
X115157142Y-128697142D01*
X115100000Y-128754285D01*
X115042857Y-128782857D01*
X115614285Y-128668571D02*
X115642857Y-128640000D01*
X115700000Y-128611428D01*
X115842857Y-128611428D01*
X115900000Y-128640000D01*
X115928571Y-128668571D01*
X115957142Y-128725714D01*
X115957142Y-128782857D01*
X115928571Y-128868571D01*
X115585714Y-129211428D01*
X115957142Y-129211428D01*
D11*
X115652380Y-126519047D02*
X115652380Y-127090476D01*
X115652380Y-126804761D02*
X114652380Y-126804761D01*
X114795238Y-126900000D01*
X114890476Y-126995238D01*
X114938095Y-127090476D01*
X115652380Y-126090476D02*
X114652380Y-126090476D01*
X115271428Y-125995238D02*
X115652380Y-125709523D01*
X114985714Y-125709523D02*
X115366666Y-126090476D01*
D12*
%TO.C,R11*%
X108514285Y-117831428D02*
X108314285Y-117545714D01*
X108171428Y-117831428D02*
X108171428Y-117231428D01*
X108400000Y-117231428D01*
X108457142Y-117260000D01*
X108485714Y-117288571D01*
X108514285Y-117345714D01*
X108514285Y-117431428D01*
X108485714Y-117488571D01*
X108457142Y-117517142D01*
X108400000Y-117545714D01*
X108171428Y-117545714D01*
X109085714Y-117831428D02*
X108742857Y-117831428D01*
X108914285Y-117831428D02*
X108914285Y-117231428D01*
X108857142Y-117317142D01*
X108800000Y-117374285D01*
X108742857Y-117402857D01*
X109657142Y-117831428D02*
X109314285Y-117831428D01*
X109485714Y-117831428D02*
X109485714Y-117231428D01*
X109428571Y-117317142D01*
X109371428Y-117374285D01*
X109314285Y-117402857D01*
D11*
X109352380Y-121171428D02*
X109352380Y-121742857D01*
X109352380Y-121457142D02*
X108352380Y-121457142D01*
X108495238Y-121552380D01*
X108590476Y-121647619D01*
X108638095Y-121742857D01*
X108352380Y-120552380D02*
X108352380Y-120457142D01*
X108400000Y-120361904D01*
X108447619Y-120314285D01*
X108542857Y-120266666D01*
X108733333Y-120219047D01*
X108971428Y-120219047D01*
X109161904Y-120266666D01*
X109257142Y-120314285D01*
X109304761Y-120361904D01*
X109352380Y-120457142D01*
X109352380Y-120552380D01*
X109304761Y-120647619D01*
X109257142Y-120695238D01*
X109161904Y-120742857D01*
X108971428Y-120790476D01*
X108733333Y-120790476D01*
X108542857Y-120742857D01*
X108447619Y-120695238D01*
X108400000Y-120647619D01*
X108352380Y-120552380D01*
X108352380Y-119600000D02*
X108352380Y-119504761D01*
X108400000Y-119409523D01*
X108447619Y-119361904D01*
X108542857Y-119314285D01*
X108733333Y-119266666D01*
X108971428Y-119266666D01*
X109161904Y-119314285D01*
X109257142Y-119361904D01*
X109304761Y-119409523D01*
X109352380Y-119504761D01*
X109352380Y-119600000D01*
X109304761Y-119695238D01*
X109257142Y-119742857D01*
X109161904Y-119790476D01*
X108971428Y-119838095D01*
X108733333Y-119838095D01*
X108542857Y-119790476D01*
X108447619Y-119742857D01*
X108400000Y-119695238D01*
X108352380Y-119600000D01*
X109352380Y-118838095D02*
X108352380Y-118838095D01*
X108971428Y-118742857D02*
X109352380Y-118457142D01*
X108685714Y-118457142D02*
X109066666Y-118838095D01*
D13*
%TO.C,D2*%
X152616666Y-145216666D02*
X151916666Y-145216666D01*
X151916666Y-145050000D01*
X151950000Y-144950000D01*
X152016666Y-144883333D01*
X152083333Y-144850000D01*
X152216666Y-144816666D01*
X152316666Y-144816666D01*
X152450000Y-144850000D01*
X152516666Y-144883333D01*
X152583333Y-144950000D01*
X152616666Y-145050000D01*
X152616666Y-145216666D01*
X151983333Y-144550000D02*
X151950000Y-144516666D01*
X151916666Y-144450000D01*
X151916666Y-144283333D01*
X151950000Y-144216666D01*
X151983333Y-144183333D01*
X152050000Y-144150000D01*
X152116666Y-144150000D01*
X152216666Y-144183333D01*
X152616666Y-144583333D01*
X152616666Y-144150000D01*
D11*
%TO.C,C8*%
X151633333Y-130357142D02*
X151585714Y-130404761D01*
X151442857Y-130452380D01*
X151347619Y-130452380D01*
X151204761Y-130404761D01*
X151109523Y-130309523D01*
X151061904Y-130214285D01*
X151014285Y-130023809D01*
X151014285Y-129880952D01*
X151061904Y-129690476D01*
X151109523Y-129595238D01*
X151204761Y-129500000D01*
X151347619Y-129452380D01*
X151442857Y-129452380D01*
X151585714Y-129500000D01*
X151633333Y-129547619D01*
X152204761Y-129880952D02*
X152109523Y-129833333D01*
X152061904Y-129785714D01*
X152014285Y-129690476D01*
X152014285Y-129642857D01*
X152061904Y-129547619D01*
X152109523Y-129500000D01*
X152204761Y-129452380D01*
X152395238Y-129452380D01*
X152490476Y-129500000D01*
X152538095Y-129547619D01*
X152585714Y-129642857D01*
X152585714Y-129690476D01*
X152538095Y-129785714D01*
X152490476Y-129833333D01*
X152395238Y-129880952D01*
X152204761Y-129880952D01*
X152109523Y-129928571D01*
X152061904Y-129976190D01*
X152014285Y-130071428D01*
X152014285Y-130261904D01*
X152061904Y-130357142D01*
X152109523Y-130404761D01*
X152204761Y-130452380D01*
X152395238Y-130452380D01*
X152490476Y-130404761D01*
X152538095Y-130357142D01*
X152585714Y-130261904D01*
X152585714Y-130071428D01*
X152538095Y-129976190D01*
X152490476Y-129928571D01*
X152395238Y-129880952D01*
%TO.C,SWD1*%
X125661666Y-140049761D02*
X125804523Y-140097380D01*
X126042619Y-140097380D01*
X126137857Y-140049761D01*
X126185476Y-140002142D01*
X126233095Y-139906904D01*
X126233095Y-139811666D01*
X126185476Y-139716428D01*
X126137857Y-139668809D01*
X126042619Y-139621190D01*
X125852142Y-139573571D01*
X125756904Y-139525952D01*
X125709285Y-139478333D01*
X125661666Y-139383095D01*
X125661666Y-139287857D01*
X125709285Y-139192619D01*
X125756904Y-139145000D01*
X125852142Y-139097380D01*
X126090238Y-139097380D01*
X126233095Y-139145000D01*
X126566428Y-139097380D02*
X126804523Y-140097380D01*
X126995000Y-139383095D01*
X127185476Y-140097380D01*
X127423571Y-139097380D01*
X127804523Y-140097380D02*
X127804523Y-139097380D01*
X128042619Y-139097380D01*
X128185476Y-139145000D01*
X128280714Y-139240238D01*
X128328333Y-139335476D01*
X128375952Y-139525952D01*
X128375952Y-139668809D01*
X128328333Y-139859285D01*
X128280714Y-139954523D01*
X128185476Y-140049761D01*
X128042619Y-140097380D01*
X127804523Y-140097380D01*
X129328333Y-140097380D02*
X128756904Y-140097380D01*
X129042619Y-140097380D02*
X129042619Y-139097380D01*
X128947380Y-139240238D01*
X128852142Y-139335476D01*
X128756904Y-139383095D01*
D12*
%TO.C,R10*%
X111714285Y-122911428D02*
X111514285Y-122625714D01*
X111371428Y-122911428D02*
X111371428Y-122311428D01*
X111600000Y-122311428D01*
X111657142Y-122340000D01*
X111685714Y-122368571D01*
X111714285Y-122425714D01*
X111714285Y-122511428D01*
X111685714Y-122568571D01*
X111657142Y-122597142D01*
X111600000Y-122625714D01*
X111371428Y-122625714D01*
X112285714Y-122911428D02*
X111942857Y-122911428D01*
X112114285Y-122911428D02*
X112114285Y-122311428D01*
X112057142Y-122397142D01*
X112000000Y-122454285D01*
X111942857Y-122482857D01*
X112657142Y-122311428D02*
X112714285Y-122311428D01*
X112771428Y-122340000D01*
X112800000Y-122368571D01*
X112828571Y-122425714D01*
X112857142Y-122540000D01*
X112857142Y-122682857D01*
X112828571Y-122797142D01*
X112800000Y-122854285D01*
X112771428Y-122882857D01*
X112714285Y-122911428D01*
X112657142Y-122911428D01*
X112600000Y-122882857D01*
X112571428Y-122854285D01*
X112542857Y-122797142D01*
X112514285Y-122682857D01*
X112514285Y-122540000D01*
X112542857Y-122425714D01*
X112571428Y-122368571D01*
X112600000Y-122340000D01*
X112657142Y-122311428D01*
D11*
X112552380Y-121171428D02*
X112552380Y-121742857D01*
X112552380Y-121457142D02*
X111552380Y-121457142D01*
X111695238Y-121552380D01*
X111790476Y-121647619D01*
X111838095Y-121742857D01*
X111647619Y-120790476D02*
X111600000Y-120742857D01*
X111552380Y-120647619D01*
X111552380Y-120409523D01*
X111600000Y-120314285D01*
X111647619Y-120266666D01*
X111742857Y-120219047D01*
X111838095Y-120219047D01*
X111980952Y-120266666D01*
X112552380Y-120838095D01*
X112552380Y-120219047D01*
X111552380Y-119600000D02*
X111552380Y-119504761D01*
X111600000Y-119409523D01*
X111647619Y-119361904D01*
X111742857Y-119314285D01*
X111933333Y-119266666D01*
X112171428Y-119266666D01*
X112361904Y-119314285D01*
X112457142Y-119361904D01*
X112504761Y-119409523D01*
X112552380Y-119504761D01*
X112552380Y-119600000D01*
X112504761Y-119695238D01*
X112457142Y-119742857D01*
X112361904Y-119790476D01*
X112171428Y-119838095D01*
X111933333Y-119838095D01*
X111742857Y-119790476D01*
X111647619Y-119742857D01*
X111600000Y-119695238D01*
X111552380Y-119600000D01*
X112552380Y-118838095D02*
X111552380Y-118838095D01*
X112171428Y-118742857D02*
X112552380Y-118457142D01*
X111885714Y-118457142D02*
X112266666Y-118838095D01*
D12*
%TO.C,R3*%
X82631428Y-116700000D02*
X82345714Y-116900000D01*
X82631428Y-117042857D02*
X82031428Y-117042857D01*
X82031428Y-116814285D01*
X82060000Y-116757142D01*
X82088571Y-116728571D01*
X82145714Y-116700000D01*
X82231428Y-116700000D01*
X82288571Y-116728571D01*
X82317142Y-116757142D01*
X82345714Y-116814285D01*
X82345714Y-117042857D01*
X82031428Y-116500000D02*
X82031428Y-116128571D01*
X82260000Y-116328571D01*
X82260000Y-116242857D01*
X82288571Y-116185714D01*
X82317142Y-116157142D01*
X82374285Y-116128571D01*
X82517142Y-116128571D01*
X82574285Y-116157142D01*
X82602857Y-116185714D01*
X82631428Y-116242857D01*
X82631428Y-116414285D01*
X82602857Y-116471428D01*
X82574285Y-116500000D01*
D11*
X84209523Y-116385714D02*
X84209523Y-117052380D01*
X83971428Y-116004761D02*
X83733333Y-116719047D01*
X84352380Y-116719047D01*
X84638095Y-116052380D02*
X85304761Y-116052380D01*
X84876190Y-117052380D01*
X85685714Y-117052380D02*
X85685714Y-116052380D01*
X85780952Y-116671428D02*
X86066666Y-117052380D01*
X86066666Y-116385714D02*
X85685714Y-116766666D01*
D14*
%TO.C,G\u002A\u002A\u002A*%
X157034231Y-130953871D02*
X157206809Y-130975810D01*
X157206809Y-130975810D02*
X157371535Y-131012612D01*
X157371535Y-131012612D02*
X157528877Y-131064470D01*
X157528877Y-131064470D02*
X157679301Y-131131577D01*
X157679301Y-131131577D02*
X157823274Y-131214128D01*
X157823274Y-131214128D02*
X157961264Y-131312314D01*
X157961264Y-131312314D02*
X158093737Y-131426330D01*
X158093737Y-131426330D02*
X158154029Y-131485240D01*
X158154029Y-131485240D02*
X158211417Y-131544858D01*
X158211417Y-131544858D02*
X158259420Y-131598150D01*
X158259420Y-131598150D02*
X158301686Y-131649598D01*
X158301686Y-131649598D02*
X158341868Y-131703685D01*
X158341868Y-131703685D02*
X158383615Y-131764891D01*
X158383615Y-131764891D02*
X158391135Y-131776334D01*
X158391135Y-131776334D02*
X158475247Y-131919511D01*
X158475247Y-131919511D02*
X158544020Y-132068678D01*
X158544020Y-132068678D02*
X158597598Y-132224338D01*
X158597598Y-132224338D02*
X158636123Y-132386997D01*
X158636123Y-132386997D02*
X158659739Y-132557158D01*
X158659739Y-132557158D02*
X158668588Y-132735327D01*
X158668588Y-132735327D02*
X158668667Y-132754265D01*
X158668667Y-132754265D02*
X158660955Y-132934781D01*
X158660955Y-132934781D02*
X158637869Y-133108605D01*
X158637869Y-133108605D02*
X158599480Y-133275524D01*
X158599480Y-133275524D02*
X158545860Y-133435328D01*
X158545860Y-133435328D02*
X158477082Y-133587807D01*
X158477082Y-133587807D02*
X158393219Y-133732749D01*
X158393219Y-133732749D02*
X158294341Y-133869943D01*
X158294341Y-133869943D02*
X158280711Y-133886803D01*
X158280711Y-133886803D02*
X158240778Y-133932506D01*
X158240778Y-133932506D02*
X158191012Y-133984741D01*
X158191012Y-133984741D02*
X158135167Y-134039935D01*
X158135167Y-134039935D02*
X158076997Y-134094513D01*
X158076997Y-134094513D02*
X158020257Y-134144901D01*
X158020257Y-134144901D02*
X157968699Y-134187525D01*
X157968699Y-134187525D02*
X157949000Y-134202619D01*
X157949000Y-134202619D02*
X157806140Y-134300075D01*
X157806140Y-134300075D02*
X157661303Y-134381234D01*
X157661303Y-134381234D02*
X157513006Y-134446610D01*
X157513006Y-134446610D02*
X157359766Y-134496716D01*
X157359766Y-134496716D02*
X157200098Y-134532065D01*
X157200098Y-134532065D02*
X157032520Y-134553172D01*
X157032520Y-134553172D02*
X156918392Y-134559505D01*
X156918392Y-134559505D02*
X156750337Y-134558151D01*
X156750337Y-134558151D02*
X156591138Y-134543460D01*
X156591138Y-134543460D02*
X156438673Y-134514987D01*
X156438673Y-134514987D02*
X156290816Y-134472287D01*
X156290816Y-134472287D02*
X156145444Y-134414913D01*
X156145444Y-134414913D02*
X156078309Y-134383217D01*
X156078309Y-134383217D02*
X155928373Y-134299868D01*
X155928373Y-134299868D02*
X155787383Y-134203543D01*
X155787383Y-134203543D02*
X155656208Y-134095351D01*
X155656208Y-134095351D02*
X155535720Y-133976400D01*
X155535720Y-133976400D02*
X155426789Y-133847798D01*
X155426789Y-133847798D02*
X155330286Y-133710653D01*
X155330286Y-133710653D02*
X155247081Y-133566073D01*
X155247081Y-133566073D02*
X155178044Y-133415168D01*
X155178044Y-133415168D02*
X155124046Y-133259043D01*
X155124046Y-133259043D02*
X155091364Y-133126741D01*
X155091364Y-133126741D02*
X155082258Y-133077667D01*
X155082258Y-133077667D02*
X155073943Y-133025389D01*
X155073943Y-133025389D02*
X155067507Y-132977153D01*
X155067507Y-132977153D02*
X155064644Y-132948941D01*
X155064644Y-132948941D02*
X155058535Y-132872767D01*
X155058535Y-132872767D02*
X155043762Y-132991300D01*
X155043762Y-132991300D02*
X155015465Y-133161687D01*
X155015465Y-133161687D02*
X154974107Y-133321926D01*
X154974107Y-133321926D02*
X154919239Y-133473164D01*
X154919239Y-133473164D02*
X154850415Y-133616550D01*
X154850415Y-133616550D02*
X154767186Y-133753232D01*
X154767186Y-133753232D02*
X154721984Y-133816801D01*
X154721984Y-133816801D02*
X154686695Y-133861009D01*
X154686695Y-133861009D02*
X154641769Y-133912555D01*
X154641769Y-133912555D02*
X154590583Y-133967943D01*
X154590583Y-133967943D02*
X154536516Y-134023677D01*
X154536516Y-134023677D02*
X154482945Y-134076261D01*
X154482945Y-134076261D02*
X154433248Y-134122199D01*
X154433248Y-134122199D02*
X154397233Y-134152880D01*
X154397233Y-134152880D02*
X154252782Y-134259524D01*
X154252782Y-134259524D02*
X154104020Y-134349836D01*
X154104020Y-134349836D02*
X153950534Y-134423962D01*
X153950534Y-134423962D02*
X153791910Y-134482050D01*
X153791910Y-134482050D02*
X153627734Y-134524247D01*
X153627734Y-134524247D02*
X153457592Y-134550700D01*
X153457592Y-134550700D02*
X153281070Y-134561555D01*
X153281070Y-134561555D02*
X153244749Y-134561867D01*
X153244749Y-134561867D02*
X153069001Y-134553985D01*
X153069001Y-134553985D02*
X152899295Y-134530316D01*
X152899295Y-134530316D02*
X152735546Y-134490825D01*
X152735546Y-134490825D02*
X152577669Y-134435476D01*
X152577669Y-134435476D02*
X152425578Y-134364234D01*
X152425578Y-134364234D02*
X152279189Y-134277064D01*
X152279189Y-134277064D02*
X152138415Y-134173931D01*
X152138415Y-134173931D02*
X152003172Y-134054800D01*
X152003172Y-134054800D02*
X151993850Y-134045803D01*
X151993850Y-134045803D02*
X151871472Y-133916666D01*
X151871472Y-133916666D02*
X151764976Y-133782047D01*
X151764976Y-133782047D02*
X151673989Y-133641213D01*
X151673989Y-133641213D02*
X151598139Y-133493432D01*
X151598139Y-133493432D02*
X151537054Y-133337971D01*
X151537054Y-133337971D02*
X151490361Y-133174097D01*
X151490361Y-133174097D02*
X151457689Y-133001078D01*
X151457689Y-133001078D02*
X151455608Y-132986370D01*
X151455608Y-132986370D02*
X151449633Y-132945841D01*
X151449633Y-132945841D02*
X151444742Y-132918217D01*
X151444742Y-132918217D02*
X151441192Y-132904665D01*
X151441192Y-132904665D02*
X151439241Y-132906351D01*
X151439241Y-132906351D02*
X151438980Y-132910867D01*
X151438980Y-132910867D02*
X151434484Y-132971291D01*
X151434484Y-132971291D02*
X151424244Y-133043306D01*
X151424244Y-133043306D02*
X151409157Y-133122928D01*
X151409157Y-133122928D02*
X151390122Y-133206174D01*
X151390122Y-133206174D02*
X151368039Y-133289060D01*
X151368039Y-133289060D02*
X151343804Y-133367601D01*
X151343804Y-133367601D02*
X151322584Y-133426938D01*
X151322584Y-133426938D02*
X151255828Y-133576678D01*
X151255828Y-133576678D02*
X151174262Y-133719421D01*
X151174262Y-133719421D02*
X151078884Y-133854234D01*
X151078884Y-133854234D02*
X150970694Y-133980189D01*
X150970694Y-133980189D02*
X150850691Y-134096353D01*
X150850691Y-134096353D02*
X150719873Y-134201796D01*
X150719873Y-134201796D02*
X150579241Y-134295587D01*
X150579241Y-134295587D02*
X150429792Y-134376795D01*
X150429792Y-134376795D02*
X150272525Y-134444489D01*
X150272525Y-134444489D02*
X150204818Y-134468522D01*
X150204818Y-134468522D02*
X150105224Y-134499390D01*
X150105224Y-134499390D02*
X150012403Y-134522784D01*
X150012403Y-134522784D02*
X149921193Y-134539562D01*
X149921193Y-134539562D02*
X149826431Y-134550580D01*
X149826431Y-134550580D02*
X149722953Y-134556696D01*
X149722953Y-134556696D02*
X149664367Y-134558216D01*
X149664367Y-134558216D02*
X149575988Y-134558822D01*
X149575988Y-134558822D02*
X149502928Y-134557364D01*
X149502928Y-134557364D02*
X149443689Y-134553790D01*
X149443689Y-134553790D02*
X149406134Y-134549503D01*
X149406134Y-134549503D02*
X149229189Y-134515737D01*
X149229189Y-134515737D02*
X149060235Y-134467050D01*
X149060235Y-134467050D02*
X148899136Y-134403377D01*
X148899136Y-134403377D02*
X148745758Y-134324652D01*
X148745758Y-134324652D02*
X148599965Y-134230811D01*
X148599965Y-134230811D02*
X148461621Y-134121790D01*
X148461621Y-134121790D02*
X148400252Y-134066340D01*
X148400252Y-134066340D02*
X148278117Y-133939874D01*
X148278117Y-133939874D02*
X148169529Y-133803600D01*
X148169529Y-133803600D02*
X148074958Y-133658380D01*
X148074958Y-133658380D02*
X147994872Y-133505080D01*
X147994872Y-133505080D02*
X147929740Y-133344561D01*
X147929740Y-133344561D02*
X147880032Y-133177688D01*
X147880032Y-133177688D02*
X147855892Y-133064437D01*
X147855892Y-133064437D02*
X147846558Y-132999547D01*
X147846558Y-132999547D02*
X147839418Y-132923276D01*
X147839418Y-132923276D02*
X147834643Y-132840673D01*
X147834643Y-132840673D02*
X147834019Y-132817293D01*
X147834019Y-132817293D02*
X148159352Y-132817293D01*
X148159352Y-132817293D02*
X148173554Y-132966106D01*
X148173554Y-132966106D02*
X148203443Y-133112926D01*
X148203443Y-133112926D02*
X148249101Y-133256472D01*
X148249101Y-133256472D02*
X148305918Y-133386173D01*
X148305918Y-133386173D02*
X148368304Y-133500614D01*
X148368304Y-133500614D02*
X148436043Y-133603739D01*
X148436043Y-133603739D02*
X148512581Y-133700212D01*
X148512581Y-133700212D02*
X148601366Y-133794696D01*
X148601366Y-133794696D02*
X148624485Y-133817217D01*
X148624485Y-133817217D02*
X148745653Y-133922189D01*
X148745653Y-133922189D02*
X148874582Y-134012126D01*
X148874582Y-134012126D02*
X149011046Y-134086922D01*
X149011046Y-134086922D02*
X149154817Y-134146471D01*
X149154817Y-134146471D02*
X149305667Y-134190666D01*
X149305667Y-134190666D02*
X149463369Y-134219403D01*
X149463369Y-134219403D02*
X149499267Y-134223673D01*
X149499267Y-134223673D02*
X149555500Y-134227345D01*
X149555500Y-134227345D02*
X149623100Y-134227995D01*
X149623100Y-134227995D02*
X149696816Y-134225860D01*
X149696816Y-134225860D02*
X149771398Y-134221172D01*
X149771398Y-134221172D02*
X149841595Y-134214165D01*
X149841595Y-134214165D02*
X149897560Y-134205915D01*
X149897560Y-134205915D02*
X150045817Y-134171292D01*
X150045817Y-134171292D02*
X150188800Y-134122029D01*
X150188800Y-134122029D02*
X150325431Y-134059094D01*
X150325431Y-134059094D02*
X150454633Y-133983456D01*
X150454633Y-133983456D02*
X150575331Y-133896085D01*
X150575331Y-133896085D02*
X150686449Y-133797950D01*
X150686449Y-133797950D02*
X150786908Y-133690019D01*
X150786908Y-133690019D02*
X150875634Y-133573261D01*
X150875634Y-133573261D02*
X150951550Y-133448647D01*
X150951550Y-133448647D02*
X151013579Y-133317144D01*
X151013579Y-133317144D02*
X151060645Y-133179722D01*
X151060645Y-133179722D02*
X151068027Y-133152167D01*
X151068027Y-133152167D02*
X151082289Y-133094315D01*
X151082289Y-133094315D02*
X151093160Y-133044061D01*
X151093160Y-133044061D02*
X151101080Y-132997429D01*
X151101080Y-132997429D02*
X151106487Y-132950442D01*
X151106487Y-132950442D02*
X151109823Y-132899123D01*
X151109823Y-132899123D02*
X151111526Y-132839496D01*
X151111526Y-132839496D02*
X151111632Y-132824507D01*
X151111632Y-132824507D02*
X151770667Y-132824507D01*
X151770667Y-132824507D02*
X151786985Y-132981822D01*
X151786985Y-132981822D02*
X151803518Y-133070956D01*
X151803518Y-133070956D02*
X151842355Y-133212082D01*
X151842355Y-133212082D02*
X151896793Y-133349223D01*
X151896793Y-133349223D02*
X151965718Y-133481106D01*
X151965718Y-133481106D02*
X152048015Y-133606451D01*
X152048015Y-133606451D02*
X152142568Y-133723984D01*
X152142568Y-133723984D02*
X152248265Y-133832428D01*
X152248265Y-133832428D02*
X152363989Y-133930505D01*
X152363989Y-133930505D02*
X152488626Y-134016940D01*
X152488626Y-134016940D02*
X152621062Y-134090455D01*
X152621062Y-134090455D02*
X152738347Y-134141608D01*
X152738347Y-134141608D02*
X152854383Y-134179070D01*
X152854383Y-134179070D02*
X152980244Y-134207012D01*
X152980244Y-134207012D02*
X153111402Y-134224902D01*
X153111402Y-134224902D02*
X153243331Y-134232207D01*
X153243331Y-134232207D02*
X153371504Y-134228395D01*
X153371504Y-134228395D02*
X153428022Y-134222753D01*
X153428022Y-134222753D02*
X153583859Y-134195480D01*
X153583859Y-134195480D02*
X153732294Y-134153167D01*
X153732294Y-134153167D02*
X153873986Y-134095525D01*
X153873986Y-134095525D02*
X154009596Y-134022263D01*
X154009596Y-134022263D02*
X154139785Y-133933092D01*
X154139785Y-133933092D02*
X154202500Y-133882915D01*
X154202500Y-133882915D02*
X154322209Y-133772870D01*
X154322209Y-133772870D02*
X154426123Y-133656891D01*
X154426123Y-133656891D02*
X154514404Y-133534718D01*
X154514404Y-133534718D02*
X154587212Y-133406091D01*
X154587212Y-133406091D02*
X154644708Y-133270750D01*
X154644708Y-133270750D02*
X154687053Y-133128434D01*
X154687053Y-133128434D02*
X154697557Y-133080748D01*
X154697557Y-133080748D02*
X154722165Y-132919838D01*
X154722165Y-132919838D02*
X154730878Y-132760500D01*
X154730878Y-132760500D02*
X154730410Y-132750000D01*
X154730410Y-132750000D02*
X155388276Y-132750000D01*
X155388276Y-132750000D02*
X155388348Y-132815761D01*
X155388348Y-132815761D02*
X155389013Y-132867993D01*
X155389013Y-132867993D02*
X155390496Y-132910097D01*
X155390496Y-132910097D02*
X155393022Y-132945472D01*
X155393022Y-132945472D02*
X155396816Y-132977520D01*
X155396816Y-132977520D02*
X155402102Y-133009640D01*
X155402102Y-133009640D02*
X155407176Y-133035796D01*
X155407176Y-133035796D02*
X155443264Y-133180048D01*
X155443264Y-133180048D02*
X155491670Y-133315060D01*
X155491670Y-133315060D02*
X155553367Y-133442656D01*
X155553367Y-133442656D02*
X155629326Y-133564657D01*
X155629326Y-133564657D02*
X155720520Y-133682886D01*
X155720520Y-133682886D02*
X155798011Y-133768632D01*
X155798011Y-133768632D02*
X155917107Y-133881576D01*
X155917107Y-133881576D02*
X156042590Y-133978847D01*
X156042590Y-133978847D02*
X156174546Y-134060488D01*
X156174546Y-134060488D02*
X156313059Y-134126544D01*
X156313059Y-134126544D02*
X156458216Y-134177058D01*
X156458216Y-134177058D02*
X156610101Y-134212074D01*
X156610101Y-134212074D02*
X156684471Y-134223270D01*
X156684471Y-134223270D02*
X156733918Y-134227347D01*
X156733918Y-134227347D02*
X156795599Y-134229155D01*
X156795599Y-134229155D02*
X156864994Y-134228856D01*
X156864994Y-134228856D02*
X156937581Y-134226614D01*
X156937581Y-134226614D02*
X157008836Y-134222592D01*
X157008836Y-134222592D02*
X157074239Y-134216953D01*
X157074239Y-134216953D02*
X157129266Y-134209860D01*
X157129266Y-134209860D02*
X157147872Y-134206552D01*
X157147872Y-134206552D02*
X157297931Y-134168693D01*
X157297931Y-134168693D02*
X157441329Y-134115782D01*
X157441329Y-134115782D02*
X157578560Y-134047544D01*
X157578560Y-134047544D02*
X157710117Y-133963704D01*
X157710117Y-133963704D02*
X157836493Y-133863988D01*
X157836493Y-133863988D02*
X157942310Y-133764411D01*
X157942310Y-133764411D02*
X158044380Y-133649535D01*
X158044380Y-133649535D02*
X158131240Y-133527445D01*
X158131240Y-133527445D02*
X158202989Y-133397912D01*
X158202989Y-133397912D02*
X158259727Y-133260709D01*
X158259727Y-133260709D02*
X158301555Y-133115605D01*
X158301555Y-133115605D02*
X158328575Y-132962374D01*
X158328575Y-132962374D02*
X158337842Y-132864581D01*
X158337842Y-132864581D02*
X158340854Y-132700062D01*
X158340854Y-132700062D02*
X158327959Y-132541042D01*
X158327959Y-132541042D02*
X158299208Y-132387706D01*
X158299208Y-132387706D02*
X158254651Y-132240238D01*
X158254651Y-132240238D02*
X158194337Y-132098821D01*
X158194337Y-132098821D02*
X158118316Y-131963641D01*
X158118316Y-131963641D02*
X158077897Y-131903334D01*
X158077897Y-131903334D02*
X158040486Y-131854787D01*
X158040486Y-131854787D02*
X157992752Y-131799572D01*
X157992752Y-131799572D02*
X157938030Y-131741026D01*
X157938030Y-131741026D02*
X157879659Y-131682487D01*
X157879659Y-131682487D02*
X157820975Y-131627292D01*
X157820975Y-131627292D02*
X157765316Y-131578778D01*
X157765316Y-131578778D02*
X157716018Y-131540282D01*
X157716018Y-131540282D02*
X157711934Y-131537371D01*
X157711934Y-131537371D02*
X157579831Y-131454423D01*
X157579831Y-131454423D02*
X157439168Y-131385890D01*
X157439168Y-131385890D02*
X157290931Y-131332205D01*
X157290931Y-131332205D02*
X157170067Y-131300780D01*
X157170067Y-131300780D02*
X157140489Y-131294689D01*
X157140489Y-131294689D02*
X157112993Y-131290017D01*
X157112993Y-131290017D02*
X157084679Y-131286580D01*
X157084679Y-131286580D02*
X157052644Y-131284194D01*
X157052644Y-131284194D02*
X157013987Y-131282676D01*
X157013987Y-131282676D02*
X156965806Y-131281841D01*
X156965806Y-131281841D02*
X156905200Y-131281506D01*
X156905200Y-131281506D02*
X156865267Y-131281468D01*
X156865267Y-131281468D02*
X156781853Y-131281987D01*
X156781853Y-131281987D02*
X156711906Y-131283855D01*
X156711906Y-131283855D02*
X156651982Y-131287540D01*
X156651982Y-131287540D02*
X156598636Y-131293508D01*
X156598636Y-131293508D02*
X156548427Y-131302227D01*
X156548427Y-131302227D02*
X156497908Y-131314164D01*
X156497908Y-131314164D02*
X156443638Y-131329785D01*
X156443638Y-131329785D02*
X156395367Y-131345197D01*
X156395367Y-131345197D02*
X156263588Y-131397142D01*
X156263588Y-131397142D02*
X156135839Y-131464370D01*
X156135839Y-131464370D02*
X156013555Y-131545428D01*
X156013555Y-131545428D02*
X155898173Y-131638867D01*
X155898173Y-131638867D02*
X155791130Y-131743234D01*
X155791130Y-131743234D02*
X155693863Y-131857078D01*
X155693863Y-131857078D02*
X155607809Y-131978947D01*
X155607809Y-131978947D02*
X155534403Y-132107391D01*
X155534403Y-132107391D02*
X155475083Y-132240958D01*
X155475083Y-132240958D02*
X155456099Y-132294056D01*
X155456099Y-132294056D02*
X155434706Y-132361078D01*
X155434706Y-132361078D02*
X155418218Y-132420531D01*
X155418218Y-132420531D02*
X155406033Y-132476460D01*
X155406033Y-132476460D02*
X155397549Y-132532910D01*
X155397549Y-132532910D02*
X155392164Y-132593925D01*
X155392164Y-132593925D02*
X155389277Y-132663551D01*
X155389277Y-132663551D02*
X155388286Y-132745831D01*
X155388286Y-132745831D02*
X155388276Y-132750000D01*
X155388276Y-132750000D02*
X154730410Y-132750000D01*
X154730410Y-132750000D02*
X154723881Y-132603782D01*
X154723881Y-132603782D02*
X154701360Y-132450728D01*
X154701360Y-132450728D02*
X154663500Y-132302385D01*
X154663500Y-132302385D02*
X154610487Y-132159799D01*
X154610487Y-132159799D02*
X154542506Y-132024015D01*
X154542506Y-132024015D02*
X154497023Y-131949900D01*
X154497023Y-131949900D02*
X154407443Y-131827566D01*
X154407443Y-131827566D02*
X154306568Y-131714834D01*
X154306568Y-131714834D02*
X154195936Y-131612786D01*
X154195936Y-131612786D02*
X154077083Y-131522506D01*
X154077083Y-131522506D02*
X153951546Y-131445074D01*
X153951546Y-131445074D02*
X153820863Y-131381575D01*
X153820863Y-131381575D02*
X153686571Y-131333090D01*
X153686571Y-131333090D02*
X153584434Y-131307235D01*
X153584434Y-131307235D02*
X153482100Y-131290398D01*
X153482100Y-131290398D02*
X153371020Y-131279699D01*
X153371020Y-131279699D02*
X153256897Y-131275318D01*
X153256897Y-131275318D02*
X153145436Y-131277434D01*
X153145436Y-131277434D02*
X153042343Y-131286228D01*
X153042343Y-131286228D02*
X153019122Y-131289405D01*
X153019122Y-131289405D02*
X152867891Y-131320182D01*
X152867891Y-131320182D02*
X152723079Y-131366613D01*
X152723079Y-131366613D02*
X152584836Y-131428619D01*
X152584836Y-131428619D02*
X152453314Y-131506125D01*
X152453314Y-131506125D02*
X152328665Y-131599052D01*
X152328665Y-131599052D02*
X152220489Y-131697797D01*
X152220489Y-131697797D02*
X152109695Y-131819700D01*
X152109695Y-131819700D02*
X152014094Y-131948325D01*
X152014094Y-131948325D02*
X151933883Y-132083016D01*
X151933883Y-132083016D02*
X151869263Y-132223117D01*
X151869263Y-132223117D02*
X151820432Y-132367973D01*
X151820432Y-132367973D02*
X151787589Y-132516927D01*
X151787589Y-132516927D02*
X151770934Y-132669323D01*
X151770934Y-132669323D02*
X151770667Y-132824507D01*
X151770667Y-132824507D02*
X151111632Y-132824507D01*
X151111632Y-132824507D02*
X151112037Y-132767583D01*
X151112037Y-132767583D02*
X151112037Y-132754234D01*
X151112037Y-132754234D02*
X151110973Y-132665905D01*
X151110973Y-132665905D02*
X151107498Y-132590140D01*
X151107498Y-132590140D02*
X151100992Y-132522663D01*
X151100992Y-132522663D02*
X151090834Y-132459199D01*
X151090834Y-132459199D02*
X151076403Y-132395473D01*
X151076403Y-132395473D02*
X151057079Y-132327211D01*
X151057079Y-132327211D02*
X151043996Y-132285741D01*
X151043996Y-132285741D02*
X150989646Y-132144942D01*
X150989646Y-132144942D02*
X150920619Y-132010780D01*
X150920619Y-132010780D02*
X150838095Y-131884369D01*
X150838095Y-131884369D02*
X150743251Y-131766820D01*
X150743251Y-131766820D02*
X150637268Y-131659248D01*
X150637268Y-131659248D02*
X150521323Y-131562765D01*
X150521323Y-131562765D02*
X150396595Y-131478483D01*
X150396595Y-131478483D02*
X150264264Y-131407517D01*
X150264264Y-131407517D02*
X150125508Y-131350978D01*
X150125508Y-131350978D02*
X150020397Y-131319342D01*
X150020397Y-131319342D02*
X149893657Y-131293665D01*
X149893657Y-131293665D02*
X149758242Y-131278798D01*
X149758242Y-131278798D02*
X149618579Y-131274819D01*
X149618579Y-131274819D02*
X149479093Y-131281809D01*
X149479093Y-131281809D02*
X149344211Y-131299847D01*
X149344211Y-131299847D02*
X149309674Y-131306515D01*
X149309674Y-131306515D02*
X149170701Y-131343759D01*
X149170701Y-131343759D02*
X149035477Y-131396918D01*
X149035477Y-131396918D02*
X148905151Y-131465173D01*
X148905151Y-131465173D02*
X148780876Y-131547708D01*
X148780876Y-131547708D02*
X148663800Y-131643703D01*
X148663800Y-131643703D02*
X148555074Y-131752342D01*
X148555074Y-131752342D02*
X148455848Y-131872806D01*
X148455848Y-131872806D02*
X148398907Y-131954134D01*
X148398907Y-131954134D02*
X148320733Y-132088063D01*
X148320733Y-132088063D02*
X148257748Y-132227669D01*
X148257748Y-132227669D02*
X148210035Y-132371674D01*
X148210035Y-132371674D02*
X148177676Y-132518798D01*
X148177676Y-132518798D02*
X148160754Y-132667764D01*
X148160754Y-132667764D02*
X148159352Y-132817293D01*
X148159352Y-132817293D02*
X147834019Y-132817293D01*
X147834019Y-132817293D02*
X147832403Y-132756786D01*
X147832403Y-132756786D02*
X147832867Y-132676665D01*
X147832867Y-132676665D02*
X147836205Y-132605358D01*
X147836205Y-132605358D02*
X147839327Y-132571723D01*
X147839327Y-132571723D02*
X147867481Y-132396006D01*
X147867481Y-132396006D02*
X147910691Y-132226520D01*
X147910691Y-132226520D02*
X147968630Y-132064179D01*
X147968630Y-132064179D02*
X148040974Y-131909897D01*
X148040974Y-131909897D02*
X148125226Y-131767867D01*
X148125226Y-131767867D02*
X148217917Y-131640032D01*
X148217917Y-131640032D02*
X148322052Y-131518780D01*
X148322052Y-131518780D02*
X148435417Y-131406117D01*
X148435417Y-131406117D02*
X148555800Y-131304053D01*
X148555800Y-131304053D02*
X148680987Y-131214595D01*
X148680987Y-131214595D02*
X148808766Y-131139751D01*
X148808766Y-131139751D02*
X148828688Y-131129574D01*
X148828688Y-131129574D02*
X148958619Y-131070356D01*
X148958619Y-131070356D02*
X149087673Y-131023819D01*
X149087673Y-131023819D02*
X149219283Y-130989133D01*
X149219283Y-130989133D02*
X149356881Y-130965462D01*
X149356881Y-130965462D02*
X149503896Y-130951974D01*
X149503896Y-130951974D02*
X149572144Y-130949060D01*
X149572144Y-130949060D02*
X149712507Y-130948552D01*
X149712507Y-130948552D02*
X149841970Y-130956053D01*
X149841970Y-130956053D02*
X149964852Y-130972143D01*
X149964852Y-130972143D02*
X150085468Y-130997401D01*
X150085468Y-130997401D02*
X150208135Y-131032408D01*
X150208135Y-131032408D02*
X150219019Y-131035924D01*
X150219019Y-131035924D02*
X150374992Y-131095555D01*
X150374992Y-131095555D02*
X150524428Y-131170190D01*
X150524428Y-131170190D02*
X150666270Y-131258811D01*
X150666270Y-131258811D02*
X150799465Y-131360402D01*
X150799465Y-131360402D02*
X150922957Y-131473944D01*
X150922957Y-131473944D02*
X151035692Y-131598422D01*
X151035692Y-131598422D02*
X151136614Y-131732817D01*
X151136614Y-131732817D02*
X151224669Y-131876112D01*
X151224669Y-131876112D02*
X151298802Y-132027291D01*
X151298802Y-132027291D02*
X151331516Y-132108728D01*
X151331516Y-132108728D02*
X151355667Y-132179814D01*
X151355667Y-132179814D02*
X151378387Y-132258317D01*
X151378387Y-132258317D02*
X151398776Y-132340135D01*
X151398776Y-132340135D02*
X151415939Y-132421169D01*
X151415939Y-132421169D02*
X151428976Y-132497316D01*
X151428976Y-132497316D02*
X151436990Y-132564475D01*
X151436990Y-132564475D02*
X151439048Y-132599973D01*
X151439048Y-132599973D02*
X151440401Y-132605898D01*
X151440401Y-132605898D02*
X151443478Y-132596787D01*
X151443478Y-132596787D02*
X151447884Y-132574407D01*
X151447884Y-132574407D02*
X151453224Y-132540521D01*
X151453224Y-132540521D02*
X151454742Y-132529867D01*
X151454742Y-132529867D02*
X151481562Y-132373158D01*
X151481562Y-132373158D02*
X151517060Y-132228690D01*
X151517060Y-132228690D02*
X151562424Y-132093521D01*
X151562424Y-132093521D02*
X151618838Y-131964705D01*
X151618838Y-131964705D02*
X151687489Y-131839301D01*
X151687489Y-131839301D02*
X151769563Y-131714363D01*
X151769563Y-131714363D02*
X151800512Y-131671770D01*
X151800512Y-131671770D02*
X151841594Y-131619957D01*
X151841594Y-131619957D02*
X151891941Y-131561847D01*
X151891941Y-131561847D02*
X151947897Y-131501262D01*
X151947897Y-131501262D02*
X152005805Y-131442024D01*
X152005805Y-131442024D02*
X152062008Y-131387955D01*
X152062008Y-131387955D02*
X152112850Y-131342875D01*
X152112850Y-131342875D02*
X152123934Y-131333749D01*
X152123934Y-131333749D02*
X152262744Y-131231875D01*
X152262744Y-131231875D02*
X152407886Y-131145614D01*
X152407886Y-131145614D02*
X152559515Y-131074915D01*
X152559515Y-131074915D02*
X152717787Y-131019724D01*
X152717787Y-131019724D02*
X152882858Y-130979986D01*
X152882858Y-130979986D02*
X153054884Y-130955649D01*
X153054884Y-130955649D02*
X153234020Y-130946659D01*
X153234020Y-130946659D02*
X153250000Y-130946601D01*
X153250000Y-130946601D02*
X153430274Y-130954091D01*
X153430274Y-130954091D02*
X153602885Y-130976644D01*
X153602885Y-130976644D02*
X153768139Y-131014383D01*
X153768139Y-131014383D02*
X153926346Y-131067431D01*
X153926346Y-131067431D02*
X154077811Y-131135909D01*
X154077811Y-131135909D02*
X154222843Y-131219942D01*
X154222843Y-131219942D02*
X154361749Y-131319652D01*
X154361749Y-131319652D02*
X154494836Y-131435162D01*
X154494836Y-131435162D02*
X154510445Y-131450106D01*
X154510445Y-131450106D02*
X154629489Y-131576297D01*
X154629489Y-131576297D02*
X154735022Y-131711250D01*
X154735022Y-131711250D02*
X154826335Y-131853848D01*
X154826335Y-131853848D02*
X154902720Y-132002974D01*
X154902720Y-132002974D02*
X154963469Y-132157514D01*
X154963469Y-132157514D02*
X154967618Y-132170034D01*
X154967618Y-132170034D02*
X154989189Y-132239908D01*
X154989189Y-132239908D02*
X155006768Y-132306491D01*
X155006768Y-132306491D02*
X155021498Y-132375018D01*
X155021498Y-132375018D02*
X155034522Y-132450729D01*
X155034522Y-132450729D02*
X155045237Y-132525634D01*
X155045237Y-132525634D02*
X155050569Y-132562714D01*
X155050569Y-132562714D02*
X155055177Y-132589301D01*
X155055177Y-132589301D02*
X155058664Y-132603511D01*
X155058664Y-132603511D02*
X155060632Y-132603465D01*
X155060632Y-132603465D02*
X155060890Y-132599661D01*
X155060890Y-132599661D02*
X155063378Y-132565461D01*
X155063378Y-132565461D02*
X155068901Y-132519483D01*
X155068901Y-132519483D02*
X155076726Y-132466456D01*
X155076726Y-132466456D02*
X155086116Y-132411111D01*
X155086116Y-132411111D02*
X155096336Y-132358179D01*
X155096336Y-132358179D02*
X155103526Y-132325371D01*
X155103526Y-132325371D02*
X155145461Y-132179527D01*
X155145461Y-132179527D02*
X155202734Y-132033637D01*
X155202734Y-132033637D02*
X155273979Y-131890437D01*
X155273979Y-131890437D02*
X155357832Y-131752661D01*
X155357832Y-131752661D02*
X155452927Y-131623047D01*
X155452927Y-131623047D02*
X155455910Y-131619349D01*
X155455910Y-131619349D02*
X155496812Y-131571663D01*
X155496812Y-131571663D02*
X155546515Y-131518235D01*
X155546515Y-131518235D02*
X155601489Y-131462507D01*
X155601489Y-131462507D02*
X155658203Y-131407919D01*
X155658203Y-131407919D02*
X155713127Y-131357915D01*
X155713127Y-131357915D02*
X155762730Y-131315937D01*
X155762730Y-131315937D02*
X155784457Y-131299015D01*
X155784457Y-131299015D02*
X155928250Y-131201054D01*
X155928250Y-131201054D02*
X156076828Y-131119223D01*
X156076828Y-131119223D02*
X156230605Y-131053386D01*
X156230605Y-131053386D02*
X156389995Y-131003406D01*
X156389995Y-131003406D02*
X156555410Y-130969147D01*
X156555410Y-130969147D02*
X156727264Y-130950473D01*
X156727264Y-130950473D02*
X156853334Y-130946601D01*
X156853334Y-130946601D02*
X157034231Y-130953871D01*
X157034231Y-130953871D02*
X157034231Y-130953871D01*
G36*
X147832867Y-132676665D02*
G01*
X147836205Y-132605358D01*
X147839327Y-132571723D01*
X147867481Y-132396006D01*
X147910691Y-132226520D01*
X147968630Y-132064179D01*
X148040974Y-131909897D01*
X148125226Y-131767867D01*
X148217917Y-131640032D01*
X148322052Y-131518780D01*
X148435417Y-131406117D01*
X148555800Y-131304053D01*
X148680987Y-131214595D01*
X148808766Y-131139751D01*
X148828688Y-131129574D01*
X148958619Y-131070356D01*
X149087673Y-131023819D01*
X149219283Y-130989133D01*
X149356881Y-130965462D01*
X149503896Y-130951974D01*
X149572144Y-130949060D01*
X149712507Y-130948552D01*
X149841970Y-130956053D01*
X149964852Y-130972143D01*
X150085468Y-130997401D01*
X150208135Y-131032408D01*
X150219019Y-131035924D01*
X150374992Y-131095555D01*
X150524428Y-131170190D01*
X150666270Y-131258811D01*
X150799465Y-131360402D01*
X150922957Y-131473944D01*
X151035692Y-131598422D01*
X151136614Y-131732817D01*
X151224669Y-131876112D01*
X151298802Y-132027291D01*
X151331516Y-132108728D01*
X151355667Y-132179814D01*
X151378387Y-132258317D01*
X151398776Y-132340135D01*
X151415939Y-132421169D01*
X151428976Y-132497316D01*
X151436990Y-132564475D01*
X151439048Y-132599973D01*
X151440401Y-132605898D01*
X151443478Y-132596787D01*
X151447884Y-132574407D01*
X151453224Y-132540521D01*
X151454742Y-132529867D01*
X151481562Y-132373158D01*
X151517060Y-132228690D01*
X151562424Y-132093521D01*
X151618838Y-131964705D01*
X151687489Y-131839301D01*
X151769563Y-131714363D01*
X151800512Y-131671770D01*
X151841594Y-131619957D01*
X151891941Y-131561847D01*
X151947897Y-131501262D01*
X152005805Y-131442024D01*
X152062008Y-131387955D01*
X152112850Y-131342875D01*
X152123934Y-131333749D01*
X152262744Y-131231875D01*
X152407886Y-131145614D01*
X152559515Y-131074915D01*
X152717787Y-131019724D01*
X152882858Y-130979986D01*
X153054884Y-130955649D01*
X153234020Y-130946659D01*
X153250000Y-130946601D01*
X153430274Y-130954091D01*
X153602885Y-130976644D01*
X153768139Y-131014383D01*
X153926346Y-131067431D01*
X154077811Y-131135909D01*
X154222843Y-131219942D01*
X154361749Y-131319652D01*
X154494836Y-131435162D01*
X154510445Y-131450106D01*
X154629489Y-131576297D01*
X154735022Y-131711250D01*
X154826335Y-131853848D01*
X154902720Y-132002974D01*
X154963469Y-132157514D01*
X154967618Y-132170034D01*
X154989189Y-132239908D01*
X155006768Y-132306491D01*
X155021498Y-132375018D01*
X155034522Y-132450729D01*
X155045237Y-132525634D01*
X155050569Y-132562714D01*
X155055177Y-132589301D01*
X155058664Y-132603511D01*
X155060632Y-132603465D01*
X155060890Y-132599661D01*
X155063378Y-132565461D01*
X155068901Y-132519483D01*
X155076726Y-132466456D01*
X155086116Y-132411111D01*
X155096336Y-132358179D01*
X155103526Y-132325371D01*
X155145461Y-132179527D01*
X155202734Y-132033637D01*
X155273979Y-131890437D01*
X155357832Y-131752661D01*
X155452927Y-131623047D01*
X155455910Y-131619349D01*
X155496812Y-131571663D01*
X155546515Y-131518235D01*
X155601489Y-131462507D01*
X155658203Y-131407919D01*
X155713127Y-131357915D01*
X155762730Y-131315937D01*
X155784457Y-131299015D01*
X155928250Y-131201054D01*
X156076828Y-131119223D01*
X156230605Y-131053386D01*
X156389995Y-131003406D01*
X156555410Y-130969147D01*
X156727264Y-130950473D01*
X156853334Y-130946601D01*
X157034231Y-130953871D01*
X157206809Y-130975810D01*
X157371535Y-131012612D01*
X157528877Y-131064470D01*
X157679301Y-131131577D01*
X157823274Y-131214128D01*
X157961264Y-131312314D01*
X158093737Y-131426330D01*
X158154029Y-131485240D01*
X158211417Y-131544858D01*
X158259420Y-131598150D01*
X158301686Y-131649598D01*
X158341868Y-131703685D01*
X158383615Y-131764891D01*
X158391135Y-131776334D01*
X158475247Y-131919511D01*
X158544020Y-132068678D01*
X158597598Y-132224338D01*
X158636123Y-132386997D01*
X158659739Y-132557158D01*
X158668588Y-132735327D01*
X158668667Y-132754265D01*
X158660955Y-132934781D01*
X158637869Y-133108605D01*
X158599480Y-133275524D01*
X158545860Y-133435328D01*
X158477082Y-133587807D01*
X158393219Y-133732749D01*
X158294341Y-133869943D01*
X158280711Y-133886803D01*
X158240778Y-133932506D01*
X158191012Y-133984741D01*
X158135167Y-134039935D01*
X158076997Y-134094513D01*
X158020257Y-134144901D01*
X157968699Y-134187525D01*
X157949000Y-134202619D01*
X157806140Y-134300075D01*
X157661303Y-134381234D01*
X157513006Y-134446610D01*
X157359766Y-134496716D01*
X157200098Y-134532065D01*
X157032520Y-134553172D01*
X156918392Y-134559505D01*
X156750337Y-134558151D01*
X156591138Y-134543460D01*
X156438673Y-134514987D01*
X156290816Y-134472287D01*
X156145444Y-134414913D01*
X156078309Y-134383217D01*
X155928373Y-134299868D01*
X155787383Y-134203543D01*
X155656208Y-134095351D01*
X155535720Y-133976400D01*
X155426789Y-133847798D01*
X155330286Y-133710653D01*
X155247081Y-133566073D01*
X155178044Y-133415168D01*
X155124046Y-133259043D01*
X155091364Y-133126741D01*
X155082258Y-133077667D01*
X155073943Y-133025389D01*
X155067507Y-132977153D01*
X155064644Y-132948941D01*
X155058535Y-132872767D01*
X155043762Y-132991300D01*
X155015465Y-133161687D01*
X154974107Y-133321926D01*
X154919239Y-133473164D01*
X154850415Y-133616550D01*
X154767186Y-133753232D01*
X154721984Y-133816801D01*
X154686695Y-133861009D01*
X154641769Y-133912555D01*
X154590583Y-133967943D01*
X154536516Y-134023677D01*
X154482945Y-134076261D01*
X154433248Y-134122199D01*
X154397233Y-134152880D01*
X154252782Y-134259524D01*
X154104020Y-134349836D01*
X153950534Y-134423962D01*
X153791910Y-134482050D01*
X153627734Y-134524247D01*
X153457592Y-134550700D01*
X153281070Y-134561555D01*
X153244749Y-134561867D01*
X153069001Y-134553985D01*
X152899295Y-134530316D01*
X152735546Y-134490825D01*
X152577669Y-134435476D01*
X152425578Y-134364234D01*
X152279189Y-134277064D01*
X152138415Y-134173931D01*
X152003172Y-134054800D01*
X151993850Y-134045803D01*
X151871472Y-133916666D01*
X151764976Y-133782047D01*
X151673989Y-133641213D01*
X151598139Y-133493432D01*
X151537054Y-133337971D01*
X151490361Y-133174097D01*
X151457689Y-133001078D01*
X151455608Y-132986370D01*
X151449633Y-132945841D01*
X151444742Y-132918217D01*
X151441192Y-132904665D01*
X151439241Y-132906351D01*
X151438980Y-132910867D01*
X151434484Y-132971291D01*
X151424244Y-133043306D01*
X151409157Y-133122928D01*
X151390122Y-133206174D01*
X151368039Y-133289060D01*
X151343804Y-133367601D01*
X151322584Y-133426938D01*
X151255828Y-133576678D01*
X151174262Y-133719421D01*
X151078884Y-133854234D01*
X150970694Y-133980189D01*
X150850691Y-134096353D01*
X150719873Y-134201796D01*
X150579241Y-134295587D01*
X150429792Y-134376795D01*
X150272525Y-134444489D01*
X150204818Y-134468522D01*
X150105224Y-134499390D01*
X150012403Y-134522784D01*
X149921193Y-134539562D01*
X149826431Y-134550580D01*
X149722953Y-134556696D01*
X149664367Y-134558216D01*
X149575988Y-134558822D01*
X149502928Y-134557364D01*
X149443689Y-134553790D01*
X149406134Y-134549503D01*
X149229189Y-134515737D01*
X149060235Y-134467050D01*
X148899136Y-134403377D01*
X148745758Y-134324652D01*
X148599965Y-134230811D01*
X148461621Y-134121790D01*
X148400252Y-134066340D01*
X148278117Y-133939874D01*
X148169529Y-133803600D01*
X148074958Y-133658380D01*
X147994872Y-133505080D01*
X147929740Y-133344561D01*
X147880032Y-133177688D01*
X147855892Y-133064437D01*
X147846558Y-132999547D01*
X147839418Y-132923276D01*
X147834643Y-132840673D01*
X147834019Y-132817293D01*
X148159352Y-132817293D01*
X148173554Y-132966106D01*
X148203443Y-133112926D01*
X148249101Y-133256472D01*
X148305918Y-133386173D01*
X148368304Y-133500614D01*
X148436043Y-133603739D01*
X148512581Y-133700212D01*
X148601366Y-133794696D01*
X148624485Y-133817217D01*
X148745653Y-133922189D01*
X148874582Y-134012126D01*
X149011046Y-134086922D01*
X149154817Y-134146471D01*
X149305667Y-134190666D01*
X149463369Y-134219403D01*
X149499267Y-134223673D01*
X149555500Y-134227345D01*
X149623100Y-134227995D01*
X149696816Y-134225860D01*
X149771398Y-134221172D01*
X149841595Y-134214165D01*
X149897560Y-134205915D01*
X150045817Y-134171292D01*
X150188800Y-134122029D01*
X150325431Y-134059094D01*
X150454633Y-133983456D01*
X150575331Y-133896085D01*
X150686449Y-133797950D01*
X150786908Y-133690019D01*
X150875634Y-133573261D01*
X150951550Y-133448647D01*
X151013579Y-133317144D01*
X151060645Y-133179722D01*
X151068027Y-133152167D01*
X151082289Y-133094315D01*
X151093160Y-133044061D01*
X151101080Y-132997429D01*
X151106487Y-132950442D01*
X151109823Y-132899123D01*
X151111526Y-132839496D01*
X151111632Y-132824507D01*
X151770667Y-132824507D01*
X151786985Y-132981822D01*
X151803518Y-133070956D01*
X151842355Y-133212082D01*
X151896793Y-133349223D01*
X151965718Y-133481106D01*
X152048015Y-133606451D01*
X152142568Y-133723984D01*
X152248265Y-133832428D01*
X152363989Y-133930505D01*
X152488626Y-134016940D01*
X152621062Y-134090455D01*
X152738347Y-134141608D01*
X152854383Y-134179070D01*
X152980244Y-134207012D01*
X153111402Y-134224902D01*
X153243331Y-134232207D01*
X153371504Y-134228395D01*
X153428022Y-134222753D01*
X153583859Y-134195480D01*
X153732294Y-134153167D01*
X153873986Y-134095525D01*
X154009596Y-134022263D01*
X154139785Y-133933092D01*
X154202500Y-133882915D01*
X154322209Y-133772870D01*
X154426123Y-133656891D01*
X154514404Y-133534718D01*
X154587212Y-133406091D01*
X154644708Y-133270750D01*
X154687053Y-133128434D01*
X154697557Y-133080748D01*
X154722165Y-132919838D01*
X154730878Y-132760500D01*
X154730410Y-132750000D01*
X155388276Y-132750000D01*
X155388348Y-132815761D01*
X155389013Y-132867993D01*
X155390496Y-132910097D01*
X155393022Y-132945472D01*
X155396816Y-132977520D01*
X155402102Y-133009640D01*
X155407176Y-133035796D01*
X155443264Y-133180048D01*
X155491670Y-133315060D01*
X155553367Y-133442656D01*
X155629326Y-133564657D01*
X155720520Y-133682886D01*
X155798011Y-133768632D01*
X155917107Y-133881576D01*
X156042590Y-133978847D01*
X156174546Y-134060488D01*
X156313059Y-134126544D01*
X156458216Y-134177058D01*
X156610101Y-134212074D01*
X156684471Y-134223270D01*
X156733918Y-134227347D01*
X156795599Y-134229155D01*
X156864994Y-134228856D01*
X156937581Y-134226614D01*
X157008836Y-134222592D01*
X157074239Y-134216953D01*
X157129266Y-134209860D01*
X157147872Y-134206552D01*
X157297931Y-134168693D01*
X157441329Y-134115782D01*
X157578560Y-134047544D01*
X157710117Y-133963704D01*
X157836493Y-133863988D01*
X157942310Y-133764411D01*
X158044380Y-133649535D01*
X158131240Y-133527445D01*
X158202989Y-133397912D01*
X158259727Y-133260709D01*
X158301555Y-133115605D01*
X158328575Y-132962374D01*
X158337842Y-132864581D01*
X158340854Y-132700062D01*
X158327959Y-132541042D01*
X158299208Y-132387706D01*
X158254651Y-132240238D01*
X158194337Y-132098821D01*
X158118316Y-131963641D01*
X158077897Y-131903334D01*
X158040486Y-131854787D01*
X157992752Y-131799572D01*
X157938030Y-131741026D01*
X157879659Y-131682487D01*
X157820975Y-131627292D01*
X157765316Y-131578778D01*
X157716018Y-131540282D01*
X157711934Y-131537371D01*
X157579831Y-131454423D01*
X157439168Y-131385890D01*
X157290931Y-131332205D01*
X157170067Y-131300780D01*
X157140489Y-131294689D01*
X157112993Y-131290017D01*
X157084679Y-131286580D01*
X157052644Y-131284194D01*
X157013987Y-131282676D01*
X156965806Y-131281841D01*
X156905200Y-131281506D01*
X156865267Y-131281468D01*
X156781853Y-131281987D01*
X156711906Y-131283855D01*
X156651982Y-131287540D01*
X156598636Y-131293508D01*
X156548427Y-131302227D01*
X156497908Y-131314164D01*
X156443638Y-131329785D01*
X156395367Y-131345197D01*
X156263588Y-131397142D01*
X156135839Y-131464370D01*
X156013555Y-131545428D01*
X155898173Y-131638867D01*
X155791130Y-131743234D01*
X155693863Y-131857078D01*
X155607809Y-131978947D01*
X155534403Y-132107391D01*
X155475083Y-132240958D01*
X155456099Y-132294056D01*
X155434706Y-132361078D01*
X155418218Y-132420531D01*
X155406033Y-132476460D01*
X155397549Y-132532910D01*
X155392164Y-132593925D01*
X155389277Y-132663551D01*
X155388286Y-132745831D01*
X155388276Y-132750000D01*
X154730410Y-132750000D01*
X154723881Y-132603782D01*
X154701360Y-132450728D01*
X154663500Y-132302385D01*
X154610487Y-132159799D01*
X154542506Y-132024015D01*
X154497023Y-131949900D01*
X154407443Y-131827566D01*
X154306568Y-131714834D01*
X154195936Y-131612786D01*
X154077083Y-131522506D01*
X153951546Y-131445074D01*
X153820863Y-131381575D01*
X153686571Y-131333090D01*
X153584434Y-131307235D01*
X153482100Y-131290398D01*
X153371020Y-131279699D01*
X153256897Y-131275318D01*
X153145436Y-131277434D01*
X153042343Y-131286228D01*
X153019122Y-131289405D01*
X152867891Y-131320182D01*
X152723079Y-131366613D01*
X152584836Y-131428619D01*
X152453314Y-131506125D01*
X152328665Y-131599052D01*
X152220489Y-131697797D01*
X152109695Y-131819700D01*
X152014094Y-131948325D01*
X151933883Y-132083016D01*
X151869263Y-132223117D01*
X151820432Y-132367973D01*
X151787589Y-132516927D01*
X151770934Y-132669323D01*
X151770667Y-132824507D01*
X151111632Y-132824507D01*
X151112037Y-132767583D01*
X151112037Y-132754234D01*
X151110973Y-132665905D01*
X151107498Y-132590140D01*
X151100992Y-132522663D01*
X151090834Y-132459199D01*
X151076403Y-132395473D01*
X151057079Y-132327211D01*
X151043996Y-132285741D01*
X150989646Y-132144942D01*
X150920619Y-132010780D01*
X150838095Y-131884369D01*
X150743251Y-131766820D01*
X150637268Y-131659248D01*
X150521323Y-131562765D01*
X150396595Y-131478483D01*
X150264264Y-131407517D01*
X150125508Y-131350978D01*
X150020397Y-131319342D01*
X149893657Y-131293665D01*
X149758242Y-131278798D01*
X149618579Y-131274819D01*
X149479093Y-131281809D01*
X149344211Y-131299847D01*
X149309674Y-131306515D01*
X149170701Y-131343759D01*
X149035477Y-131396918D01*
X148905151Y-131465173D01*
X148780876Y-131547708D01*
X148663800Y-131643703D01*
X148555074Y-131752342D01*
X148455848Y-131872806D01*
X148398907Y-131954134D01*
X148320733Y-132088063D01*
X148257748Y-132227669D01*
X148210035Y-132371674D01*
X148177676Y-132518798D01*
X148160754Y-132667764D01*
X148159352Y-132817293D01*
X147834019Y-132817293D01*
X147832403Y-132756786D01*
X147832867Y-132676665D01*
G37*
X147832867Y-132676665D02*
X147836205Y-132605358D01*
X147839327Y-132571723D01*
X147867481Y-132396006D01*
X147910691Y-132226520D01*
X147968630Y-132064179D01*
X148040974Y-131909897D01*
X148125226Y-131767867D01*
X148217917Y-131640032D01*
X148322052Y-131518780D01*
X148435417Y-131406117D01*
X148555800Y-131304053D01*
X148680987Y-131214595D01*
X148808766Y-131139751D01*
X148828688Y-131129574D01*
X148958619Y-131070356D01*
X149087673Y-131023819D01*
X149219283Y-130989133D01*
X149356881Y-130965462D01*
X149503896Y-130951974D01*
X149572144Y-130949060D01*
X149712507Y-130948552D01*
X149841970Y-130956053D01*
X149964852Y-130972143D01*
X150085468Y-130997401D01*
X150208135Y-131032408D01*
X150219019Y-131035924D01*
X150374992Y-131095555D01*
X150524428Y-131170190D01*
X150666270Y-131258811D01*
X150799465Y-131360402D01*
X150922957Y-131473944D01*
X151035692Y-131598422D01*
X151136614Y-131732817D01*
X151224669Y-131876112D01*
X151298802Y-132027291D01*
X151331516Y-132108728D01*
X151355667Y-132179814D01*
X151378387Y-132258317D01*
X151398776Y-132340135D01*
X151415939Y-132421169D01*
X151428976Y-132497316D01*
X151436990Y-132564475D01*
X151439048Y-132599973D01*
X151440401Y-132605898D01*
X151443478Y-132596787D01*
X151447884Y-132574407D01*
X151453224Y-132540521D01*
X151454742Y-132529867D01*
X151481562Y-132373158D01*
X151517060Y-132228690D01*
X151562424Y-132093521D01*
X151618838Y-131964705D01*
X151687489Y-131839301D01*
X151769563Y-131714363D01*
X151800512Y-131671770D01*
X151841594Y-131619957D01*
X151891941Y-131561847D01*
X151947897Y-131501262D01*
X152005805Y-131442024D01*
X152062008Y-131387955D01*
X152112850Y-131342875D01*
X152123934Y-131333749D01*
X152262744Y-131231875D01*
X152407886Y-131145614D01*
X152559515Y-131074915D01*
X152717787Y-131019724D01*
X152882858Y-130979986D01*
X153054884Y-130955649D01*
X153234020Y-130946659D01*
X153250000Y-130946601D01*
X153430274Y-130954091D01*
X153602885Y-130976644D01*
X153768139Y-131014383D01*
X153926346Y-131067431D01*
X154077811Y-131135909D01*
X154222843Y-131219942D01*
X154361749Y-131319652D01*
X154494836Y-131435162D01*
X154510445Y-131450106D01*
X154629489Y-131576297D01*
X154735022Y-131711250D01*
X154826335Y-131853848D01*
X154902720Y-132002974D01*
X154963469Y-132157514D01*
X154967618Y-132170034D01*
X154989189Y-132239908D01*
X155006768Y-132306491D01*
X155021498Y-132375018D01*
X155034522Y-132450729D01*
X155045237Y-132525634D01*
X155050569Y-132562714D01*
X155055177Y-132589301D01*
X155058664Y-132603511D01*
X155060632Y-132603465D01*
X155060890Y-132599661D01*
X155063378Y-132565461D01*
X155068901Y-132519483D01*
X155076726Y-132466456D01*
X155086116Y-132411111D01*
X155096336Y-132358179D01*
X155103526Y-132325371D01*
X155145461Y-132179527D01*
X155202734Y-132033637D01*
X155273979Y-131890437D01*
X155357832Y-131752661D01*
X155452927Y-131623047D01*
X155455910Y-131619349D01*
X155496812Y-131571663D01*
X155546515Y-131518235D01*
X155601489Y-131462507D01*
X155658203Y-131407919D01*
X155713127Y-131357915D01*
X155762730Y-131315937D01*
X155784457Y-131299015D01*
X155928250Y-131201054D01*
X156076828Y-131119223D01*
X156230605Y-131053386D01*
X156389995Y-131003406D01*
X156555410Y-130969147D01*
X156727264Y-130950473D01*
X156853334Y-130946601D01*
X157034231Y-130953871D01*
X157206809Y-130975810D01*
X157371535Y-131012612D01*
X157528877Y-131064470D01*
X157679301Y-131131577D01*
X157823274Y-131214128D01*
X157961264Y-131312314D01*
X158093737Y-131426330D01*
X158154029Y-131485240D01*
X158211417Y-131544858D01*
X158259420Y-131598150D01*
X158301686Y-131649598D01*
X158341868Y-131703685D01*
X158383615Y-131764891D01*
X158391135Y-131776334D01*
X158475247Y-131919511D01*
X158544020Y-132068678D01*
X158597598Y-132224338D01*
X158636123Y-132386997D01*
X158659739Y-132557158D01*
X158668588Y-132735327D01*
X158668667Y-132754265D01*
X158660955Y-132934781D01*
X158637869Y-133108605D01*
X158599480Y-133275524D01*
X158545860Y-133435328D01*
X158477082Y-133587807D01*
X158393219Y-133732749D01*
X158294341Y-133869943D01*
X158280711Y-133886803D01*
X158240778Y-133932506D01*
X158191012Y-133984741D01*
X158135167Y-134039935D01*
X158076997Y-134094513D01*
X158020257Y-134144901D01*
X157968699Y-134187525D01*
X157949000Y-134202619D01*
X157806140Y-134300075D01*
X157661303Y-134381234D01*
X157513006Y-134446610D01*
X157359766Y-134496716D01*
X157200098Y-134532065D01*
X157032520Y-134553172D01*
X156918392Y-134559505D01*
X156750337Y-134558151D01*
X156591138Y-134543460D01*
X156438673Y-134514987D01*
X156290816Y-134472287D01*
X156145444Y-134414913D01*
X156078309Y-134383217D01*
X155928373Y-134299868D01*
X155787383Y-134203543D01*
X155656208Y-134095351D01*
X155535720Y-133976400D01*
X155426789Y-133847798D01*
X155330286Y-133710653D01*
X155247081Y-133566073D01*
X155178044Y-133415168D01*
X155124046Y-133259043D01*
X155091364Y-133126741D01*
X155082258Y-133077667D01*
X155073943Y-133025389D01*
X155067507Y-132977153D01*
X155064644Y-132948941D01*
X155058535Y-132872767D01*
X155043762Y-132991300D01*
X155015465Y-133161687D01*
X154974107Y-133321926D01*
X154919239Y-133473164D01*
X154850415Y-133616550D01*
X154767186Y-133753232D01*
X154721984Y-133816801D01*
X154686695Y-133861009D01*
X154641769Y-133912555D01*
X154590583Y-133967943D01*
X154536516Y-134023677D01*
X154482945Y-134076261D01*
X154433248Y-134122199D01*
X154397233Y-134152880D01*
X154252782Y-134259524D01*
X154104020Y-134349836D01*
X153950534Y-134423962D01*
X153791910Y-134482050D01*
X153627734Y-134524247D01*
X153457592Y-134550700D01*
X153281070Y-134561555D01*
X153244749Y-134561867D01*
X153069001Y-134553985D01*
X152899295Y-134530316D01*
X152735546Y-134490825D01*
X152577669Y-134435476D01*
X152425578Y-134364234D01*
X152279189Y-134277064D01*
X152138415Y-134173931D01*
X152003172Y-134054800D01*
X151993850Y-134045803D01*
X151871472Y-133916666D01*
X151764976Y-133782047D01*
X151673989Y-133641213D01*
X151598139Y-133493432D01*
X151537054Y-133337971D01*
X151490361Y-133174097D01*
X151457689Y-133001078D01*
X151455608Y-132986370D01*
X151449633Y-132945841D01*
X151444742Y-132918217D01*
X151441192Y-132904665D01*
X151439241Y-132906351D01*
X151438980Y-132910867D01*
X151434484Y-132971291D01*
X151424244Y-133043306D01*
X151409157Y-133122928D01*
X151390122Y-133206174D01*
X151368039Y-133289060D01*
X151343804Y-133367601D01*
X151322584Y-133426938D01*
X151255828Y-133576678D01*
X151174262Y-133719421D01*
X151078884Y-133854234D01*
X150970694Y-133980189D01*
X150850691Y-134096353D01*
X150719873Y-134201796D01*
X150579241Y-134295587D01*
X150429792Y-134376795D01*
X150272525Y-134444489D01*
X150204818Y-134468522D01*
X150105224Y-134499390D01*
X150012403Y-134522784D01*
X149921193Y-134539562D01*
X149826431Y-134550580D01*
X149722953Y-134556696D01*
X149664367Y-134558216D01*
X149575988Y-134558822D01*
X149502928Y-134557364D01*
X149443689Y-134553790D01*
X149406134Y-134549503D01*
X149229189Y-134515737D01*
X149060235Y-134467050D01*
X148899136Y-134403377D01*
X148745758Y-134324652D01*
X148599965Y-134230811D01*
X148461621Y-134121790D01*
X148400252Y-134066340D01*
X148278117Y-133939874D01*
X148169529Y-133803600D01*
X148074958Y-133658380D01*
X147994872Y-133505080D01*
X147929740Y-133344561D01*
X147880032Y-133177688D01*
X147855892Y-133064437D01*
X147846558Y-132999547D01*
X147839418Y-132923276D01*
X147834643Y-132840673D01*
X147834019Y-132817293D01*
X148159352Y-132817293D01*
X148173554Y-132966106D01*
X148203443Y-133112926D01*
X148249101Y-133256472D01*
X148305918Y-133386173D01*
X148368304Y-133500614D01*
X148436043Y-133603739D01*
X148512581Y-133700212D01*
X148601366Y-133794696D01*
X148624485Y-133817217D01*
X148745653Y-133922189D01*
X148874582Y-134012126D01*
X149011046Y-134086922D01*
X149154817Y-134146471D01*
X149305667Y-134190666D01*
X149463369Y-134219403D01*
X149499267Y-134223673D01*
X149555500Y-134227345D01*
X149623100Y-134227995D01*
X149696816Y-134225860D01*
X149771398Y-134221172D01*
X149841595Y-134214165D01*
X149897560Y-134205915D01*
X150045817Y-134171292D01*
X150188800Y-134122029D01*
X150325431Y-134059094D01*
X150454633Y-133983456D01*
X150575331Y-133896085D01*
X150686449Y-133797950D01*
X150786908Y-133690019D01*
X150875634Y-133573261D01*
X150951550Y-133448647D01*
X151013579Y-133317144D01*
X151060645Y-133179722D01*
X151068027Y-133152167D01*
X151082289Y-133094315D01*
X151093160Y-133044061D01*
X151101080Y-132997429D01*
X151106487Y-132950442D01*
X151109823Y-132899123D01*
X151111526Y-132839496D01*
X151111632Y-132824507D01*
X151770667Y-132824507D01*
X151786985Y-132981822D01*
X151803518Y-133070956D01*
X151842355Y-133212082D01*
X151896793Y-133349223D01*
X151965718Y-133481106D01*
X152048015Y-133606451D01*
X152142568Y-133723984D01*
X152248265Y-133832428D01*
X152363989Y-133930505D01*
X152488626Y-134016940D01*
X152621062Y-134090455D01*
X152738347Y-134141608D01*
X152854383Y-134179070D01*
X152980244Y-134207012D01*
X153111402Y-134224902D01*
X153243331Y-134232207D01*
X153371504Y-134228395D01*
X153428022Y-134222753D01*
X153583859Y-134195480D01*
X153732294Y-134153167D01*
X153873986Y-134095525D01*
X154009596Y-134022263D01*
X154139785Y-133933092D01*
X154202500Y-133882915D01*
X154322209Y-133772870D01*
X154426123Y-133656891D01*
X154514404Y-133534718D01*
X154587212Y-133406091D01*
X154644708Y-133270750D01*
X154687053Y-133128434D01*
X154697557Y-133080748D01*
X154722165Y-132919838D01*
X154730878Y-132760500D01*
X154730410Y-132750000D01*
X155388276Y-132750000D01*
X155388348Y-132815761D01*
X155389013Y-132867993D01*
X155390496Y-132910097D01*
X155393022Y-132945472D01*
X155396816Y-132977520D01*
X155402102Y-133009640D01*
X155407176Y-133035796D01*
X155443264Y-133180048D01*
X155491670Y-133315060D01*
X155553367Y-133442656D01*
X155629326Y-133564657D01*
X155720520Y-133682886D01*
X155798011Y-133768632D01*
X155917107Y-133881576D01*
X156042590Y-133978847D01*
X156174546Y-134060488D01*
X156313059Y-134126544D01*
X156458216Y-134177058D01*
X156610101Y-134212074D01*
X156684471Y-134223270D01*
X156733918Y-134227347D01*
X156795599Y-134229155D01*
X156864994Y-134228856D01*
X156937581Y-134226614D01*
X157008836Y-134222592D01*
X157074239Y-134216953D01*
X157129266Y-134209860D01*
X157147872Y-134206552D01*
X157297931Y-134168693D01*
X157441329Y-134115782D01*
X157578560Y-134047544D01*
X157710117Y-133963704D01*
X157836493Y-133863988D01*
X157942310Y-133764411D01*
X158044380Y-133649535D01*
X158131240Y-133527445D01*
X158202989Y-133397912D01*
X158259727Y-133260709D01*
X158301555Y-133115605D01*
X158328575Y-132962374D01*
X158337842Y-132864581D01*
X158340854Y-132700062D01*
X158327959Y-132541042D01*
X158299208Y-132387706D01*
X158254651Y-132240238D01*
X158194337Y-132098821D01*
X158118316Y-131963641D01*
X158077897Y-131903334D01*
X158040486Y-131854787D01*
X157992752Y-131799572D01*
X157938030Y-131741026D01*
X157879659Y-131682487D01*
X157820975Y-131627292D01*
X157765316Y-131578778D01*
X157716018Y-131540282D01*
X157711934Y-131537371D01*
X157579831Y-131454423D01*
X157439168Y-131385890D01*
X157290931Y-131332205D01*
X157170067Y-131300780D01*
X157140489Y-131294689D01*
X157112993Y-131290017D01*
X157084679Y-131286580D01*
X157052644Y-131284194D01*
X157013987Y-131282676D01*
X156965806Y-131281841D01*
X156905200Y-131281506D01*
X156865267Y-131281468D01*
X156781853Y-131281987D01*
X156711906Y-131283855D01*
X156651982Y-131287540D01*
X156598636Y-131293508D01*
X156548427Y-131302227D01*
X156497908Y-131314164D01*
X156443638Y-131329785D01*
X156395367Y-131345197D01*
X156263588Y-131397142D01*
X156135839Y-131464370D01*
X156013555Y-131545428D01*
X155898173Y-131638867D01*
X155791130Y-131743234D01*
X155693863Y-131857078D01*
X155607809Y-131978947D01*
X155534403Y-132107391D01*
X155475083Y-132240958D01*
X155456099Y-132294056D01*
X155434706Y-132361078D01*
X155418218Y-132420531D01*
X155406033Y-132476460D01*
X155397549Y-132532910D01*
X155392164Y-132593925D01*
X155389277Y-132663551D01*
X155388286Y-132745831D01*
X155388276Y-132750000D01*
X154730410Y-132750000D01*
X154723881Y-132603782D01*
X154701360Y-132450728D01*
X154663500Y-132302385D01*
X154610487Y-132159799D01*
X154542506Y-132024015D01*
X154497023Y-131949900D01*
X154407443Y-131827566D01*
X154306568Y-131714834D01*
X154195936Y-131612786D01*
X154077083Y-131522506D01*
X153951546Y-131445074D01*
X153820863Y-131381575D01*
X153686571Y-131333090D01*
X153584434Y-131307235D01*
X153482100Y-131290398D01*
X153371020Y-131279699D01*
X153256897Y-131275318D01*
X153145436Y-131277434D01*
X153042343Y-131286228D01*
X153019122Y-131289405D01*
X152867891Y-131320182D01*
X152723079Y-131366613D01*
X152584836Y-131428619D01*
X152453314Y-131506125D01*
X152328665Y-131599052D01*
X152220489Y-131697797D01*
X152109695Y-131819700D01*
X152014094Y-131948325D01*
X151933883Y-132083016D01*
X151869263Y-132223117D01*
X151820432Y-132367973D01*
X151787589Y-132516927D01*
X151770934Y-132669323D01*
X151770667Y-132824507D01*
X151111632Y-132824507D01*
X151112037Y-132767583D01*
X151112037Y-132754234D01*
X151110973Y-132665905D01*
X151107498Y-132590140D01*
X151100992Y-132522663D01*
X151090834Y-132459199D01*
X151076403Y-132395473D01*
X151057079Y-132327211D01*
X151043996Y-132285741D01*
X150989646Y-132144942D01*
X150920619Y-132010780D01*
X150838095Y-131884369D01*
X150743251Y-131766820D01*
X150637268Y-131659248D01*
X150521323Y-131562765D01*
X150396595Y-131478483D01*
X150264264Y-131407517D01*
X150125508Y-131350978D01*
X150020397Y-131319342D01*
X149893657Y-131293665D01*
X149758242Y-131278798D01*
X149618579Y-131274819D01*
X149479093Y-131281809D01*
X149344211Y-131299847D01*
X149309674Y-131306515D01*
X149170701Y-131343759D01*
X149035477Y-131396918D01*
X148905151Y-131465173D01*
X148780876Y-131547708D01*
X148663800Y-131643703D01*
X148555074Y-131752342D01*
X148455848Y-131872806D01*
X148398907Y-131954134D01*
X148320733Y-132088063D01*
X148257748Y-132227669D01*
X148210035Y-132371674D01*
X148177676Y-132518798D01*
X148160754Y-132667764D01*
X148159352Y-132817293D01*
X147834019Y-132817293D01*
X147832403Y-132756786D01*
X147832867Y-132676665D01*
X149236889Y-132200457D02*
X149253734Y-132203144D01*
X149253734Y-132203144D02*
X149325587Y-132220558D01*
X149325587Y-132220558D02*
X149395625Y-132246887D01*
X149395625Y-132246887D02*
X149458749Y-132279885D01*
X149458749Y-132279885D02*
X149506977Y-132314759D01*
X149506977Y-132314759D02*
X149529737Y-132336730D01*
X149529737Y-132336730D02*
X149553603Y-132363275D01*
X149553603Y-132363275D02*
X149576200Y-132391233D01*
X149576200Y-132391233D02*
X149595151Y-132417444D01*
X149595151Y-132417444D02*
X149608079Y-132438748D01*
X149608079Y-132438748D02*
X149612607Y-132451982D01*
X149612607Y-132451982D02*
X149611773Y-132454117D01*
X149611773Y-132454117D02*
X149602280Y-132460016D01*
X149602280Y-132460016D02*
X149580527Y-132472191D01*
X149580527Y-132472191D02*
X149549289Y-132489127D01*
X149549289Y-132489127D02*
X149511343Y-132509312D01*
X149511343Y-132509312D02*
X149490051Y-132520500D01*
X149490051Y-132520500D02*
X149375003Y-132580706D01*
X149375003Y-132580706D02*
X149365824Y-132560562D01*
X149365824Y-132560562D02*
X149336023Y-132514472D01*
X149336023Y-132514472D02*
X149294861Y-132478106D01*
X149294861Y-132478106D02*
X149245572Y-132452605D01*
X149245572Y-132452605D02*
X149191391Y-132439107D01*
X149191391Y-132439107D02*
X149135554Y-132438754D01*
X149135554Y-132438754D02*
X149081294Y-132452684D01*
X149081294Y-132452684D02*
X149071700Y-132456912D01*
X149071700Y-132456912D02*
X149026620Y-132484380D01*
X149026620Y-132484380D02*
X148991781Y-132520275D01*
X148991781Y-132520275D02*
X148965976Y-132566609D01*
X148965976Y-132566609D02*
X148948000Y-132625388D01*
X148948000Y-132625388D02*
X148939070Y-132677744D01*
X148939070Y-132677744D02*
X148934182Y-132757812D01*
X148934182Y-132757812D02*
X148940177Y-132833030D01*
X148940177Y-132833030D02*
X148956351Y-132901403D01*
X148956351Y-132901403D02*
X148982003Y-132960938D01*
X148982003Y-132960938D02*
X149016430Y-133009643D01*
X149016430Y-133009643D02*
X149058929Y-133045523D01*
X149058929Y-133045523D02*
X149071118Y-133052455D01*
X149071118Y-133052455D02*
X149100998Y-133062396D01*
X149100998Y-133062396D02*
X149141074Y-133068533D01*
X149141074Y-133068533D02*
X149184957Y-133070478D01*
X149184957Y-133070478D02*
X149226257Y-133067843D01*
X149226257Y-133067843D02*
X149249479Y-133063273D01*
X149249479Y-133063273D02*
X149287022Y-133046388D01*
X149287022Y-133046388D02*
X149325478Y-133018607D01*
X149325478Y-133018607D02*
X149359237Y-132984658D01*
X149359237Y-132984658D02*
X149381249Y-132952190D01*
X149381249Y-132952190D02*
X149397990Y-132919375D01*
X149397990Y-132919375D02*
X149507895Y-132974448D01*
X149507895Y-132974448D02*
X149546839Y-132994450D01*
X149546839Y-132994450D02*
X149579714Y-133012265D01*
X149579714Y-133012265D02*
X149603838Y-133026365D01*
X149603838Y-133026365D02*
X149616526Y-133035223D01*
X149616526Y-133035223D02*
X149617800Y-133036996D01*
X149617800Y-133036996D02*
X149612345Y-133050136D01*
X149612345Y-133050136D02*
X149597790Y-133072055D01*
X149597790Y-133072055D02*
X149576847Y-133099399D01*
X149576847Y-133099399D02*
X149552230Y-133128817D01*
X149552230Y-133128817D02*
X149526653Y-133156956D01*
X149526653Y-133156956D02*
X149502827Y-133180463D01*
X149502827Y-133180463D02*
X149498739Y-133184114D01*
X149498739Y-133184114D02*
X149443542Y-133225316D01*
X149443542Y-133225316D02*
X149379203Y-133262035D01*
X149379203Y-133262035D02*
X149313511Y-133289986D01*
X149313511Y-133289986D02*
X149296067Y-133295619D01*
X149296067Y-133295619D02*
X149248526Y-133305692D01*
X149248526Y-133305692D02*
X149190906Y-133311753D01*
X149190906Y-133311753D02*
X149129629Y-133313570D01*
X149129629Y-133313570D02*
X149071122Y-133310915D01*
X149071122Y-133310915D02*
X149029367Y-133305169D01*
X149029367Y-133305169D02*
X148952769Y-133286065D01*
X148952769Y-133286065D02*
X148887896Y-133260473D01*
X148887896Y-133260473D02*
X148830061Y-133226080D01*
X148830061Y-133226080D02*
X148774578Y-133180574D01*
X148774578Y-133180574D02*
X148771943Y-133178118D01*
X148771943Y-133178118D02*
X148716031Y-133117104D01*
X148716031Y-133117104D02*
X148672962Y-133050091D01*
X148672962Y-133050091D02*
X148641914Y-132975086D01*
X148641914Y-132975086D02*
X148622064Y-132890097D01*
X148622064Y-132890097D02*
X148612591Y-132793135D01*
X148612591Y-132793135D02*
X148612545Y-132792067D01*
X148612545Y-132792067D02*
X148611059Y-132734005D01*
X148611059Y-132734005D02*
X148612446Y-132686736D01*
X148612446Y-132686736D02*
X148617035Y-132644310D01*
X148617035Y-132644310D02*
X148622335Y-132614267D01*
X148622335Y-132614267D02*
X148648684Y-132522036D01*
X148648684Y-132522036D02*
X148688181Y-132439632D01*
X148688181Y-132439632D02*
X148739685Y-132367801D01*
X148739685Y-132367801D02*
X148802053Y-132307285D01*
X148802053Y-132307285D02*
X148874143Y-132258827D01*
X148874143Y-132258827D02*
X148954814Y-132223172D01*
X148954814Y-132223172D02*
X149042923Y-132201063D01*
X149042923Y-132201063D02*
X149137328Y-132193244D01*
X149137328Y-132193244D02*
X149236889Y-132200457D01*
X149236889Y-132200457D02*
X149236889Y-132200457D01*
G36*
X149236889Y-132200457D02*
G01*
X149253734Y-132203144D01*
X149325587Y-132220558D01*
X149395625Y-132246887D01*
X149458749Y-132279885D01*
X149506977Y-132314759D01*
X149529737Y-132336730D01*
X149553603Y-132363275D01*
X149576200Y-132391233D01*
X149595151Y-132417444D01*
X149608079Y-132438748D01*
X149612607Y-132451982D01*
X149611773Y-132454117D01*
X149602280Y-132460016D01*
X149580527Y-132472191D01*
X149549289Y-132489127D01*
X149511343Y-132509312D01*
X149490051Y-132520500D01*
X149375003Y-132580706D01*
X149365824Y-132560562D01*
X149336023Y-132514472D01*
X149294861Y-132478106D01*
X149245572Y-132452605D01*
X149191391Y-132439107D01*
X149135554Y-132438754D01*
X149081294Y-132452684D01*
X149071700Y-132456912D01*
X149026620Y-132484380D01*
X148991781Y-132520275D01*
X148965976Y-132566609D01*
X148948000Y-132625388D01*
X148939070Y-132677744D01*
X148934182Y-132757812D01*
X148940177Y-132833030D01*
X148956351Y-132901403D01*
X148982003Y-132960938D01*
X149016430Y-133009643D01*
X149058929Y-133045523D01*
X149071118Y-133052455D01*
X149100998Y-133062396D01*
X149141074Y-133068533D01*
X149184957Y-133070478D01*
X149226257Y-133067843D01*
X149249479Y-133063273D01*
X149287022Y-133046388D01*
X149325478Y-133018607D01*
X149359237Y-132984658D01*
X149381249Y-132952190D01*
X149397990Y-132919375D01*
X149507895Y-132974448D01*
X149546839Y-132994450D01*
X149579714Y-133012265D01*
X149603838Y-133026365D01*
X149616526Y-133035223D01*
X149617800Y-133036996D01*
X149612345Y-133050136D01*
X149597790Y-133072055D01*
X149576847Y-133099399D01*
X149552230Y-133128817D01*
X149526653Y-133156956D01*
X149502827Y-133180463D01*
X149498739Y-133184114D01*
X149443542Y-133225316D01*
X149379203Y-133262035D01*
X149313511Y-133289986D01*
X149296067Y-133295619D01*
X149248526Y-133305692D01*
X149190906Y-133311753D01*
X149129629Y-133313570D01*
X149071122Y-133310915D01*
X149029367Y-133305169D01*
X148952769Y-133286065D01*
X148887896Y-133260473D01*
X148830061Y-133226080D01*
X148774578Y-133180574D01*
X148771943Y-133178118D01*
X148716031Y-133117104D01*
X148672962Y-133050091D01*
X148641914Y-132975086D01*
X148622064Y-132890097D01*
X148612591Y-132793135D01*
X148612545Y-132792067D01*
X148611059Y-132734005D01*
X148612446Y-132686736D01*
X148617035Y-132644310D01*
X148622335Y-132614267D01*
X148648684Y-132522036D01*
X148688181Y-132439632D01*
X148739685Y-132367801D01*
X148802053Y-132307285D01*
X148874143Y-132258827D01*
X148954814Y-132223172D01*
X149042923Y-132201063D01*
X149137328Y-132193244D01*
X149236889Y-132200457D01*
G37*
X149236889Y-132200457D02*
X149253734Y-132203144D01*
X149325587Y-132220558D01*
X149395625Y-132246887D01*
X149458749Y-132279885D01*
X149506977Y-132314759D01*
X149529737Y-132336730D01*
X149553603Y-132363275D01*
X149576200Y-132391233D01*
X149595151Y-132417444D01*
X149608079Y-132438748D01*
X149612607Y-132451982D01*
X149611773Y-132454117D01*
X149602280Y-132460016D01*
X149580527Y-132472191D01*
X149549289Y-132489127D01*
X149511343Y-132509312D01*
X149490051Y-132520500D01*
X149375003Y-132580706D01*
X149365824Y-132560562D01*
X149336023Y-132514472D01*
X149294861Y-132478106D01*
X149245572Y-132452605D01*
X149191391Y-132439107D01*
X149135554Y-132438754D01*
X149081294Y-132452684D01*
X149071700Y-132456912D01*
X149026620Y-132484380D01*
X148991781Y-132520275D01*
X148965976Y-132566609D01*
X148948000Y-132625388D01*
X148939070Y-132677744D01*
X148934182Y-132757812D01*
X148940177Y-132833030D01*
X148956351Y-132901403D01*
X148982003Y-132960938D01*
X149016430Y-133009643D01*
X149058929Y-133045523D01*
X149071118Y-133052455D01*
X149100998Y-133062396D01*
X149141074Y-133068533D01*
X149184957Y-133070478D01*
X149226257Y-133067843D01*
X149249479Y-133063273D01*
X149287022Y-133046388D01*
X149325478Y-133018607D01*
X149359237Y-132984658D01*
X149381249Y-132952190D01*
X149397990Y-132919375D01*
X149507895Y-132974448D01*
X149546839Y-132994450D01*
X149579714Y-133012265D01*
X149603838Y-133026365D01*
X149616526Y-133035223D01*
X149617800Y-133036996D01*
X149612345Y-133050136D01*
X149597790Y-133072055D01*
X149576847Y-133099399D01*
X149552230Y-133128817D01*
X149526653Y-133156956D01*
X149502827Y-133180463D01*
X149498739Y-133184114D01*
X149443542Y-133225316D01*
X149379203Y-133262035D01*
X149313511Y-133289986D01*
X149296067Y-133295619D01*
X149248526Y-133305692D01*
X149190906Y-133311753D01*
X149129629Y-133313570D01*
X149071122Y-133310915D01*
X149029367Y-133305169D01*
X148952769Y-133286065D01*
X148887896Y-133260473D01*
X148830061Y-133226080D01*
X148774578Y-133180574D01*
X148771943Y-133178118D01*
X148716031Y-133117104D01*
X148672962Y-133050091D01*
X148641914Y-132975086D01*
X148622064Y-132890097D01*
X148612591Y-132793135D01*
X148612545Y-132792067D01*
X148611059Y-132734005D01*
X148612446Y-132686736D01*
X148617035Y-132644310D01*
X148622335Y-132614267D01*
X148648684Y-132522036D01*
X148688181Y-132439632D01*
X148739685Y-132367801D01*
X148802053Y-132307285D01*
X148874143Y-132258827D01*
X148954814Y-132223172D01*
X149042923Y-132201063D01*
X149137328Y-132193244D01*
X149236889Y-132200457D01*
X150282161Y-132201162D02*
X150363079Y-132215689D01*
X150363079Y-132215689D02*
X150434520Y-132240952D01*
X150434520Y-132240952D02*
X150498951Y-132277870D01*
X150498951Y-132277870D02*
X150558838Y-132327366D01*
X150558838Y-132327366D02*
X150570300Y-132338665D01*
X150570300Y-132338665D02*
X150597679Y-132367562D01*
X150597679Y-132367562D02*
X150621879Y-132395248D01*
X150621879Y-132395248D02*
X150639326Y-132417540D01*
X150639326Y-132417540D02*
X150644547Y-132425618D01*
X150644547Y-132425618D02*
X150659528Y-132452602D01*
X150659528Y-132452602D02*
X150585281Y-132492353D01*
X150585281Y-132492353D02*
X150547285Y-132512753D01*
X150547285Y-132512753D02*
X150509199Y-132533297D01*
X150509199Y-132533297D02*
X150477248Y-132550624D01*
X150477248Y-132550624D02*
X150467266Y-132556073D01*
X150467266Y-132556073D02*
X150423498Y-132580042D01*
X150423498Y-132580042D02*
X150397680Y-132539809D01*
X150397680Y-132539809D02*
X150359356Y-132493973D01*
X150359356Y-132493973D02*
X150313522Y-132461419D01*
X150313522Y-132461419D02*
X150262745Y-132441962D01*
X150262745Y-132441962D02*
X150209593Y-132435418D01*
X150209593Y-132435418D02*
X150156634Y-132441600D01*
X150156634Y-132441600D02*
X150106435Y-132460325D01*
X150106435Y-132460325D02*
X150061564Y-132491407D01*
X150061564Y-132491407D02*
X150024587Y-132534663D01*
X150024587Y-132534663D02*
X150006551Y-132567967D01*
X150006551Y-132567967D02*
X149994975Y-132603527D01*
X149994975Y-132603527D02*
X149985566Y-132650138D01*
X149985566Y-132650138D02*
X149979043Y-132701981D01*
X149979043Y-132701981D02*
X149976125Y-132753236D01*
X149976125Y-132753236D02*
X149977532Y-132798082D01*
X149977532Y-132798082D02*
X149977792Y-132800658D01*
X149977792Y-132800658D02*
X149988814Y-132869925D01*
X149988814Y-132869925D02*
X150006404Y-132926376D01*
X150006404Y-132926376D02*
X150031873Y-132973294D01*
X150031873Y-132973294D02*
X150060765Y-133008198D01*
X150060765Y-133008198D02*
X150100300Y-133042947D01*
X150100300Y-133042947D02*
X150135287Y-133061455D01*
X150135287Y-133061455D02*
X150138500Y-133062405D01*
X150138500Y-133062405D02*
X150183483Y-133069890D01*
X150183483Y-133069890D02*
X150233962Y-133070943D01*
X150233962Y-133070943D02*
X150281110Y-133065605D01*
X150281110Y-133065605D02*
X150297130Y-133061669D01*
X150297130Y-133061669D02*
X150328355Y-133046759D01*
X150328355Y-133046759D02*
X150362672Y-133021870D01*
X150362672Y-133021870D02*
X150394715Y-132991695D01*
X150394715Y-132991695D02*
X150419121Y-132960927D01*
X150419121Y-132960927D02*
X150425678Y-132949223D01*
X150425678Y-132949223D02*
X150439755Y-132919558D01*
X150439755Y-132919558D02*
X150549478Y-132974540D01*
X150549478Y-132974540D02*
X150588414Y-132994665D01*
X150588414Y-132994665D02*
X150621269Y-133012818D01*
X150621269Y-133012818D02*
X150645351Y-133027418D01*
X150645351Y-133027418D02*
X150657967Y-133036888D01*
X150657967Y-133036888D02*
X150659200Y-133038910D01*
X150659200Y-133038910D02*
X150653540Y-133053524D01*
X150653540Y-133053524D02*
X150638269Y-133076700D01*
X150638269Y-133076700D02*
X150615950Y-133105230D01*
X150615950Y-133105230D02*
X150589147Y-133135908D01*
X150589147Y-133135908D02*
X150560422Y-133165525D01*
X150560422Y-133165525D02*
X150550476Y-133174966D01*
X150550476Y-133174966D02*
X150495731Y-133218037D01*
X150495731Y-133218037D02*
X150431240Y-133256629D01*
X150431240Y-133256629D02*
X150364183Y-133286672D01*
X150364183Y-133286672D02*
X150337467Y-133295619D01*
X150337467Y-133295619D02*
X150290552Y-133305565D01*
X150290552Y-133305565D02*
X150233460Y-133311630D01*
X150233460Y-133311630D02*
X150172550Y-133313579D01*
X150172550Y-133313579D02*
X150114180Y-133311178D01*
X150114180Y-133311178D02*
X150070767Y-133305437D01*
X150070767Y-133305437D02*
X149978536Y-133279798D01*
X149978536Y-133279798D02*
X149896558Y-133240815D01*
X149896558Y-133240815D02*
X149825392Y-133189008D01*
X149825392Y-133189008D02*
X149765600Y-133124897D01*
X149765600Y-133124897D02*
X149717742Y-133049000D01*
X149717742Y-133049000D02*
X149682376Y-132961838D01*
X149682376Y-132961838D02*
X149675708Y-132938925D01*
X149675708Y-132938925D02*
X149665656Y-132888129D01*
X149665656Y-132888129D02*
X149659274Y-132827137D01*
X149659274Y-132827137D02*
X149656626Y-132761302D01*
X149656626Y-132761302D02*
X149657777Y-132695977D01*
X149657777Y-132695977D02*
X149662792Y-132636515D01*
X149662792Y-132636515D02*
X149671504Y-132589134D01*
X149671504Y-132589134D02*
X149698366Y-132508000D01*
X149698366Y-132508000D02*
X149734197Y-132438086D01*
X149734197Y-132438086D02*
X149781517Y-132374955D01*
X149781517Y-132374955D02*
X149810550Y-132344273D01*
X149810550Y-132344273D02*
X149871254Y-132290475D01*
X149871254Y-132290475D02*
X149932242Y-132250165D01*
X149932242Y-132250165D02*
X149996855Y-132222039D01*
X149996855Y-132222039D02*
X150068432Y-132204795D01*
X150068432Y-132204795D02*
X150150314Y-132197127D01*
X150150314Y-132197127D02*
X150189300Y-132196450D01*
X150189300Y-132196450D02*
X150282161Y-132201162D01*
X150282161Y-132201162D02*
X150282161Y-132201162D01*
G36*
X150282161Y-132201162D02*
G01*
X150363079Y-132215689D01*
X150434520Y-132240952D01*
X150498951Y-132277870D01*
X150558838Y-132327366D01*
X150570300Y-132338665D01*
X150597679Y-132367562D01*
X150621879Y-132395248D01*
X150639326Y-132417540D01*
X150644547Y-132425618D01*
X150659528Y-132452602D01*
X150585281Y-132492353D01*
X150547285Y-132512753D01*
X150509199Y-132533297D01*
X150477248Y-132550624D01*
X150467266Y-132556073D01*
X150423498Y-132580042D01*
X150397680Y-132539809D01*
X150359356Y-132493973D01*
X150313522Y-132461419D01*
X150262745Y-132441962D01*
X150209593Y-132435418D01*
X150156634Y-132441600D01*
X150106435Y-132460325D01*
X150061564Y-132491407D01*
X150024587Y-132534663D01*
X150006551Y-132567967D01*
X149994975Y-132603527D01*
X149985566Y-132650138D01*
X149979043Y-132701981D01*
X149976125Y-132753236D01*
X149977532Y-132798082D01*
X149977792Y-132800658D01*
X149988814Y-132869925D01*
X150006404Y-132926376D01*
X150031873Y-132973294D01*
X150060765Y-133008198D01*
X150100300Y-133042947D01*
X150135287Y-133061455D01*
X150138500Y-133062405D01*
X150183483Y-133069890D01*
X150233962Y-133070943D01*
X150281110Y-133065605D01*
X150297130Y-133061669D01*
X150328355Y-133046759D01*
X150362672Y-133021870D01*
X150394715Y-132991695D01*
X150419121Y-132960927D01*
X150425678Y-132949223D01*
X150439755Y-132919558D01*
X150549478Y-132974540D01*
X150588414Y-132994665D01*
X150621269Y-133012818D01*
X150645351Y-133027418D01*
X150657967Y-133036888D01*
X150659200Y-133038910D01*
X150653540Y-133053524D01*
X150638269Y-133076700D01*
X150615950Y-133105230D01*
X150589147Y-133135908D01*
X150560422Y-133165525D01*
X150550476Y-133174966D01*
X150495731Y-133218037D01*
X150431240Y-133256629D01*
X150364183Y-133286672D01*
X150337467Y-133295619D01*
X150290552Y-133305565D01*
X150233460Y-133311630D01*
X150172550Y-133313579D01*
X150114180Y-133311178D01*
X150070767Y-133305437D01*
X149978536Y-133279798D01*
X149896558Y-133240815D01*
X149825392Y-133189008D01*
X149765600Y-133124897D01*
X149717742Y-133049000D01*
X149682376Y-132961838D01*
X149675708Y-132938925D01*
X149665656Y-132888129D01*
X149659274Y-132827137D01*
X149656626Y-132761302D01*
X149657777Y-132695977D01*
X149662792Y-132636515D01*
X149671504Y-132589134D01*
X149698366Y-132508000D01*
X149734197Y-132438086D01*
X149781517Y-132374955D01*
X149810550Y-132344273D01*
X149871254Y-132290475D01*
X149932242Y-132250165D01*
X149996855Y-132222039D01*
X150068432Y-132204795D01*
X150150314Y-132197127D01*
X150189300Y-132196450D01*
X150282161Y-132201162D01*
G37*
X150282161Y-132201162D02*
X150363079Y-132215689D01*
X150434520Y-132240952D01*
X150498951Y-132277870D01*
X150558838Y-132327366D01*
X150570300Y-132338665D01*
X150597679Y-132367562D01*
X150621879Y-132395248D01*
X150639326Y-132417540D01*
X150644547Y-132425618D01*
X150659528Y-132452602D01*
X150585281Y-132492353D01*
X150547285Y-132512753D01*
X150509199Y-132533297D01*
X150477248Y-132550624D01*
X150467266Y-132556073D01*
X150423498Y-132580042D01*
X150397680Y-132539809D01*
X150359356Y-132493973D01*
X150313522Y-132461419D01*
X150262745Y-132441962D01*
X150209593Y-132435418D01*
X150156634Y-132441600D01*
X150106435Y-132460325D01*
X150061564Y-132491407D01*
X150024587Y-132534663D01*
X150006551Y-132567967D01*
X149994975Y-132603527D01*
X149985566Y-132650138D01*
X149979043Y-132701981D01*
X149976125Y-132753236D01*
X149977532Y-132798082D01*
X149977792Y-132800658D01*
X149988814Y-132869925D01*
X150006404Y-132926376D01*
X150031873Y-132973294D01*
X150060765Y-133008198D01*
X150100300Y-133042947D01*
X150135287Y-133061455D01*
X150138500Y-133062405D01*
X150183483Y-133069890D01*
X150233962Y-133070943D01*
X150281110Y-133065605D01*
X150297130Y-133061669D01*
X150328355Y-133046759D01*
X150362672Y-133021870D01*
X150394715Y-132991695D01*
X150419121Y-132960927D01*
X150425678Y-132949223D01*
X150439755Y-132919558D01*
X150549478Y-132974540D01*
X150588414Y-132994665D01*
X150621269Y-133012818D01*
X150645351Y-133027418D01*
X150657967Y-133036888D01*
X150659200Y-133038910D01*
X150653540Y-133053524D01*
X150638269Y-133076700D01*
X150615950Y-133105230D01*
X150589147Y-133135908D01*
X150560422Y-133165525D01*
X150550476Y-133174966D01*
X150495731Y-133218037D01*
X150431240Y-133256629D01*
X150364183Y-133286672D01*
X150337467Y-133295619D01*
X150290552Y-133305565D01*
X150233460Y-133311630D01*
X150172550Y-133313579D01*
X150114180Y-133311178D01*
X150070767Y-133305437D01*
X149978536Y-133279798D01*
X149896558Y-133240815D01*
X149825392Y-133189008D01*
X149765600Y-133124897D01*
X149717742Y-133049000D01*
X149682376Y-132961838D01*
X149675708Y-132938925D01*
X149665656Y-132888129D01*
X149659274Y-132827137D01*
X149656626Y-132761302D01*
X149657777Y-132695977D01*
X149662792Y-132636515D01*
X149671504Y-132589134D01*
X149698366Y-132508000D01*
X149734197Y-132438086D01*
X149781517Y-132374955D01*
X149810550Y-132344273D01*
X149871254Y-132290475D01*
X149932242Y-132250165D01*
X149996855Y-132222039D01*
X150068432Y-132204795D01*
X150150314Y-132197127D01*
X150189300Y-132196450D01*
X150282161Y-132201162D01*
X153345940Y-132191214D02*
X153426439Y-132191356D01*
X153426439Y-132191356D02*
X153492992Y-132191779D01*
X153492992Y-132191779D02*
X153547091Y-132192636D01*
X153547091Y-132192636D02*
X153590230Y-132194080D01*
X153590230Y-132194080D02*
X153623902Y-132196263D01*
X153623902Y-132196263D02*
X153649600Y-132199338D01*
X153649600Y-132199338D02*
X153668818Y-132203457D01*
X153668818Y-132203457D02*
X153683048Y-132208774D01*
X153683048Y-132208774D02*
X153693784Y-132215441D01*
X153693784Y-132215441D02*
X153702519Y-132223611D01*
X153702519Y-132223611D02*
X153710747Y-132233436D01*
X153710747Y-132233436D02*
X153714919Y-132238740D01*
X153714919Y-132238740D02*
X153719049Y-132244393D01*
X153719049Y-132244393D02*
X153722480Y-132250922D01*
X153722480Y-132250922D02*
X153725277Y-132259846D01*
X153725277Y-132259846D02*
X153727505Y-132272686D01*
X153727505Y-132272686D02*
X153729228Y-132290961D01*
X153729228Y-132290961D02*
X153730511Y-132316190D01*
X153730511Y-132316190D02*
X153731419Y-132349893D01*
X153731419Y-132349893D02*
X153732017Y-132393590D01*
X153732017Y-132393590D02*
X153732369Y-132448800D01*
X153732369Y-132448800D02*
X153732541Y-132517044D01*
X153732541Y-132517044D02*
X153732596Y-132599840D01*
X153732596Y-132599840D02*
X153732600Y-132653776D01*
X153732600Y-132653776D02*
X153732600Y-133046334D01*
X153732600Y-133046334D02*
X153529400Y-133046334D01*
X153529400Y-133046334D02*
X153529400Y-133918401D01*
X153529400Y-133918401D02*
X152970600Y-133918401D01*
X152970600Y-133918401D02*
X152970600Y-133046334D01*
X152970600Y-133046334D02*
X152767400Y-133046334D01*
X152767400Y-133046334D02*
X152767400Y-132653776D01*
X152767400Y-132653776D02*
X152767418Y-132562061D01*
X152767418Y-132562061D02*
X152767516Y-132485760D01*
X152767516Y-132485760D02*
X152767758Y-132423354D01*
X152767758Y-132423354D02*
X152768208Y-132373321D01*
X152768208Y-132373321D02*
X152768933Y-132334144D01*
X152768933Y-132334144D02*
X152769996Y-132304301D01*
X152769996Y-132304301D02*
X152771462Y-132282273D01*
X152771462Y-132282273D02*
X152773396Y-132266542D01*
X152773396Y-132266542D02*
X152775862Y-132255586D01*
X152775862Y-132255586D02*
X152778926Y-132247886D01*
X152778926Y-132247886D02*
X152782652Y-132241924D01*
X152782652Y-132241924D02*
X152785081Y-132238740D01*
X152785081Y-132238740D02*
X152793592Y-132228073D01*
X152793592Y-132228073D02*
X152801900Y-132219134D01*
X152801900Y-132219134D02*
X152811497Y-132211771D01*
X152811497Y-132211771D02*
X152823877Y-132205830D01*
X152823877Y-132205830D02*
X152840534Y-132201159D01*
X152840534Y-132201159D02*
X152862961Y-132197606D01*
X152862961Y-132197606D02*
X152892650Y-132195017D01*
X152892650Y-132195017D02*
X152931096Y-132193241D01*
X152931096Y-132193241D02*
X152979790Y-132192123D01*
X152979790Y-132192123D02*
X153040228Y-132191513D01*
X153040228Y-132191513D02*
X153113901Y-132191256D01*
X153113901Y-132191256D02*
X153202304Y-132191201D01*
X153202304Y-132191201D02*
X153250000Y-132191201D01*
X153250000Y-132191201D02*
X153345940Y-132191214D01*
X153345940Y-132191214D02*
X153345940Y-132191214D01*
G36*
X153345940Y-132191214D02*
G01*
X153426439Y-132191356D01*
X153492992Y-132191779D01*
X153547091Y-132192636D01*
X153590230Y-132194080D01*
X153623902Y-132196263D01*
X153649600Y-132199338D01*
X153668818Y-132203457D01*
X153683048Y-132208774D01*
X153693784Y-132215441D01*
X153702519Y-132223611D01*
X153710747Y-132233436D01*
X153714919Y-132238740D01*
X153719049Y-132244393D01*
X153722480Y-132250922D01*
X153725277Y-132259846D01*
X153727505Y-132272686D01*
X153729228Y-132290961D01*
X153730511Y-132316190D01*
X153731419Y-132349893D01*
X153732017Y-132393590D01*
X153732369Y-132448800D01*
X153732541Y-132517044D01*
X153732596Y-132599840D01*
X153732600Y-132653776D01*
X153732600Y-133046334D01*
X153529400Y-133046334D01*
X153529400Y-133918401D01*
X152970600Y-133918401D01*
X152970600Y-133046334D01*
X152767400Y-133046334D01*
X152767400Y-132653776D01*
X152767418Y-132562061D01*
X152767516Y-132485760D01*
X152767758Y-132423354D01*
X152768208Y-132373321D01*
X152768933Y-132334144D01*
X152769996Y-132304301D01*
X152771462Y-132282273D01*
X152773396Y-132266542D01*
X152775862Y-132255586D01*
X152778926Y-132247886D01*
X152782652Y-132241924D01*
X152785081Y-132238740D01*
X152793592Y-132228073D01*
X152801900Y-132219134D01*
X152811497Y-132211771D01*
X152823877Y-132205830D01*
X152840534Y-132201159D01*
X152862961Y-132197606D01*
X152892650Y-132195017D01*
X152931096Y-132193241D01*
X152979790Y-132192123D01*
X153040228Y-132191513D01*
X153113901Y-132191256D01*
X153202304Y-132191201D01*
X153250000Y-132191201D01*
X153345940Y-132191214D01*
G37*
X153345940Y-132191214D02*
X153426439Y-132191356D01*
X153492992Y-132191779D01*
X153547091Y-132192636D01*
X153590230Y-132194080D01*
X153623902Y-132196263D01*
X153649600Y-132199338D01*
X153668818Y-132203457D01*
X153683048Y-132208774D01*
X153693784Y-132215441D01*
X153702519Y-132223611D01*
X153710747Y-132233436D01*
X153714919Y-132238740D01*
X153719049Y-132244393D01*
X153722480Y-132250922D01*
X153725277Y-132259846D01*
X153727505Y-132272686D01*
X153729228Y-132290961D01*
X153730511Y-132316190D01*
X153731419Y-132349893D01*
X153732017Y-132393590D01*
X153732369Y-132448800D01*
X153732541Y-132517044D01*
X153732596Y-132599840D01*
X153732600Y-132653776D01*
X153732600Y-133046334D01*
X153529400Y-133046334D01*
X153529400Y-133918401D01*
X152970600Y-133918401D01*
X152970600Y-133046334D01*
X152767400Y-133046334D01*
X152767400Y-132653776D01*
X152767418Y-132562061D01*
X152767516Y-132485760D01*
X152767758Y-132423354D01*
X152768208Y-132373321D01*
X152768933Y-132334144D01*
X152769996Y-132304301D01*
X152771462Y-132282273D01*
X152773396Y-132266542D01*
X152775862Y-132255586D01*
X152778926Y-132247886D01*
X152782652Y-132241924D01*
X152785081Y-132238740D01*
X152793592Y-132228073D01*
X152801900Y-132219134D01*
X152811497Y-132211771D01*
X152823877Y-132205830D01*
X152840534Y-132201159D01*
X152862961Y-132197606D01*
X152892650Y-132195017D01*
X152931096Y-132193241D01*
X152979790Y-132192123D01*
X153040228Y-132191513D01*
X153113901Y-132191256D01*
X153202304Y-132191201D01*
X153250000Y-132191201D01*
X153345940Y-132191214D01*
X153307639Y-131592245D02*
X153354174Y-131600958D01*
X153354174Y-131600958D02*
X153360775Y-131603002D01*
X153360775Y-131603002D02*
X153411624Y-131627978D01*
X153411624Y-131627978D02*
X153450840Y-131665235D01*
X153450840Y-131665235D02*
X153478393Y-131714720D01*
X153478393Y-131714720D02*
X153494253Y-131776380D01*
X153494253Y-131776380D02*
X153498489Y-131844067D01*
X153498489Y-131844067D02*
X153493753Y-131910333D01*
X153493753Y-131910333D02*
X153480376Y-131963642D01*
X153480376Y-131963642D02*
X153457283Y-132006184D01*
X153457283Y-132006184D02*
X153423397Y-132040152D01*
X153423397Y-132040152D02*
X153392440Y-132060133D01*
X153392440Y-132060133D02*
X153369174Y-132071886D01*
X153369174Y-132071886D02*
X153347780Y-132079445D01*
X153347780Y-132079445D02*
X153323064Y-132083899D01*
X153323064Y-132083899D02*
X153289828Y-132086336D01*
X153289828Y-132086336D02*
X153262700Y-132087311D01*
X153262700Y-132087311D02*
X153206233Y-132087157D01*
X153206233Y-132087157D02*
X153165065Y-132082995D01*
X153165065Y-132082995D02*
X153147403Y-132078377D01*
X153147403Y-132078377D02*
X153094374Y-132052980D01*
X153094374Y-132052980D02*
X153054838Y-132020219D01*
X153054838Y-132020219D02*
X153026911Y-131977729D01*
X153026911Y-131977729D02*
X153008707Y-131923147D01*
X153008707Y-131923147D02*
X153003889Y-131898395D01*
X153003889Y-131898395D02*
X152998535Y-131828720D01*
X152998535Y-131828720D02*
X153005662Y-131764517D01*
X153005662Y-131764517D02*
X153024513Y-131707803D01*
X153024513Y-131707803D02*
X153054330Y-131660594D01*
X153054330Y-131660594D02*
X153094356Y-131624906D01*
X153094356Y-131624906D02*
X153110026Y-131615822D01*
X153110026Y-131615822D02*
X153149591Y-131601754D01*
X153149591Y-131601754D02*
X153199568Y-131592938D01*
X153199568Y-131592938D02*
X153254178Y-131589670D01*
X153254178Y-131589670D02*
X153307639Y-131592245D01*
X153307639Y-131592245D02*
X153307639Y-131592245D01*
G36*
X153307639Y-131592245D02*
G01*
X153354174Y-131600958D01*
X153360775Y-131603002D01*
X153411624Y-131627978D01*
X153450840Y-131665235D01*
X153478393Y-131714720D01*
X153494253Y-131776380D01*
X153498489Y-131844067D01*
X153493753Y-131910333D01*
X153480376Y-131963642D01*
X153457283Y-132006184D01*
X153423397Y-132040152D01*
X153392440Y-132060133D01*
X153369174Y-132071886D01*
X153347780Y-132079445D01*
X153323064Y-132083899D01*
X153289828Y-132086336D01*
X153262700Y-132087311D01*
X153206233Y-132087157D01*
X153165065Y-132082995D01*
X153147403Y-132078377D01*
X153094374Y-132052980D01*
X153054838Y-132020219D01*
X153026911Y-131977729D01*
X153008707Y-131923147D01*
X153003889Y-131898395D01*
X152998535Y-131828720D01*
X153005662Y-131764517D01*
X153024513Y-131707803D01*
X153054330Y-131660594D01*
X153094356Y-131624906D01*
X153110026Y-131615822D01*
X153149591Y-131601754D01*
X153199568Y-131592938D01*
X153254178Y-131589670D01*
X153307639Y-131592245D01*
G37*
X153307639Y-131592245D02*
X153354174Y-131600958D01*
X153360775Y-131603002D01*
X153411624Y-131627978D01*
X153450840Y-131665235D01*
X153478393Y-131714720D01*
X153494253Y-131776380D01*
X153498489Y-131844067D01*
X153493753Y-131910333D01*
X153480376Y-131963642D01*
X153457283Y-132006184D01*
X153423397Y-132040152D01*
X153392440Y-132060133D01*
X153369174Y-132071886D01*
X153347780Y-132079445D01*
X153323064Y-132083899D01*
X153289828Y-132086336D01*
X153262700Y-132087311D01*
X153206233Y-132087157D01*
X153165065Y-132082995D01*
X153147403Y-132078377D01*
X153094374Y-132052980D01*
X153054838Y-132020219D01*
X153026911Y-131977729D01*
X153008707Y-131923147D01*
X153003889Y-131898395D01*
X152998535Y-131828720D01*
X153005662Y-131764517D01*
X153024513Y-131707803D01*
X153054330Y-131660594D01*
X153094356Y-131624906D01*
X153110026Y-131615822D01*
X153149591Y-131601754D01*
X153199568Y-131592938D01*
X153254178Y-131589670D01*
X153307639Y-131592245D01*
X156933407Y-131804959D02*
X157058337Y-131820704D01*
X157058337Y-131820704D02*
X157175850Y-131851195D01*
X157175850Y-131851195D02*
X157285235Y-131895899D01*
X157285235Y-131895899D02*
X157385783Y-131954284D01*
X157385783Y-131954284D02*
X157476787Y-132025815D01*
X157476787Y-132025815D02*
X157557535Y-132109960D01*
X157557535Y-132109960D02*
X157627320Y-132206186D01*
X157627320Y-132206186D02*
X157685432Y-132313959D01*
X157685432Y-132313959D02*
X157731162Y-132432747D01*
X157731162Y-132432747D02*
X157755251Y-132521401D01*
X157755251Y-132521401D02*
X157764121Y-132571700D01*
X157764121Y-132571700D02*
X157771040Y-132633848D01*
X157771040Y-132633848D02*
X157775803Y-132702850D01*
X157775803Y-132702850D02*
X157778202Y-132773713D01*
X157778202Y-132773713D02*
X157778030Y-132841441D01*
X157778030Y-132841441D02*
X157775082Y-132901041D01*
X157775082Y-132901041D02*
X157772125Y-132929123D01*
X157772125Y-132929123D02*
X157748496Y-133054648D01*
X157748496Y-133054648D02*
X157712262Y-133169645D01*
X157712262Y-133169645D02*
X157662663Y-133275684D01*
X157662663Y-133275684D02*
X157598943Y-133374335D01*
X157598943Y-133374335D02*
X157520344Y-133467166D01*
X157520344Y-133467166D02*
X157504762Y-133483173D01*
X157504762Y-133483173D02*
X157425775Y-133555670D01*
X157425775Y-133555670D02*
X157345855Y-133613915D01*
X157345855Y-133613915D02*
X157260999Y-133660307D01*
X157260999Y-133660307D02*
X157167205Y-133697247D01*
X157167205Y-133697247D02*
X157126890Y-133709740D01*
X157126890Y-133709740D02*
X157051930Y-133727406D01*
X157051930Y-133727406D02*
X156969283Y-133740003D01*
X156969283Y-133740003D02*
X156884897Y-133747013D01*
X156884897Y-133747013D02*
X156804722Y-133747916D01*
X156804722Y-133747916D02*
X156742500Y-133743265D01*
X156742500Y-133743265D02*
X156626183Y-133720737D01*
X156626183Y-133720737D02*
X156517625Y-133684450D01*
X156517625Y-133684450D02*
X156417872Y-133635129D01*
X156417872Y-133635129D02*
X156327971Y-133573501D01*
X156327971Y-133573501D02*
X156248968Y-133500292D01*
X156248968Y-133500292D02*
X156181911Y-133416229D01*
X156181911Y-133416229D02*
X156127845Y-133322038D01*
X156127845Y-133322038D02*
X156124110Y-133314082D01*
X156124110Y-133314082D02*
X156107893Y-133274682D01*
X156107893Y-133274682D02*
X156091137Y-133226778D01*
X156091137Y-133226778D02*
X156075418Y-133175674D01*
X156075418Y-133175674D02*
X156062310Y-133126674D01*
X156062310Y-133126674D02*
X156053390Y-133085080D01*
X156053390Y-133085080D02*
X156050862Y-133067501D01*
X156050862Y-133067501D02*
X156048233Y-133042100D01*
X156048233Y-133042100D02*
X156495746Y-133042100D01*
X156495746Y-133042100D02*
X156509570Y-133105601D01*
X156509570Y-133105601D02*
X156530072Y-133175509D01*
X156530072Y-133175509D02*
X156558967Y-133232027D01*
X156558967Y-133232027D02*
X156597824Y-133277263D01*
X156597824Y-133277263D02*
X156648215Y-133313323D01*
X156648215Y-133313323D02*
X156674330Y-133326772D01*
X156674330Y-133326772D02*
X156730487Y-133348502D01*
X156730487Y-133348502D02*
X156789805Y-133361693D01*
X156789805Y-133361693D02*
X156856885Y-133367114D01*
X156856885Y-133367114D02*
X156912324Y-133366648D01*
X156912324Y-133366648D02*
X156954118Y-133364534D01*
X156954118Y-133364534D02*
X156984757Y-133360967D01*
X156984757Y-133360967D02*
X157010017Y-133354690D01*
X157010017Y-133354690D02*
X157035675Y-133344444D01*
X157035675Y-133344444D02*
X157053672Y-133335864D01*
X157053672Y-133335864D02*
X157121946Y-133292951D01*
X157121946Y-133292951D02*
X157180512Y-133236384D01*
X157180512Y-133236384D02*
X157229190Y-133166507D01*
X157229190Y-133166507D02*
X157267804Y-133083663D01*
X157267804Y-133083663D02*
X157296174Y-132988195D01*
X157296174Y-132988195D02*
X157314123Y-132880446D01*
X157314123Y-132880446D02*
X157318943Y-132825119D01*
X157318943Y-132825119D02*
X157320647Y-132717692D01*
X157320647Y-132717692D02*
X157312100Y-132615716D01*
X157312100Y-132615716D02*
X157293809Y-132520966D01*
X157293809Y-132520966D02*
X157266282Y-132435217D01*
X157266282Y-132435217D02*
X157230027Y-132360244D01*
X157230027Y-132360244D02*
X157185552Y-132297822D01*
X157185552Y-132297822D02*
X157160784Y-132272237D01*
X157160784Y-132272237D02*
X157119833Y-132238461D01*
X157119833Y-132238461D02*
X157078654Y-132214321D01*
X157078654Y-132214321D02*
X157033054Y-132198292D01*
X157033054Y-132198292D02*
X156978838Y-132188848D01*
X156978838Y-132188848D02*
X156920300Y-132184758D01*
X156920300Y-132184758D02*
X156827624Y-132186722D01*
X156827624Y-132186722D02*
X156747053Y-132200329D01*
X156747053Y-132200329D02*
X156678153Y-132225843D01*
X156678153Y-132225843D02*
X156620490Y-132263526D01*
X156620490Y-132263526D02*
X156573628Y-132313644D01*
X156573628Y-132313644D02*
X156537135Y-132376459D01*
X156537135Y-132376459D02*
X156517151Y-132429325D01*
X156517151Y-132429325D02*
X156508825Y-132457219D01*
X156508825Y-132457219D02*
X156503053Y-132478738D01*
X156503053Y-132478738D02*
X156501200Y-132488288D01*
X156501200Y-132488288D02*
X156508986Y-132491921D01*
X156508986Y-132491921D02*
X156529628Y-132494634D01*
X156529628Y-132494634D02*
X156559057Y-132495947D01*
X156559057Y-132495947D02*
X156566792Y-132496001D01*
X156566792Y-132496001D02*
X156632384Y-132496000D01*
X156632384Y-132496000D02*
X156272653Y-132855731D01*
X156272653Y-132855731D02*
X156099060Y-132682293D01*
X156099060Y-132682293D02*
X156054761Y-132637821D01*
X156054761Y-132637821D02*
X156014634Y-132597126D01*
X156014634Y-132597126D02*
X155980177Y-132561762D01*
X155980177Y-132561762D02*
X155952889Y-132533282D01*
X155952889Y-132533282D02*
X155934270Y-132513239D01*
X155934270Y-132513239D02*
X155925816Y-132503186D01*
X155925816Y-132503186D02*
X155925467Y-132502428D01*
X155925467Y-132502428D02*
X155933261Y-132499431D01*
X155933261Y-132499431D02*
X155953960Y-132497180D01*
X155953960Y-132497180D02*
X155983541Y-132496059D01*
X155983541Y-132496059D02*
X155992600Y-132496001D01*
X155992600Y-132496001D02*
X156059733Y-132496001D01*
X156059733Y-132496001D02*
X156069183Y-132447317D01*
X156069183Y-132447317D02*
X156080433Y-132400463D01*
X156080433Y-132400463D02*
X156096854Y-132345946D01*
X156096854Y-132345946D02*
X156116322Y-132289902D01*
X156116322Y-132289902D02*
X156136711Y-132238466D01*
X156136711Y-132238466D02*
X156155143Y-132199186D01*
X156155143Y-132199186D02*
X156213583Y-132106527D01*
X156213583Y-132106527D02*
X156284325Y-132024871D01*
X156284325Y-132024871D02*
X156366244Y-131954906D01*
X156366244Y-131954906D02*
X156458213Y-131897319D01*
X156458213Y-131897319D02*
X156559106Y-131852798D01*
X156559106Y-131852798D02*
X156667798Y-131822028D01*
X156667798Y-131822028D02*
X156783162Y-131805699D01*
X156783162Y-131805699D02*
X156801767Y-131804493D01*
X156801767Y-131804493D02*
X156933407Y-131804959D01*
X156933407Y-131804959D02*
X156933407Y-131804959D01*
G36*
X156933407Y-131804959D02*
G01*
X157058337Y-131820704D01*
X157175850Y-131851195D01*
X157285235Y-131895899D01*
X157385783Y-131954284D01*
X157476787Y-132025815D01*
X157557535Y-132109960D01*
X157627320Y-132206186D01*
X157685432Y-132313959D01*
X157731162Y-132432747D01*
X157755251Y-132521401D01*
X157764121Y-132571700D01*
X157771040Y-132633848D01*
X157775803Y-132702850D01*
X157778202Y-132773713D01*
X157778030Y-132841441D01*
X157775082Y-132901041D01*
X157772125Y-132929123D01*
X157748496Y-133054648D01*
X157712262Y-133169645D01*
X157662663Y-133275684D01*
X157598943Y-133374335D01*
X157520344Y-133467166D01*
X157504762Y-133483173D01*
X157425775Y-133555670D01*
X157345855Y-133613915D01*
X157260999Y-133660307D01*
X157167205Y-133697247D01*
X157126890Y-133709740D01*
X157051930Y-133727406D01*
X156969283Y-133740003D01*
X156884897Y-133747013D01*
X156804722Y-133747916D01*
X156742500Y-133743265D01*
X156626183Y-133720737D01*
X156517625Y-133684450D01*
X156417872Y-133635129D01*
X156327971Y-133573501D01*
X156248968Y-133500292D01*
X156181911Y-133416229D01*
X156127845Y-133322038D01*
X156124110Y-133314082D01*
X156107893Y-133274682D01*
X156091137Y-133226778D01*
X156075418Y-133175674D01*
X156062310Y-133126674D01*
X156053390Y-133085080D01*
X156050862Y-133067501D01*
X156048233Y-133042100D01*
X156495746Y-133042100D01*
X156509570Y-133105601D01*
X156530072Y-133175509D01*
X156558967Y-133232027D01*
X156597824Y-133277263D01*
X156648215Y-133313323D01*
X156674330Y-133326772D01*
X156730487Y-133348502D01*
X156789805Y-133361693D01*
X156856885Y-133367114D01*
X156912324Y-133366648D01*
X156954118Y-133364534D01*
X156984757Y-133360967D01*
X157010017Y-133354690D01*
X157035675Y-133344444D01*
X157053672Y-133335864D01*
X157121946Y-133292951D01*
X157180512Y-133236384D01*
X157229190Y-133166507D01*
X157267804Y-133083663D01*
X157296174Y-132988195D01*
X157314123Y-132880446D01*
X157318943Y-132825119D01*
X157320647Y-132717692D01*
X157312100Y-132615716D01*
X157293809Y-132520966D01*
X157266282Y-132435217D01*
X157230027Y-132360244D01*
X157185552Y-132297822D01*
X157160784Y-132272237D01*
X157119833Y-132238461D01*
X157078654Y-132214321D01*
X157033054Y-132198292D01*
X156978838Y-132188848D01*
X156920300Y-132184758D01*
X156827624Y-132186722D01*
X156747053Y-132200329D01*
X156678153Y-132225843D01*
X156620490Y-132263526D01*
X156573628Y-132313644D01*
X156537135Y-132376459D01*
X156517151Y-132429325D01*
X156508825Y-132457219D01*
X156503053Y-132478738D01*
X156501200Y-132488288D01*
X156508986Y-132491921D01*
X156529628Y-132494634D01*
X156559057Y-132495947D01*
X156566792Y-132496001D01*
X156632384Y-132496000D01*
X156272653Y-132855731D01*
X156099060Y-132682293D01*
X156054761Y-132637821D01*
X156014634Y-132597126D01*
X155980177Y-132561762D01*
X155952889Y-132533282D01*
X155934270Y-132513239D01*
X155925816Y-132503186D01*
X155925467Y-132502428D01*
X155933261Y-132499431D01*
X155953960Y-132497180D01*
X155983541Y-132496059D01*
X155992600Y-132496001D01*
X156059733Y-132496001D01*
X156069183Y-132447317D01*
X156080433Y-132400463D01*
X156096854Y-132345946D01*
X156116322Y-132289902D01*
X156136711Y-132238466D01*
X156155143Y-132199186D01*
X156213583Y-132106527D01*
X156284325Y-132024871D01*
X156366244Y-131954906D01*
X156458213Y-131897319D01*
X156559106Y-131852798D01*
X156667798Y-131822028D01*
X156783162Y-131805699D01*
X156801767Y-131804493D01*
X156933407Y-131804959D01*
G37*
X156933407Y-131804959D02*
X157058337Y-131820704D01*
X157175850Y-131851195D01*
X157285235Y-131895899D01*
X157385783Y-131954284D01*
X157476787Y-132025815D01*
X157557535Y-132109960D01*
X157627320Y-132206186D01*
X157685432Y-132313959D01*
X157731162Y-132432747D01*
X157755251Y-132521401D01*
X157764121Y-132571700D01*
X157771040Y-132633848D01*
X157775803Y-132702850D01*
X157778202Y-132773713D01*
X157778030Y-132841441D01*
X157775082Y-132901041D01*
X157772125Y-132929123D01*
X157748496Y-133054648D01*
X157712262Y-133169645D01*
X157662663Y-133275684D01*
X157598943Y-133374335D01*
X157520344Y-133467166D01*
X157504762Y-133483173D01*
X157425775Y-133555670D01*
X157345855Y-133613915D01*
X157260999Y-133660307D01*
X157167205Y-133697247D01*
X157126890Y-133709740D01*
X157051930Y-133727406D01*
X156969283Y-133740003D01*
X156884897Y-133747013D01*
X156804722Y-133747916D01*
X156742500Y-133743265D01*
X156626183Y-133720737D01*
X156517625Y-133684450D01*
X156417872Y-133635129D01*
X156327971Y-133573501D01*
X156248968Y-133500292D01*
X156181911Y-133416229D01*
X156127845Y-133322038D01*
X156124110Y-133314082D01*
X156107893Y-133274682D01*
X156091137Y-133226778D01*
X156075418Y-133175674D01*
X156062310Y-133126674D01*
X156053390Y-133085080D01*
X156050862Y-133067501D01*
X156048233Y-133042100D01*
X156495746Y-133042100D01*
X156509570Y-133105601D01*
X156530072Y-133175509D01*
X156558967Y-133232027D01*
X156597824Y-133277263D01*
X156648215Y-133313323D01*
X156674330Y-133326772D01*
X156730487Y-133348502D01*
X156789805Y-133361693D01*
X156856885Y-133367114D01*
X156912324Y-133366648D01*
X156954118Y-133364534D01*
X156984757Y-133360967D01*
X157010017Y-133354690D01*
X157035675Y-133344444D01*
X157053672Y-133335864D01*
X157121946Y-133292951D01*
X157180512Y-133236384D01*
X157229190Y-133166507D01*
X157267804Y-133083663D01*
X157296174Y-132988195D01*
X157314123Y-132880446D01*
X157318943Y-132825119D01*
X157320647Y-132717692D01*
X157312100Y-132615716D01*
X157293809Y-132520966D01*
X157266282Y-132435217D01*
X157230027Y-132360244D01*
X157185552Y-132297822D01*
X157160784Y-132272237D01*
X157119833Y-132238461D01*
X157078654Y-132214321D01*
X157033054Y-132198292D01*
X156978838Y-132188848D01*
X156920300Y-132184758D01*
X156827624Y-132186722D01*
X156747053Y-132200329D01*
X156678153Y-132225843D01*
X156620490Y-132263526D01*
X156573628Y-132313644D01*
X156537135Y-132376459D01*
X156517151Y-132429325D01*
X156508825Y-132457219D01*
X156503053Y-132478738D01*
X156501200Y-132488288D01*
X156508986Y-132491921D01*
X156529628Y-132494634D01*
X156559057Y-132495947D01*
X156566792Y-132496001D01*
X156632384Y-132496000D01*
X156272653Y-132855731D01*
X156099060Y-132682293D01*
X156054761Y-132637821D01*
X156014634Y-132597126D01*
X155980177Y-132561762D01*
X155952889Y-132533282D01*
X155934270Y-132513239D01*
X155925816Y-132503186D01*
X155925467Y-132502428D01*
X155933261Y-132499431D01*
X155953960Y-132497180D01*
X155983541Y-132496059D01*
X155992600Y-132496001D01*
X156059733Y-132496001D01*
X156069183Y-132447317D01*
X156080433Y-132400463D01*
X156096854Y-132345946D01*
X156116322Y-132289902D01*
X156136711Y-132238466D01*
X156155143Y-132199186D01*
X156213583Y-132106527D01*
X156284325Y-132024871D01*
X156366244Y-131954906D01*
X156458213Y-131897319D01*
X156559106Y-131852798D01*
X156667798Y-131822028D01*
X156783162Y-131805699D01*
X156801767Y-131804493D01*
X156933407Y-131804959D01*
D10*
%TO.C,TP1*%
X174786000Y-130000000D02*
G75*
G03*
X174786000Y-130000000I-2286000J0D01*
G01*
%TO.C,U3*%
X136075000Y-120825000D02*
X136075000Y-120565000D01*
X141525000Y-120825000D02*
X141525000Y-120565000D01*
X138800000Y-115375000D02*
X136075000Y-115375000D01*
X138800000Y-120825000D02*
X136075000Y-120825000D01*
X136075000Y-115375000D02*
X136075000Y-115635000D01*
X138800000Y-115375000D02*
X141525000Y-115375000D01*
X136075000Y-115635000D02*
X134400000Y-115635000D01*
X138800000Y-120825000D02*
X141525000Y-120825000D01*
X141525000Y-115375000D02*
X141525000Y-115635000D01*
%TO.C,R13*%
X153930000Y-147970000D02*
X153930000Y-141430000D01*
X156670000Y-141430000D02*
X156340000Y-141430000D01*
X156670000Y-147970000D02*
X156670000Y-141430000D01*
X156340000Y-147970000D02*
X156670000Y-147970000D01*
X154260000Y-147970000D02*
X153930000Y-147970000D01*
X153930000Y-141430000D02*
X154260000Y-141430000D01*
%TO.C,R7*%
X148070000Y-127070000D02*
X141530000Y-127070000D01*
X148070000Y-124330000D02*
X141530000Y-124330000D01*
X141530000Y-124330000D02*
X141530000Y-124660000D01*
X148070000Y-126740000D02*
X148070000Y-127070000D01*
X141530000Y-127070000D02*
X141530000Y-126740000D01*
X148070000Y-124660000D02*
X148070000Y-124330000D01*
%TO.C,U1*%
X124290000Y-122590000D02*
X124740000Y-122590000D01*
X124290000Y-129810000D02*
X124740000Y-129810000D01*
X124290000Y-123040000D02*
X124290000Y-122590000D01*
X124740000Y-129810000D02*
X124740000Y-131100000D01*
X131510000Y-129810000D02*
X131060000Y-129810000D01*
X131510000Y-122590000D02*
X131060000Y-122590000D01*
X131510000Y-123040000D02*
X131510000Y-122590000D01*
X131510000Y-129360000D02*
X131510000Y-129810000D01*
X124290000Y-129360000D02*
X124290000Y-129810000D01*
%TO.C,BTN1*%
X149205000Y-116470000D02*
X149205000Y-117800000D01*
X147875000Y-116470000D02*
X149205000Y-116470000D01*
X144005000Y-116470000D02*
X144005000Y-119130000D01*
X146605000Y-116470000D02*
X146605000Y-119130000D01*
X146605000Y-119130000D02*
X144005000Y-119130000D01*
X146605000Y-116470000D02*
X144005000Y-116470000D01*
%TO.C,C2*%
X125180000Y-120625000D02*
X125180000Y-120870000D01*
X125180000Y-118530000D02*
X128820000Y-118530000D01*
X128820000Y-118530000D02*
X128820000Y-118775000D01*
X125180000Y-120870000D02*
X128820000Y-120870000D01*
X125180000Y-118530000D02*
X125180000Y-118775000D01*
X128820000Y-120625000D02*
X128820000Y-120870000D01*
%TO.C,C6*%
X93320000Y-121679000D02*
X93320000Y-123075000D01*
X87080000Y-121679000D02*
X93320000Y-121679000D01*
X87080000Y-121679000D02*
X87080000Y-123075000D01*
X87080000Y-124925000D02*
X87080000Y-126321000D01*
X87080000Y-126321000D02*
X93320000Y-126321000D01*
X93320000Y-124925000D02*
X93320000Y-126321000D01*
%TO.C,R6*%
X82840000Y-129870000D02*
X83170000Y-129870000D01*
X83170000Y-123330000D02*
X82840000Y-123330000D01*
X83170000Y-129870000D02*
X83170000Y-123330000D01*
X80760000Y-129870000D02*
X80430000Y-129870000D01*
X80430000Y-129870000D02*
X80430000Y-123330000D01*
X80430000Y-123330000D02*
X80760000Y-123330000D01*
%TO.C,C4*%
X126780000Y-131530000D02*
X126780000Y-131775000D01*
X126780000Y-133625000D02*
X126780000Y-133870000D01*
X130420000Y-133625000D02*
X130420000Y-133870000D01*
X126780000Y-133870000D02*
X130420000Y-133870000D01*
X126780000Y-131530000D02*
X130420000Y-131530000D01*
X130420000Y-131530000D02*
X130420000Y-131775000D01*
%TO.C,U5*%
X151900000Y-121240000D02*
X152700000Y-121240000D01*
X151900000Y-121240000D02*
X150100000Y-121240000D01*
X151900000Y-124360000D02*
X152700000Y-124360000D01*
X151900000Y-124360000D02*
X151100000Y-124360000D01*
%TO.C,D1*%
X117935000Y-117055000D02*
X117935000Y-120145000D01*
X123485000Y-118600462D02*
G75*
G03*
X117935000Y-117055170I-2990000J462D01*
G01*
X117935000Y-120144830D02*
G75*
G03*
X123485000Y-118599538I2560000J1544830D01*
G01*
X122995000Y-118600000D02*
G75*
G03*
X122995000Y-118600000I-2500000J0D01*
G01*
%TO.C,U4*%
X106160000Y-115510000D02*
X95660000Y-115510000D01*
X103160000Y-125850000D02*
X103160000Y-115570000D01*
X106160000Y-125910000D02*
X106160000Y-115510000D01*
X98660000Y-125850000D02*
X103160000Y-125850000D01*
X99910000Y-115570000D02*
X98660000Y-115570000D01*
X95660000Y-115510000D02*
X95660000Y-125910000D01*
X98660000Y-115570000D02*
X98660000Y-125850000D01*
X95660000Y-125910000D02*
X106160000Y-125910000D01*
X103160000Y-115570000D02*
X101910000Y-115570000D01*
X99910000Y-115570000D02*
G75*
G03*
X101910000Y-115570000I1000000J0D01*
G01*
%TO.C,C5*%
X108671380Y-127460000D02*
X108671380Y-125566000D01*
X108591380Y-127460000D02*
X108591380Y-125604000D01*
X109632380Y-127460000D02*
X109632380Y-125294000D01*
X107231380Y-130150000D02*
X107231380Y-126850000D01*
X110032380Y-131730000D02*
X110032380Y-125270000D01*
X109832380Y-131724000D02*
X109832380Y-125276000D01*
X107511380Y-130544000D02*
X107511380Y-126456000D01*
X107431380Y-130444000D02*
X107431380Y-126556000D01*
X107951380Y-130984000D02*
X107951380Y-129540000D01*
X109111380Y-131598000D02*
X109111380Y-129540000D01*
X109752380Y-131718000D02*
X109752380Y-129540000D01*
X108991380Y-127460000D02*
X108991380Y-125439000D01*
X108071380Y-127460000D02*
X108071380Y-125922000D01*
X107671380Y-130724000D02*
X107671380Y-126276000D01*
X106951380Y-129559000D02*
X106951380Y-127441000D01*
X109472380Y-127460000D02*
X109472380Y-125318000D01*
X113217621Y-130654000D02*
X113217621Y-130024000D01*
X108311380Y-127460000D02*
X108311380Y-125758000D01*
X109311380Y-127460000D02*
X109311380Y-125350000D01*
X108751380Y-127460000D02*
X108751380Y-125530000D01*
X108231380Y-127460000D02*
X108231380Y-125810000D01*
X108511380Y-127460000D02*
X108511380Y-125644000D01*
X107591380Y-130637000D02*
X107591380Y-126363000D01*
X108951380Y-127460000D02*
X108951380Y-125453000D01*
X109432380Y-131675000D02*
X109432380Y-129540000D01*
X108271380Y-131216000D02*
X108271380Y-129540000D01*
X109151380Y-127460000D02*
X109151380Y-125390000D01*
X108351380Y-131266000D02*
X108351380Y-129540000D01*
X109271380Y-131641000D02*
X109271380Y-129540000D01*
X108711380Y-127460000D02*
X108711380Y-125548000D01*
X109352380Y-127460000D02*
X109352380Y-125341000D01*
X107831380Y-127460000D02*
X107831380Y-126120000D01*
X109552380Y-131695000D02*
X109552380Y-129540000D01*
X108111380Y-131107000D02*
X108111380Y-129540000D01*
X108631380Y-131416000D02*
X108631380Y-129540000D01*
X109952380Y-131730000D02*
X109952380Y-125270000D01*
X107351380Y-130334000D02*
X107351380Y-126666000D01*
X108871380Y-127460000D02*
X108871380Y-125482000D01*
X106871380Y-129302000D02*
X106871380Y-127698000D01*
X108791380Y-131486000D02*
X108791380Y-129540000D01*
X109512380Y-131689000D02*
X109512380Y-129540000D01*
X109632380Y-131706000D02*
X109632380Y-129540000D01*
X108951380Y-131547000D02*
X108951380Y-129540000D01*
X109352380Y-131659000D02*
X109352380Y-129540000D01*
X107751380Y-127460000D02*
X107751380Y-126195000D01*
X107911380Y-127460000D02*
X107911380Y-126050000D01*
X107711380Y-130765000D02*
X107711380Y-126235000D01*
X108031380Y-127460000D02*
X108031380Y-125952000D01*
X108071380Y-131078000D02*
X108071380Y-129540000D01*
X108151380Y-127460000D02*
X108151380Y-125864000D01*
X108591380Y-131396000D02*
X108591380Y-129540000D01*
X109392380Y-127460000D02*
X109392380Y-125333000D01*
X109271380Y-127460000D02*
X109271380Y-125359000D01*
X108431380Y-131312000D02*
X108431380Y-129540000D01*
X109311380Y-131650000D02*
X109311380Y-129540000D01*
X107831380Y-130880000D02*
X107831380Y-129540000D01*
X109752380Y-127460000D02*
X109752380Y-125282000D01*
X109071380Y-127460000D02*
X109071380Y-125414000D01*
X106831380Y-129133000D02*
X106831380Y-127867000D01*
X107311380Y-130276000D02*
X107311380Y-126724000D01*
X107191380Y-130081000D02*
X107191380Y-126919000D01*
X109191380Y-131621000D02*
X109191380Y-129540000D01*
X107791380Y-130843000D02*
X107791380Y-129540000D01*
X108311380Y-131242000D02*
X108311380Y-129540000D01*
X108551380Y-127460000D02*
X108551380Y-125624000D01*
X107471380Y-130495000D02*
X107471380Y-126505000D01*
X107631380Y-130682000D02*
X107631380Y-126318000D01*
X107551380Y-130592000D02*
X107551380Y-126408000D01*
X108151380Y-131136000D02*
X108151380Y-129540000D01*
X109592380Y-127460000D02*
X109592380Y-125299000D01*
X108631380Y-127460000D02*
X108631380Y-125584000D01*
X108511380Y-131356000D02*
X108511380Y-129540000D01*
X108271380Y-127460000D02*
X108271380Y-125784000D01*
X107031380Y-129762000D02*
X107031380Y-127238000D01*
X109992380Y-131730000D02*
X109992380Y-125270000D01*
X109191380Y-127460000D02*
X109191380Y-125379000D01*
X107911380Y-130950000D02*
X107911380Y-129540000D01*
X109231380Y-127460000D02*
X109231380Y-125369000D01*
X109792380Y-131722000D02*
X109792380Y-129540000D01*
X108911380Y-131533000D02*
X108911380Y-129540000D01*
X106791380Y-128902000D02*
X106791380Y-128098000D01*
X108391380Y-131290000D02*
X108391380Y-129540000D01*
X109512380Y-127460000D02*
X109512380Y-125311000D01*
X109071380Y-131586000D02*
X109071380Y-129540000D01*
X106911380Y-129440000D02*
X106911380Y-127560000D01*
X109031380Y-131574000D02*
X109031380Y-129540000D01*
X109111380Y-127460000D02*
X109111380Y-125402000D01*
X108351380Y-127460000D02*
X108351380Y-125734000D01*
X107991380Y-131016000D02*
X107991380Y-129540000D01*
X107111380Y-129932000D02*
X107111380Y-127068000D01*
X109872380Y-131727000D02*
X109872380Y-125273000D01*
X108991380Y-131561000D02*
X108991380Y-129540000D01*
X108871380Y-131518000D02*
X108871380Y-129540000D01*
X108711380Y-131452000D02*
X108711380Y-129540000D01*
X107751380Y-130805000D02*
X107751380Y-129540000D01*
X108671380Y-131434000D02*
X108671380Y-129540000D01*
X108391380Y-127460000D02*
X108391380Y-125710000D01*
X107791380Y-127460000D02*
X107791380Y-126157000D01*
X108471380Y-127460000D02*
X108471380Y-125666000D01*
X108471380Y-131334000D02*
X108471380Y-129540000D01*
X109712380Y-131715000D02*
X109712380Y-129540000D01*
X109031380Y-127460000D02*
X109031380Y-125426000D01*
X109231380Y-131631000D02*
X109231380Y-129540000D01*
X106991380Y-129665000D02*
X106991380Y-127335000D01*
X108911380Y-127460000D02*
X108911380Y-125467000D01*
X108031380Y-131048000D02*
X108031380Y-129540000D01*
X108831380Y-131502000D02*
X108831380Y-129540000D01*
X109592380Y-131701000D02*
X109592380Y-129540000D01*
X108111380Y-127460000D02*
X108111380Y-125893000D01*
X109472380Y-131682000D02*
X109472380Y-129540000D01*
X109392380Y-131667000D02*
X109392380Y-129540000D01*
X107951380Y-127460000D02*
X107951380Y-126016000D01*
X108191380Y-127460000D02*
X108191380Y-125836000D01*
X109432380Y-127460000D02*
X109432380Y-125325000D01*
X113532621Y-130339000D02*
X112902621Y-130339000D01*
X108551380Y-131376000D02*
X108551380Y-129540000D01*
X107391380Y-130390000D02*
X107391380Y-126610000D01*
X107271380Y-130214000D02*
X107271380Y-126786000D01*
X108191380Y-131164000D02*
X108191380Y-129540000D01*
X108231380Y-131190000D02*
X108231380Y-129540000D01*
X108751380Y-131470000D02*
X108751380Y-129540000D01*
X108831380Y-127460000D02*
X108831380Y-125498000D01*
X109552380Y-127460000D02*
X109552380Y-125305000D01*
X109912380Y-131728000D02*
X109912380Y-125272000D01*
X109672380Y-127460000D02*
X109672380Y-125289000D01*
X109792380Y-127460000D02*
X109792380Y-125278000D01*
X109672380Y-131711000D02*
X109672380Y-129540000D01*
X107871380Y-130916000D02*
X107871380Y-129540000D01*
X108791380Y-127460000D02*
X108791380Y-125514000D01*
X108431380Y-127460000D02*
X108431380Y-125688000D01*
X107071380Y-129850000D02*
X107071380Y-127150000D01*
X107151380Y-130009000D02*
X107151380Y-126991000D01*
X107991380Y-127460000D02*
X107991380Y-125984000D01*
X109712380Y-127460000D02*
X109712380Y-125285000D01*
X109151380Y-131610000D02*
X109151380Y-129540000D01*
X107871380Y-127460000D02*
X107871380Y-126084000D01*
X113302380Y-128500000D02*
G75*
G03*
X113302380Y-128500000I-3270000J0D01*
G01*
%TO.C,R8*%
X141530000Y-127430000D02*
X141530000Y-127760000D01*
X148070000Y-129840000D02*
X148070000Y-130170000D01*
X148070000Y-127760000D02*
X148070000Y-127430000D01*
X148070000Y-130170000D02*
X141530000Y-130170000D01*
X148070000Y-127430000D02*
X141530000Y-127430000D01*
X141530000Y-130170000D02*
X141530000Y-129840000D01*
%TO.C,U2*%
X96820000Y-126729000D02*
X86580000Y-126729000D01*
X89849000Y-131370000D02*
X89849000Y-129860000D01*
X96820000Y-131370000D02*
X86580000Y-131370000D01*
X96820000Y-131370000D02*
X96820000Y-126729000D01*
X96820000Y-129860000D02*
X86580000Y-129860000D01*
X93550000Y-131370000D02*
X93550000Y-129860000D01*
X86580000Y-131370000D02*
X86580000Y-126729000D01*
%TO.C,C1*%
X117779000Y-130520000D02*
X119175000Y-130520000D01*
X117779000Y-124280000D02*
X119175000Y-124280000D01*
X122421000Y-130520000D02*
X122421000Y-124280000D01*
X117779000Y-130520000D02*
X117779000Y-124280000D01*
X121025000Y-130520000D02*
X122421000Y-130520000D01*
X121025000Y-124280000D02*
X122421000Y-124280000D01*
%TO.C,RST1*%
X127905000Y-134870000D02*
X125305000Y-134870000D01*
X127905000Y-134870000D02*
X127905000Y-137530000D01*
X129175000Y-134870000D02*
X130505000Y-134870000D01*
X130505000Y-134870000D02*
X130505000Y-136200000D01*
X125305000Y-134870000D02*
X125305000Y-137530000D01*
X127905000Y-137530000D02*
X125305000Y-137530000D01*
%TO.C,R14*%
X158530000Y-131270000D02*
X158530000Y-130940000D01*
X158530000Y-128530000D02*
X158530000Y-128860000D01*
X165070000Y-128530000D02*
X158530000Y-128530000D01*
X165070000Y-131270000D02*
X158530000Y-131270000D01*
X165070000Y-130940000D02*
X165070000Y-131270000D01*
X165070000Y-128860000D02*
X165070000Y-128530000D01*
%TO.C,Q1*%
X152104292Y-139470000D02*
X155704292Y-139470000D01*
X153084292Y-135170000D02*
G75*
G03*
X152092417Y-139461741I820000J-2450000D01*
G01*
X155712736Y-139447683D02*
G75*
G03*
X154684292Y-135170000I-1808445J1827683D01*
G01*
%TO.C,C3*%
X133580000Y-127925000D02*
X133580000Y-128170000D01*
X133580000Y-128170000D02*
X137220000Y-128170000D01*
X133580000Y-125830000D02*
X137220000Y-125830000D01*
X137220000Y-127925000D02*
X137220000Y-128170000D01*
X133580000Y-125830000D02*
X133580000Y-126075000D01*
X137220000Y-125830000D02*
X137220000Y-126075000D01*
%TO.C,R4*%
X81630000Y-121170000D02*
X88170000Y-121170000D01*
X88170000Y-121170000D02*
X88170000Y-120840000D01*
X88170000Y-118430000D02*
X88170000Y-118760000D01*
X81630000Y-118430000D02*
X88170000Y-118430000D01*
X81630000Y-118760000D02*
X81630000Y-118430000D01*
X81630000Y-120840000D02*
X81630000Y-121170000D01*
%TO.C,R5*%
X83860000Y-129870000D02*
X83530000Y-129870000D01*
X86270000Y-129870000D02*
X86270000Y-123330000D01*
X85940000Y-129870000D02*
X86270000Y-129870000D01*
X83530000Y-129870000D02*
X83530000Y-123330000D01*
X83530000Y-123330000D02*
X83860000Y-123330000D01*
X86270000Y-123330000D02*
X85940000Y-123330000D01*
%TO.C,J1*%
X106220000Y-129230000D02*
X106220000Y-149580000D01*
X106220000Y-149580000D02*
X97370000Y-149580000D01*
X106475000Y-149830000D02*
X97125000Y-149830000D01*
X105670000Y-129780000D02*
X105670000Y-137130000D01*
X97920000Y-149030000D02*
X97920000Y-129780000D01*
X97125000Y-149830000D02*
X97125000Y-128970000D01*
X97920000Y-149030000D02*
X97370000Y-149580000D01*
X106220000Y-149580000D02*
X105670000Y-149030000D01*
X97920000Y-129780000D02*
X97370000Y-129230000D01*
X105670000Y-137150000D02*
X106180000Y-137150000D01*
X106170000Y-141650000D02*
X105690000Y-141650000D01*
X106475000Y-128970000D02*
X106475000Y-149830000D01*
X97920000Y-129780000D02*
X105670000Y-129780000D01*
X105670000Y-129780000D02*
X106170000Y-129280000D01*
X97370000Y-129230000D02*
X106220000Y-129230000D01*
X105670000Y-149030000D02*
X97920000Y-149030000D01*
X105670000Y-141650000D02*
X105670000Y-149030000D01*
X97370000Y-149580000D02*
X97370000Y-129230000D01*
X97125000Y-128970000D02*
X106475000Y-128970000D01*
%TO.C,R1*%
X125730000Y-117970000D02*
X132270000Y-117970000D01*
X125730000Y-117640000D02*
X125730000Y-117970000D01*
X132270000Y-115230000D02*
X132270000Y-115560000D01*
X132270000Y-117970000D02*
X132270000Y-117640000D01*
X125730000Y-115560000D02*
X125730000Y-115230000D01*
X125730000Y-115230000D02*
X132270000Y-115230000D01*
%TO.C,RV1*%
X159595000Y-115670000D02*
X159595000Y-120740000D01*
X149825000Y-115670000D02*
X149825000Y-120740000D01*
X149825000Y-115670000D02*
X159595000Y-115670000D01*
X149825000Y-120740000D02*
X159595000Y-120740000D01*
%TO.C,R9*%
X148080000Y-123970000D02*
X141540000Y-123970000D01*
X141540000Y-121230000D02*
X141540000Y-121560000D01*
X148080000Y-121560000D02*
X148080000Y-121230000D01*
X148080000Y-123640000D02*
X148080000Y-123970000D01*
X148080000Y-121230000D02*
X141540000Y-121230000D01*
X141540000Y-123970000D02*
X141540000Y-123640000D01*
%TO.C,R2*%
X115600000Y-118075000D02*
X115600000Y-118005000D01*
X116970000Y-119445000D02*
G75*
G03*
X116970000Y-119445000I-1370000J0D01*
G01*
%TO.C,C7*%
X155675000Y-127720000D02*
X154279000Y-127720000D01*
X154279000Y-121480000D02*
X154279000Y-127720000D01*
X158921000Y-121480000D02*
X158921000Y-127720000D01*
X155675000Y-121480000D02*
X154279000Y-121480000D01*
X158921000Y-127720000D02*
X157525000Y-127720000D01*
X158921000Y-121480000D02*
X157525000Y-121480000D01*
%TO.C,R12*%
X113830000Y-123130000D02*
X114160000Y-123130000D01*
X116570000Y-129670000D02*
X116570000Y-123130000D01*
X113830000Y-129670000D02*
X113830000Y-123130000D01*
X116240000Y-129670000D02*
X116570000Y-129670000D01*
X114160000Y-129670000D02*
X113830000Y-129670000D01*
X116570000Y-123130000D02*
X116240000Y-123130000D01*
%TO.C,R11*%
X109940000Y-116830000D02*
X110270000Y-116830000D01*
X107860000Y-116830000D02*
X107530000Y-116830000D01*
X107530000Y-116830000D02*
X107530000Y-123370000D01*
X110270000Y-116830000D02*
X110270000Y-123370000D01*
X110270000Y-123370000D02*
X109940000Y-123370000D01*
X107530000Y-123370000D02*
X107860000Y-123370000D01*
%TO.C,D2*%
X151180000Y-146820000D02*
X153420000Y-146820000D01*
X151180000Y-146100000D02*
X153420000Y-146100000D01*
X151180000Y-142580000D02*
X151180000Y-146820000D01*
X152300000Y-141930000D02*
X152300000Y-142580000D01*
X151180000Y-145980000D02*
X153420000Y-145980000D01*
X153420000Y-142580000D02*
X151180000Y-142580000D01*
X151180000Y-146220000D02*
X153420000Y-146220000D01*
X152300000Y-147470000D02*
X152300000Y-146820000D01*
X153420000Y-146820000D02*
X153420000Y-142580000D01*
%TO.C,C8*%
X150875000Y-128720000D02*
X150630000Y-128720000D01*
X152970000Y-125080000D02*
X152725000Y-125080000D01*
X150630000Y-125080000D02*
X150630000Y-128720000D01*
X152970000Y-125080000D02*
X152970000Y-128720000D01*
X150875000Y-125080000D02*
X150630000Y-125080000D01*
X152970000Y-128720000D02*
X152725000Y-128720000D01*
%TO.C,SWD1*%
X124895000Y-141975000D02*
X124895000Y-140645000D01*
X127495000Y-143245000D02*
X127495000Y-140645000D01*
X124895000Y-148385000D02*
X130095000Y-148385000D01*
X124895000Y-140645000D02*
X126225000Y-140645000D01*
X130095000Y-140645000D02*
X130095000Y-148385000D01*
X124895000Y-143245000D02*
X124895000Y-148385000D01*
X124895000Y-143245000D02*
X127495000Y-143245000D01*
X127495000Y-140645000D02*
X130095000Y-140645000D01*
%TO.C,R10*%
X113140000Y-123370000D02*
X113470000Y-123370000D01*
X111060000Y-123370000D02*
X110730000Y-123370000D01*
X110730000Y-116830000D02*
X111060000Y-116830000D01*
X110730000Y-123370000D02*
X110730000Y-116830000D01*
X113470000Y-123370000D02*
X113470000Y-116830000D01*
X113470000Y-116830000D02*
X113140000Y-116830000D01*
%TO.C,R3*%
X88170000Y-115230000D02*
X88170000Y-115560000D01*
X81630000Y-115230000D02*
X88170000Y-115230000D01*
X88170000Y-117970000D02*
X88170000Y-117640000D01*
X81630000Y-117970000D02*
X88170000Y-117970000D01*
X81630000Y-117640000D02*
X81630000Y-117970000D01*
X81630000Y-115560000D02*
X81630000Y-115230000D01*
%TD*%
M02*
