%TF.GenerationSoftware,KiCad,Pcbnew,(5.99.0-12964-g8e5cbc5cf0)*%
%TF.CreationDate,2021-11-17T19:32:36+00:00*%
%TF.ProjectId,board,626f6172-642e-46b6-9963-61645f706362,rev?*%
%TF.SameCoordinates,Original*%
%TF.FileFunction,Soldermask,Bot*%
%TF.FilePolarity,Negative*%
%FSLAX46Y46*%
G04 Gerber Fmt 4.6, Leading zero omitted, Abs format (unit mm)*
G04 Created by KiCad (PCBNEW (5.99.0-12964-g8e5cbc5cf0)) date 2021-11-17 19:32:36*
%MOMM*%
%LPD*%
G01*
G04 APERTURE LIST*
G04 Aperture macros list*
%AMRoundRect*
0 Rectangle with rounded corners*
0 $1 Rounding radius*
0 $2 $3 $4 $5 $6 $7 $8 $9 X,Y pos of 4 corners*
0 Add a 4 corners polygon primitive as box body*
4,1,4,$2,$3,$4,$5,$6,$7,$8,$9,$2,$3,0*
0 Add four circle primitives for the rounded corners*
1,1,$1+$1,$2,$3*
1,1,$1+$1,$4,$5*
1,1,$1+$1,$6,$7*
1,1,$1+$1,$8,$9*
0 Add four rect primitives between the rounded corners*
20,1,$1+$1,$2,$3,$4,$5,0*
20,1,$1+$1,$4,$5,$6,$7,0*
20,1,$1+$1,$6,$7,$8,$9,0*
20,1,$1+$1,$8,$9,$2,$3,0*%
G04 Aperture macros list end*
%ADD10C,4.000000*%
%ADD11C,1.600000*%
%ADD12O,1.600000X1.600000*%
%ADD13R,1.700000X1.700000*%
%ADD14O,1.700000X1.700000*%
%ADD15R,1.800000X1.800000*%
%ADD16C,1.800000*%
%ADD17R,2.400000X1.600000*%
%ADD18O,2.400000X1.600000*%
%ADD19R,1.600000X1.600000*%
%ADD20R,1.905000X2.000000*%
%ADD21O,1.905000X2.000000*%
%ADD22R,1.100000X1.800000*%
%ADD23RoundRect,0.275000X-0.275000X-0.625000X0.275000X-0.625000X0.275000X0.625000X-0.275000X0.625000X0*%
%ADD24R,1.727200X1.727200*%
%ADD25O,1.727200X1.727200*%
%ADD26C,1.440000*%
%ADD27RoundRect,0.400000X0.400000X-0.400000X0.400000X0.400000X-0.400000X0.400000X-0.400000X-0.400000X0*%
%ADD28R,1.524000X1.524000*%
%ADD29C,1.524000*%
%ADD30C,4.500001*%
%ADD31R,4.500001X4.500001*%
%ADD32C,4.500000*%
G04 APERTURE END LIST*
D10*
%TO.C,TP1*%
X172500000Y-130000000D03*
%TD*%
D11*
%TO.C,R13*%
X155300000Y-148510000D03*
D12*
X155300000Y-140890000D03*
%TD*%
D11*
%TO.C,R7*%
X148610000Y-125700000D03*
D12*
X140990000Y-125700000D03*
%TD*%
D13*
%TO.C,BTN1*%
X147875000Y-117800000D03*
D14*
X145335000Y-117800000D03*
%TD*%
D11*
%TO.C,C2*%
X125750000Y-119700000D03*
X128250000Y-119700000D03*
%TD*%
%TO.C,C6*%
X87700000Y-124000000D03*
X92700000Y-124000000D03*
%TD*%
%TO.C,R6*%
X81800000Y-130410000D03*
D12*
X81800000Y-122790000D03*
%TD*%
D11*
%TO.C,C4*%
X127350000Y-132700000D03*
X129850000Y-132700000D03*
%TD*%
D15*
%TO.C,D1*%
X119225000Y-118600000D03*
D16*
X121765000Y-118600000D03*
%TD*%
D17*
%TO.C,U4*%
X97100000Y-116900000D03*
D18*
X97100000Y-119440000D03*
X97100000Y-121980000D03*
X97100000Y-124520000D03*
X104720000Y-124520000D03*
X104720000Y-121980000D03*
X104720000Y-119440000D03*
X104720000Y-116900000D03*
%TD*%
D19*
%TO.C,C5*%
X111282380Y-128500000D03*
D11*
X108782380Y-128500000D03*
%TD*%
%TO.C,R8*%
X148610000Y-128800000D03*
D12*
X140990000Y-128800000D03*
%TD*%
D20*
%TO.C,U2*%
X94240000Y-128100000D03*
D21*
X91700000Y-128100000D03*
X89160000Y-128100000D03*
%TD*%
D11*
%TO.C,C1*%
X120100000Y-129900000D03*
X120100000Y-124900000D03*
%TD*%
D13*
%TO.C,RST1*%
X129175000Y-136200000D03*
D14*
X126635000Y-136200000D03*
%TD*%
D11*
%TO.C,R14*%
X165610000Y-129900000D03*
D12*
X157990000Y-129900000D03*
%TD*%
D22*
%TO.C,Q1*%
X152634292Y-138020000D03*
D23*
X153904292Y-135950000D03*
X155174292Y-138020000D03*
%TD*%
D11*
%TO.C,C3*%
X134150000Y-127000000D03*
X136650000Y-127000000D03*
%TD*%
%TO.C,R4*%
X81090000Y-119800000D03*
D12*
X88710000Y-119800000D03*
%TD*%
D11*
%TO.C,R5*%
X84900000Y-130410000D03*
D12*
X84900000Y-122790000D03*
%TD*%
D24*
%TO.C,J1*%
X103070000Y-144480000D03*
D25*
X100530000Y-144480000D03*
X103070000Y-141940000D03*
X100530000Y-141940000D03*
X103070000Y-139400000D03*
X100530000Y-139400000D03*
X103070000Y-136860000D03*
X100530000Y-136860000D03*
X103070000Y-134320000D03*
X100530000Y-134320000D03*
%TD*%
D11*
%TO.C,R1*%
X125190000Y-116600000D03*
D12*
X132810000Y-116600000D03*
%TD*%
D26*
%TO.C,RV1*%
X157250000Y-118200000D03*
X154710000Y-118200000D03*
X152170000Y-118200000D03*
%TD*%
D11*
%TO.C,R9*%
X148620000Y-122600000D03*
D12*
X141000000Y-122600000D03*
%TD*%
D11*
%TO.C,R2*%
X115600000Y-119445000D03*
D12*
X115600000Y-116905000D03*
%TD*%
D11*
%TO.C,C7*%
X156600000Y-122100000D03*
X156600000Y-127100000D03*
%TD*%
%TO.C,R12*%
X115200000Y-130210000D03*
D12*
X115200000Y-122590000D03*
%TD*%
D11*
%TO.C,R11*%
X108900000Y-116290000D03*
D12*
X108900000Y-123910000D03*
%TD*%
D27*
%TO.C,D2*%
X152300000Y-148510000D03*
D12*
X152300000Y-140890000D03*
%TD*%
D11*
%TO.C,C8*%
X151800000Y-125650000D03*
X151800000Y-128150000D03*
%TD*%
D14*
%TO.C,SWD1*%
X128765000Y-147055000D03*
X126225000Y-147055000D03*
X128765000Y-144515000D03*
X126225000Y-144515000D03*
X128765000Y-141975000D03*
D13*
X126225000Y-141975000D03*
%TD*%
D11*
%TO.C,R10*%
X112100000Y-123910000D03*
D12*
X112100000Y-116290000D03*
%TD*%
D11*
%TO.C,R3*%
X81090000Y-116600000D03*
D12*
X88710000Y-116600000D03*
%TD*%
D28*
%TO.C,USB1*%
X160895000Y-116615000D03*
D29*
X160895000Y-119155000D03*
X160895000Y-121695000D03*
X160895000Y-124235000D03*
X160895000Y-126775000D03*
%TD*%
D30*
%TO.C,GATE_IN1*%
X166500000Y-147000000D03*
X172400000Y-143100000D03*
D31*
X170740000Y-135860000D03*
D32*
X159600000Y-140100000D03*
X163500000Y-134200000D03*
%TD*%
D30*
%TO.C,CV_IN1*%
X140833334Y-147000000D03*
X146733334Y-143100000D03*
D31*
X145073334Y-135860000D03*
D32*
X133933334Y-140100000D03*
X137833334Y-134200000D03*
%TD*%
D30*
%TO.C,HONK_OUT1*%
X89500000Y-147000000D03*
X95400000Y-143100000D03*
D31*
X93740000Y-135860000D03*
D32*
X82600000Y-140100000D03*
X86500000Y-134200000D03*
%TD*%
D30*
%TO.C,GATE_OUT1*%
X115166668Y-147000000D03*
X121066668Y-143100000D03*
D31*
X119406668Y-135860000D03*
D32*
X108266668Y-140100000D03*
X112166668Y-134200000D03*
%TD*%
M02*
