M48
; DRILL file {KiCad (5.99.0-12964-g8e5cbc5cf0)} date Wed Nov 17 19:32:14 2021
; FORMAT={2:4/ absolute / inch / suppress leading zeros}
; #@! TF.CreationDate,2021-11-17T19:32:14+00:00
; #@! TF.GenerationSoftware,Kicad,Pcbnew,(5.99.0-12964-g8e5cbc5cf0)
; #@! TF.FileFunction,Plated,1,2,PTH
FMAT,2
INCH,TZ
; #@! TA.AperFunction,Plated,PTH,ViaDrill
T1C0.0157
; #@! TA.AperFunction,Plated,PTH,ViaDrill
T2C0.0236
; #@! TA.AperFunction,Plated,PTH,ComponentDrill
T3C0.0295
; #@! TA.AperFunction,Plated,PTH,ComponentDrill
T4C0.0300
; #@! TA.AperFunction,Plated,PTH,ComponentDrill
T5C0.0315
; #@! TA.AperFunction,Plated,PTH,ComponentDrill
T6C0.0354
; #@! TA.AperFunction,Plated,PTH,ComponentDrill
T7C0.0394
; #@! TA.AperFunction,Plated,PTH,ComponentDrill
T8C0.0400
; #@! TA.AperFunction,Plated,PTH,ComponentDrill
T9C0.0433
; #@! TA.AperFunction,Plated,PTH,ComponentDrill
T10C0.1063
; #@! TA.AperFunction,Plated,PTH,ComponentDrill
T11C0.1181
%
G90
G05
T1
X39213Y-48583
X46417Y-49567
X46850Y-50866
X47677Y-50276
X47795Y-48819
X47953Y-49567
X48150Y-50591
X48211Y-48662
X48228Y-49213
X48881Y-48202
X49016Y-52205
X49252Y-50354
X49445Y-49130
X49610Y-51814
X49646Y-50551
X49685Y-49528
X49933Y-48926
X50225Y-48633
X51173Y-50716
X51339Y-49488
X51457Y-50472
X52447Y-48814
X52480Y-48228
X52756Y-49449
X53079Y-48275
X53268Y-47953
X53268Y-50394
X53780Y-46063
X53819Y-48031
X54331Y-48346
X54724Y-46969
X56614Y-46969
X57717Y-46654
X58898Y-46969
X60906Y-48701
T2
X40870Y-50615
T3
X60092Y-54181
X60592Y-53681
X61092Y-54181
T4
X63344Y-45911
X63344Y-46911
X63344Y-47911
X63344Y-48911
X63344Y-49911
T5
X31925Y-45906
X31925Y-47165
X32205Y-48343
X32205Y-51343
X33425Y-48343
X33425Y-51343
X34528Y-48819
X34925Y-45906
X34925Y-47165
X36496Y-48819
X38228Y-46024
X38228Y-47024
X38228Y-48024
X38228Y-49024
X41228Y-46024
X41228Y-47024
X41228Y-48024
X41228Y-49024
X42828Y-50591
X42874Y-45783
X42874Y-48783
X43812Y-50591
X44134Y-45783
X44134Y-48783
X45354Y-48264
X45354Y-51264
X45512Y-46026
X45512Y-47026
X47283Y-49173
X47283Y-51142
X49287Y-45906
X49508Y-47126
X50138Y-52244
X50492Y-47126
X51122Y-52244
X52287Y-45906
X52815Y-50000
X53799Y-50000
X55508Y-49488
X55508Y-50709
X55512Y-48268
X58508Y-49488
X58508Y-50709
X58512Y-48268
X59764Y-49469
X59764Y-50453
X59909Y-46535
X59961Y-55469
X59961Y-58469
X60909Y-46535
X61142Y-55469
X61142Y-58469
X61654Y-48071
X61654Y-50039
X61909Y-46535
X62201Y-51142
X65201Y-51142
T6
X46939Y-46693
X47939Y-46693
T7
X49695Y-55896
X49695Y-56896
X49695Y-57896
X49856Y-53622
X50695Y-55896
X50695Y-56896
X50695Y-57896
X50856Y-53622
X57219Y-46378
X58219Y-46378
T8
X39579Y-52882
X39579Y-53882
X39579Y-54882
X39579Y-55882
X39579Y-56882
X40579Y-52882
X40579Y-53882
X40579Y-54882
X40579Y-55882
X40579Y-56882
T9
X35102Y-50433
X36102Y-50433
X37102Y-50433
T10
X32520Y-55157
X34055Y-52835
X35236Y-57874
X36906Y-53488
X37559Y-56339
X42625Y-55157
X44160Y-52835
X45341Y-57874
X47010Y-53488
X47664Y-56339
X52730Y-55157
X54265Y-52835
X55446Y-57874
X57115Y-53488
X57769Y-56339
X62835Y-55157
X64370Y-52835
X65551Y-57874
X67220Y-53488
X67874Y-56339
T11
X67913Y-51181
T0
M30
